<svg width="44" height="39" viewBox="0 0 44 39" fill="none" xmlns="http://www.w3.org/2000/svg">
<path d="M16.2391 7.23514C20.8902 5.0509 26.0022 5.41037 30.7398 7.1179C31.4555 7.37587 32.193 7.65255 32.8734 7.99447L33.0808 8.07653L33.4887 8.26279C32.1621 8.32189 30.5986 8.43996 29.6432 9.4808C28.7699 10.4318 28.4181 11.991 27.987 13.185C27.856 13.5477 27.7236 13.9645 27.5143 14.2905C26.9044 15.8964 25.5818 17.9857 24.3194 19.1535C23.4312 20.0906 22.0211 21.3268 20.8413 21.8488C18.0031 23.5222 14.4652 23.8308 11.3096 23.0164C10.9254 22.9198 10.5475 22.803 10.1758 22.6659C9.9125 23.135 9.65626 23.5991 9.44841 24.0956C9.2925 24.468 9.17177 24.8593 9.01041 25.2275L9.00785 25.345C8.6507 26.0805 8.52186 28.2947 8.10363 28.7143C8.03606 28.7822 7.99634 28.7627 7.90969 28.7579C7.86788 28.7308 7.83149 28.7073 7.80467 28.6641C7.46231 28.1128 8.0336 25.9634 8.1955 25.3518L8.25629 25.2278C8.528 24.0921 9.12789 22.966 9.60122 21.8969C9.14988 20.5681 8.804 19.2104 8.73175 17.8035C8.58536 14.9536 9.63369 12.6513 11.5166 10.5618C12.0855 9.67542 14.0318 8.32682 14.9585 7.88211C15.3728 7.6469 15.796 7.41144 16.2391 7.23514Z" fill="#BBED6E"/>
<path d="M18.4609 12.1991L18.5681 12.2354C18.4755 12.3753 17.4418 13.1545 17.2244 13.3413C16.7173 13.7767 16.234 14.2196 15.7692 14.7005C15.7778 15.0627 15.7104 16.4856 15.5898 16.7703C15.7593 16.6998 15.8854 16.5434 16.0533 16.4545C16.1991 16.3774 16.3191 16.259 16.469 16.1866C17.0051 15.9279 17.5351 16.0062 18.0928 15.9123C18.2141 15.8919 18.3025 15.9176 18.4012 15.9921C18.4138 16.0016 18.4258 16.0116 18.4382 16.0214C18.3309 16.0092 18.182 15.9623 18.0928 16.0228L18.1132 16.0645C18.1686 16.1795 18.2027 16.2573 18.1838 16.3888C18.108 16.5461 17.9689 16.6159 17.8213 16.6963L17.7858 16.698C17.8003 16.7078 17.8145 16.7181 17.8292 16.7276C17.8763 16.758 17.9065 16.7633 17.9606 16.7699C18.214 16.8006 18.4534 16.9618 18.6053 17.1606C18.8113 17.4304 18.8848 17.7505 18.835 18.0845C18.7362 18.7481 18.2453 19.3876 17.7147 19.7736C17.6702 19.806 17.6251 19.8375 17.5795 19.8683C17.8948 19.8164 18.1791 19.6729 18.463 19.5334L18.3482 19.707C18.3823 19.8 18.4003 19.8063 18.4773 19.8631C18.3403 19.9532 18.2037 20.0512 18.0614 20.1323C18.0074 20.2459 17.9479 20.2727 17.8299 20.3168C17.3828 20.4841 16.4931 20.6026 16.0532 20.3891C15.8334 20.2823 15.5987 20.1312 15.3643 20.0661L15.3572 20.1124C15.3503 20.1557 15.3393 20.1916 15.3253 20.2328C15.222 20.5384 15.2601 20.9413 15.1971 21.2629C15.1511 21.498 15.0633 22.3513 15.0944 22.5612C15.5086 22.8172 17.273 22.1592 17.5675 22.354C17.2049 22.4901 16.7158 22.522 16.3315 22.574C14.3353 22.8441 12.3677 22.7957 10.4708 22.0695C10.6365 21.6951 10.8116 21.3252 10.9962 20.9598C11.1808 20.5943 11.3745 20.2338 11.5774 19.8782C11.7804 19.5227 11.9922 19.1725 12.213 18.8277C12.4338 18.4829 12.6633 18.144 12.9014 17.811C13.2846 17.2796 13.7269 16.7912 14.1066 16.2583C14.5522 15.8747 14.9578 15.326 15.3668 14.8963C15.8457 14.4062 16.3434 13.9361 16.86 13.4858C17.3765 13.0356 17.9101 12.6067 18.4609 12.1991Z" fill="url(#paint0_linear_3_2)"/>
<path d="M17.7858 16.698C17.8003 16.7078 17.8145 16.7181 17.8292 16.7276C17.8763 16.758 17.9065 16.7633 17.9606 16.7699C18.214 16.8006 18.4534 16.9618 18.6053 17.1606C18.8113 17.4304 18.8848 17.7505 18.835 18.0845C18.7362 18.7481 18.2453 19.3876 17.7147 19.7736C17.6702 19.806 17.6251 19.8375 17.5795 19.8683C17.1548 19.963 16.7449 19.9961 16.3192 19.8816C15.7684 19.7334 15.3613 19.3868 15.0823 18.896C15.0785 18.4456 15.1965 18.0786 15.4529 17.7037C15.583 17.5135 15.7456 17.3267 15.9813 17.2804C15.9329 17.3415 15.8817 17.3767 15.8844 17.4568C16.3201 17.4322 17.2338 17.0222 17.6148 16.8116C17.5721 16.7991 17.5377 16.7855 17.4976 16.7649C17.4843 16.7581 17.4711 16.7508 17.4578 16.7437L17.7858 16.698Z" fill="url(#paint1_linear_3_2)"/>
<path d="M15.3666 17.1294C15.6727 16.8018 16.0218 16.5219 16.4216 16.316C16.6822 16.1818 17.2183 15.9584 17.5063 16.0486C17.3966 16.127 17.3294 16.1722 17.2807 16.3005C17.2724 16.477 17.3562 16.6056 17.4578 16.7437C17.471 16.7508 17.4842 16.7581 17.4976 16.7649C17.5376 16.7855 17.572 16.7991 17.6148 16.8116C17.2338 17.0222 16.3201 17.4323 15.8844 17.4569C15.8817 17.3767 15.9329 17.3415 15.9813 17.2804C15.7455 17.3267 15.583 17.5135 15.4529 17.7037C15.1964 18.0786 15.0785 18.4456 15.0823 18.896C15.044 18.8096 15.0039 18.7209 14.9802 18.6292C14.84 18.0871 15.1024 17.5845 15.3666 17.1294Z" fill="#A3E624"/>
<path d="M16.6297 16.3394C16.711 16.3366 16.831 16.3254 16.907 16.3575C16.9845 16.3904 16.9874 16.4244 17.0165 16.4966C16.9808 16.6326 16.904 16.6876 16.801 16.7724C16.6978 16.7914 16.6177 16.7924 16.514 16.7763C16.4248 16.7061 16.4201 16.7154 16.4053 16.5954C16.451 16.4665 16.5222 16.4193 16.6297 16.3394Z" fill="#E2FCB3"/>
<path d="M18.0614 20.1323C17.6302 20.3003 17.1741 20.43 16.7071 20.4089C16.1345 20.3829 15.5601 20.1798 15.1687 19.7473C15.1484 19.7253 15.1288 19.7029 15.1097 19.6799C15.0906 19.6569 15.072 19.6335 15.0541 19.6095C15.0362 19.5856 15.0189 19.5613 15.0022 19.5365C14.9856 19.5116 14.9695 19.4864 14.9541 19.4608C14.9388 19.4352 14.9241 19.4092 14.91 19.3828C14.896 19.3564 14.8826 19.3297 14.8699 19.3026C14.8572 19.2756 14.8452 19.2482 14.8339 19.2205C14.8226 19.1929 14.812 19.1649 14.8021 19.1367C14.7923 19.1085 14.7832 19.0801 14.7747 19.0514C14.7663 19.0227 14.7587 18.9938 14.7517 18.9647C14.7448 18.9357 14.7386 18.9065 14.7331 18.8771C14.7277 18.8477 14.723 18.8181 14.7191 18.7885C14.7151 18.7589 14.712 18.7292 14.7095 18.6994C14.7071 18.6696 14.7054 18.6398 14.7045 18.6099C14.7036 18.58 14.7035 18.5501 14.7041 18.5203C14.7048 18.4904 14.7061 18.4605 14.7083 18.4307C14.742 17.9376 14.995 17.4525 15.3667 17.1294C15.1025 17.5845 14.84 18.087 14.9802 18.6292C15.004 18.7209 15.044 18.8096 15.0823 18.896C15.3613 19.3868 15.7684 19.7334 16.3192 19.8816C16.7449 19.9961 17.1548 19.963 17.5795 19.8683C17.8948 19.8164 18.1791 19.6729 18.463 19.5334L18.3482 19.707C18.3823 19.8 18.4003 19.8063 18.4773 19.8631C18.3403 19.9532 18.2037 20.0512 18.0614 20.1323Z" fill="url(#paint2_linear_3_2)"/>
<path d="M17.5063 16.0486C17.6357 16.036 17.6677 16.0108 17.7742 16.0917C17.8516 16.2219 17.8917 16.4767 17.8525 16.626C17.8465 16.6487 17.831 16.6766 17.8212 16.6963L17.7858 16.698L17.4578 16.7437C17.3562 16.6055 17.2724 16.477 17.2807 16.3005C17.3294 16.1722 17.3966 16.127 17.5063 16.0486Z" fill="#E2FCB3"/>
<path d="M11.5166 10.5618C11.5064 10.7243 10.5869 11.9968 10.41 12.3112C9.66612 13.6332 9.08493 15.2991 9.1406 16.8339C9.19236 16.8066 9.19444 16.7895 9.2244 16.7412C9.36881 16.7185 9.51587 16.8286 9.64027 16.8953C9.67753 16.4989 9.68134 16.0285 9.84542 15.6636C9.90443 15.9499 10.0827 16.1731 10.2965 16.3647C10.6937 16.7207 11.2117 16.9281 11.7479 16.8895C12.6873 16.8219 12.842 16.2182 13.3976 15.5932C13.486 15.4939 13.5586 15.3866 13.6939 15.3779C14.1116 14.9259 14.5428 14.4871 14.9874 14.0615C15.0989 14.3314 15.2815 14.6272 15.3668 14.8963C14.9578 15.326 14.5522 15.8747 14.1066 16.2583C13.7269 16.7912 13.2846 17.2796 12.9013 17.811C12.6633 18.144 12.4338 18.483 12.213 18.8277C11.9922 19.1725 11.7803 19.5227 11.5774 19.8782C11.3745 20.2338 11.1807 20.5943 10.9962 20.9598C10.8116 21.3252 10.6365 21.6951 10.4708 22.0695C12.3677 22.7957 14.3353 22.8441 16.3315 22.574C16.7158 22.522 17.2049 22.4901 17.5675 22.354C18.6101 22.2085 19.6087 21.782 20.5671 21.3653C20.5586 21.3774 20.5507 21.3898 20.5417 21.4016C20.3038 21.7153 19.3362 21.8153 19.0334 22.0827L19.0419 22.1268C19.0648 22.251 19.0835 22.3984 19.092 22.5235C19.0931 22.5399 19.0916 22.5564 19.0913 22.5729C19.6945 22.3882 20.2633 22.0939 20.8151 21.792L20.8413 21.8488C18.0031 23.5222 14.4652 23.8308 11.3096 23.0164C10.9254 22.9198 10.5475 22.803 10.1758 22.6659C9.9125 23.135 9.65626 23.5991 9.44841 24.0956C9.2925 24.468 9.17177 24.8593 9.01041 25.2275L9.00785 25.345C8.6507 26.0805 8.52186 28.2947 8.10363 28.7143C8.03606 28.7822 7.99634 28.7627 7.90969 28.7579C7.86788 28.7308 7.83149 28.7073 7.80467 28.6641C7.46231 28.1128 8.0336 25.9634 8.1955 25.3518L8.25629 25.2278C8.528 24.0921 9.12789 22.966 9.60122 21.8968C9.14988 20.5681 8.804 19.2104 8.73175 17.8035C8.58536 14.9536 9.63369 12.6513 11.5166 10.5618Z" fill="url(#paint3_linear_3_2)"/>
<path d="M9.84542 15.6636C9.90443 15.9499 10.0827 16.1731 10.2965 16.3647C10.6937 16.7207 11.2117 16.9282 11.7479 16.8895C12.6873 16.8219 12.842 16.2182 13.3976 15.5932C13.486 15.4939 13.5586 15.3866 13.6939 15.3779L13.6129 15.5037C13.2769 15.8223 12.9836 16.2177 12.7027 16.5845C12.425 16.9427 12.1591 17.3096 11.9052 17.6851C11.6513 18.0605 11.4098 18.4439 11.1808 18.835C10.9518 19.2262 10.7357 19.6244 10.5326 20.0297C10.3295 20.4349 10.1397 20.8463 9.96334 21.2639C9.42284 19.9038 9.03916 18.3067 9.1406 16.8339C9.19236 16.8066 9.19444 16.7895 9.2244 16.7412C9.36881 16.7185 9.51587 16.8286 9.64027 16.8953C9.67753 16.4989 9.68135 16.0285 9.84542 15.6636Z" fill="url(#paint4_linear_3_2)"/>
<path d="M13.6939 15.3779C14.1116 14.9259 14.5428 14.4871 14.9874 14.0615C15.0989 14.3314 15.2814 14.6272 15.3667 14.8963C14.9577 15.326 14.5522 15.8747 14.1066 16.2583C14.1916 15.9841 14.5031 15.7113 14.6941 15.5006C14.6388 15.2388 14.5063 14.9935 14.405 14.7464C14.1471 14.9955 13.9329 15.334 13.6129 15.5037L13.6939 15.3779Z" fill="#7CA364"/>
<path d="M16.2391 7.23514C20.8902 5.0509 26.0022 5.41037 30.7398 7.1179C31.4555 7.37587 32.193 7.65255 32.8734 7.99447C32.4066 7.96335 31.9025 7.76655 31.4376 7.68101C30.3642 7.48369 29.258 7.46325 28.1721 7.53415L27.9725 7.51114C28.1407 7.45469 29.7887 7.40308 29.9211 7.4474C30.0163 7.47934 30.0694 7.50244 30.1676 7.46697C30.0917 7.35214 29.8868 7.17178 29.7563 7.13336C29.1478 6.95411 27.4593 7.0543 26.743 7.05101L20.4543 7.01331C19.7061 7.00708 18.9577 6.97948 18.2089 6.97146C17.9094 6.96827 17.6021 6.94102 17.3034 6.96305C16.9727 6.98751 16.5914 7.12442 16.2991 7.27458L16.2647 7.29251L16.2391 7.23514Z" fill="#8FD44A"/>
<path d="M14.9874 14.0615C16.416 12.586 18.2558 11.2912 20.0295 10.2599C20.2972 10.1042 20.5864 9.98258 20.8595 9.83595C21.3062 9.5961 21.8447 9.25485 22.3361 9.1291L22.3455 9.16554C22.0351 9.37563 21.6449 9.41922 21.3456 9.63611C20.8486 9.99645 20.2142 10.1263 19.75 10.5406C19.7984 10.7248 19.8489 10.896 19.9287 11.0693L19.9926 11.0716C20.6851 10.5613 21.5138 10.2283 22.2481 9.78487C22.3909 9.6987 22.9309 9.44546 23.0579 9.47354L23.0624 9.53042C22.8634 9.78255 21.1037 10.5194 20.695 10.7286C19.9134 11.1287 19.1604 11.6718 18.4609 12.1991C17.9101 12.6067 17.3765 13.0356 16.86 13.4858C16.3434 13.9361 15.8457 14.4062 15.3668 14.8963C15.2815 14.6272 15.0989 14.3314 14.9874 14.0615Z" fill="url(#paint5_linear_3_2)"/>
<path d="M11.5166 10.5619C12.0855 9.67542 14.0318 8.32683 14.9585 7.88211L14.972 7.96987C14.337 8.60447 13.5919 9.13033 12.9388 9.75038C11.3611 11.2482 10.1146 13.4471 9.84159 15.6251C9.84 15.6379 9.84415 15.6508 9.84541 15.6636C9.68133 16.0285 9.67752 16.4989 9.64026 16.8953C9.51586 16.8286 9.3688 16.7185 9.22439 16.7412C9.19443 16.7895 9.19235 16.8066 9.14059 16.8339C9.08492 15.2991 9.66611 13.6332 10.41 12.3112C10.5869 11.9968 11.5064 10.7243 11.5166 10.5619Z" fill="url(#paint6_linear_3_2)"/>
<path d="M24.1079 18.8121C24.2963 18.5648 24.5396 18.3384 24.7499 18.1065C25.1418 17.6743 25.5248 17.2299 25.8717 16.7605C26.2187 16.2812 26.5495 15.7909 26.8643 15.2897C27.0658 14.968 27.2592 14.5695 27.5143 14.2905C26.9044 15.8964 25.5817 17.9857 24.3194 19.1535C23.4311 20.0906 22.0211 21.3268 20.8413 21.8488L20.8151 21.792C20.2632 22.0939 19.6945 22.3882 19.0913 22.5729C19.0916 22.5564 19.0931 22.5399 19.092 22.5235C19.0835 22.3984 19.0648 22.251 19.0419 22.1268L19.0333 22.0827C19.3362 21.8153 20.3037 21.7153 20.5417 21.4016C20.5506 21.3898 20.5586 21.3774 20.5671 21.3653C20.9886 21.0653 21.4966 20.8469 21.9381 20.5693C22.7241 20.0752 23.4314 19.4439 24.1079 18.8121Z" fill="#7CA364"/>
<path d="M24.1079 18.8121C24.2963 18.5648 24.5397 18.3384 24.7499 18.1065C25.1418 17.6743 25.5248 17.2299 25.8717 16.7605C26.2187 16.2812 26.5496 15.7909 26.8643 15.2897C27.0659 14.968 27.2592 14.5695 27.5143 14.2905C26.9044 15.8964 25.5818 17.9857 24.3194 19.1535C24.4294 18.8535 25.4634 17.707 25.7233 17.3561C25.8886 17.1333 26.0577 16.9075 26.2003 16.6693C26.3409 16.4342 26.4332 16.2052 26.6034 15.9849L26.6043 15.9848L26.5864 15.9736C26.3603 16.029 24.8195 18.468 24.1359 18.7996C24.1267 18.8041 24.1172 18.808 24.1079 18.8121Z" fill="#8FD44A"/>
<path d="M17.8212 16.6963C17.9689 16.6159 18.108 16.5461 18.1837 16.3889C18.2027 16.2574 18.1686 16.1795 18.1132 16.0645L18.0928 16.0228C18.182 15.9623 18.3308 16.0092 18.4381 16.0214C18.8931 16.2254 19.2228 16.4617 19.4058 16.9444C19.5942 17.4415 19.5293 18.0189 19.3112 18.4955C19.1681 18.8081 18.9609 19.0754 18.7162 19.3148C18.6371 19.3816 18.5268 19.4539 18.463 19.5334C18.1791 19.6729 17.8948 19.8164 17.5794 19.8683C17.6251 19.8375 17.6701 19.806 17.7147 19.7737C18.2453 19.3877 18.7362 18.7481 18.835 18.0845C18.8847 17.7505 18.8113 17.4304 18.6052 17.1607C18.4534 16.9618 18.214 16.8006 17.9606 16.7699C17.9065 16.7633 17.8763 16.758 17.8292 16.7276C17.8145 16.7181 17.8003 16.7078 17.7858 16.698L17.8212 16.6963Z" fill="#A3E624"/>
<path d="M28.1721 7.53414C29.258 7.46324 30.3642 7.48369 31.4376 7.68101C31.9025 7.76655 32.4066 7.96334 32.8734 7.99446L33.0808 8.07653C32.7202 8.17299 32.164 8.03757 31.7836 7.99857C31.0616 7.92458 29.9636 7.81212 29.2638 7.96808C29.6659 8.04535 30.1289 8.00993 30.5402 8.01636C29.3581 8.02921 28.247 8.18043 27.0765 8.31638C27.4786 8.12925 28.2156 8.11258 28.6626 8.04337L28.6476 8.00085C28.5374 7.99587 28.4113 8.0051 28.3089 7.96325C28.782 7.95319 29.2498 7.86852 29.7186 7.85978C30.2826 7.84924 30.8939 7.9387 31.4502 7.85939C31.5101 7.85083 31.4884 7.86461 31.5212 7.82058C31.4038 7.65926 31.18 7.72528 31.0056 7.70194C30.7325 7.6655 30.4566 7.59479 30.1821 7.58218C29.5509 7.55308 28.7728 7.70889 28.1721 7.53414Z" fill="#A3E624"/>
<path d="M18.7162 19.3148C18.7642 19.4039 18.8009 19.4339 18.7703 19.5394C18.7322 19.6706 18.5799 19.7788 18.4773 19.8631C18.4003 19.8063 18.3823 19.8 18.3482 19.707L18.463 19.5334C18.5268 19.4539 18.6371 19.3816 18.7162 19.3148Z" fill="#8FD44A"/>
<path d="M30.0313 8.51404L30.0375 8.51234C29.8114 8.69676 29.5325 8.81265 29.3068 9.01119C29.128 9.16801 28.9767 9.37331 28.8303 9.56005C27.9657 10.6642 27.9039 11.6412 27.4109 12.8682C25.7987 16.8771 22.9524 20.053 18.9495 21.7564L18.885 21.7519C18.9745 21.5958 20.1114 20.982 20.3583 20.815C20.7771 20.5315 21.183 20.2154 21.5799 19.9022C21.8425 19.6959 22.0985 19.4819 22.3481 19.2602C22.5977 19.0384 22.8404 18.8094 23.0761 18.573C23.3119 18.3366 23.5403 18.0933 23.7613 17.8431C23.9824 17.5929 24.1957 17.3363 24.4012 17.0732C24.6364 16.766 24.861 16.4514 25.0751 16.1292C25.2891 15.807 25.4922 15.4779 25.6842 15.1421C25.8762 14.8063 26.0568 14.4644 26.2259 14.1165C26.3951 13.7686 26.5523 13.4154 26.6976 13.0569C27.1524 11.9172 27.3549 10.5678 28.144 9.59866C28.5679 9.07831 29.3595 8.586 30.0313 8.51404Z" fill="#E2FCB3"/>
<path d="M20.7826 15.8598C21.067 15.6001 21.4147 15.3806 21.7945 15.2957C21.9527 15.2604 22.1475 15.2261 22.2899 15.3154C22.1375 15.3553 21.9333 15.3929 21.847 15.5394C21.8194 15.5863 21.8415 15.6081 21.8566 15.6552C21.9614 15.7247 22.0641 15.7601 22.1922 15.7382C22.2804 15.723 22.3715 15.6768 22.4245 15.6024C22.4818 15.5222 22.4716 15.4775 22.4532 15.386L22.4847 15.3325C22.7077 15.3661 22.9339 15.5405 23.0708 15.7163C23.211 15.8963 23.2629 16.1509 23.2256 16.3731C23.1631 16.7443 22.8864 17.0535 22.5824 17.256C22.5039 17.3089 22.4221 17.3561 22.337 17.3977C22.2102 17.5126 21.944 17.6284 21.7733 17.64C21.6404 17.6819 21.4946 17.6978 21.3552 17.6965C21.0446 17.6938 20.7418 17.5941 20.5272 17.3608C20.5168 17.3495 20.5066 17.3379 20.4968 17.326C20.487 17.3141 20.4775 17.302 20.4683 17.2896C20.4591 17.2772 20.4503 17.2646 20.4417 17.2518C20.4332 17.2389 20.425 17.2259 20.4172 17.2127C20.4093 17.1994 20.4019 17.1859 20.3947 17.1723C20.3876 17.1586 20.3808 17.1448 20.3744 17.1308C20.3679 17.1168 20.3619 17.1026 20.3562 17.0883C20.3505 17.0739 20.3452 17.0595 20.3403 17.0449C20.3354 17.0303 20.3308 17.0156 20.3267 17.0007C20.3225 16.9859 20.3187 16.9709 20.3153 16.9559C20.312 16.9409 20.309 16.9258 20.3064 16.9106C20.3038 16.8953 20.3016 16.8801 20.2998 16.8648C20.2981 16.8495 20.2967 16.8341 20.2957 16.8188C20.2947 16.8034 20.2941 16.788 20.2939 16.7726C20.2937 16.7572 20.2939 16.7418 20.2945 16.7264C20.2951 16.711 20.2961 16.6956 20.2976 16.6803C20.328 16.3276 20.5262 16.0831 20.7826 15.8598Z" fill="#A3E624"/>
<path d="M20.7826 15.8598C20.6549 16.0844 20.5387 16.2851 20.5325 16.5507L20.7397 16.2622L20.7778 16.2951C21.1016 16.5713 22.0476 17.0293 22.1825 17.3742C22.1403 17.4664 22.1167 17.5005 22.0134 17.5278C21.9608 17.5418 21.8999 17.542 21.8456 17.5444L21.4861 17.542L21.7733 17.64C21.6404 17.6819 21.4946 17.6978 21.3552 17.6965C21.0446 17.6938 20.7418 17.5941 20.5272 17.3608C20.5168 17.3495 20.5066 17.3379 20.4968 17.326C20.487 17.3141 20.4775 17.302 20.4683 17.2896C20.4591 17.2772 20.4503 17.2646 20.4417 17.2518C20.4332 17.2389 20.425 17.2259 20.4172 17.2127C20.4093 17.1994 20.4019 17.1859 20.3947 17.1722C20.3876 17.1586 20.3808 17.1448 20.3744 17.1308C20.3679 17.1168 20.3619 17.1026 20.3562 17.0883C20.3505 17.0739 20.3452 17.0594 20.3403 17.0449C20.3354 17.0303 20.3308 17.0156 20.3267 17.0007C20.3225 16.9859 20.3187 16.9709 20.3153 16.9559C20.312 16.9409 20.309 16.9258 20.3064 16.9106C20.3038 16.8953 20.3016 16.8801 20.2998 16.8648C20.2981 16.8495 20.2967 16.8341 20.2957 16.8188C20.2947 16.8034 20.2941 16.788 20.2939 16.7726C20.2937 16.7572 20.2939 16.7418 20.2945 16.7264C20.2951 16.711 20.2961 16.6956 20.2976 16.6803C20.328 16.3276 20.5262 16.0831 20.7826 15.8598Z" fill="#BBED6E"/>
<path d="M20.7826 15.8598C20.6549 16.0844 20.5387 16.2851 20.5325 16.5507L20.5437 16.7943C20.662 17.0948 20.8145 17.2951 21.1153 17.4291C21.2348 17.4822 21.359 17.5133 21.4861 17.542L21.7733 17.64C21.6404 17.6819 21.4946 17.6978 21.3552 17.6965C21.0446 17.6938 20.7418 17.5941 20.5272 17.3608C20.5168 17.3495 20.5066 17.3379 20.4968 17.326C20.487 17.3141 20.4775 17.302 20.4683 17.2896C20.4591 17.2772 20.4503 17.2646 20.4417 17.2518C20.4332 17.2389 20.425 17.2259 20.4172 17.2127C20.4093 17.1994 20.4019 17.1859 20.3947 17.1722C20.3876 17.1586 20.3808 17.1448 20.3744 17.1308C20.3679 17.1168 20.3619 17.1026 20.3562 17.0883C20.3505 17.0739 20.3452 17.0594 20.3403 17.0449C20.3354 17.0303 20.3308 17.0156 20.3267 17.0007C20.3225 16.9859 20.3187 16.9709 20.3153 16.9559C20.312 16.9409 20.309 16.9258 20.3064 16.9106C20.3038 16.8953 20.3016 16.8801 20.2998 16.8648C20.2981 16.8495 20.2967 16.8341 20.2957 16.8188C20.2947 16.8034 20.2941 16.788 20.2939 16.7726C20.2937 16.7572 20.2939 16.7418 20.2945 16.7264C20.2951 16.711 20.2961 16.6956 20.2976 16.6803C20.328 16.3276 20.5262 16.0831 20.7826 15.8598Z" fill="#71B107"/>
<path fill-rule="evenodd" clip-rule="evenodd" d="M33.0237 29.0602C32.7734 28.9759 32.5332 28.9242 32.2674 28.9248C31.9354 28.9643 31.6599 29.0325 31.4391 29.3096C31.2564 29.5388 31.18 29.8369 31.1225 30.1189C31.0658 30.0906 31.0086 30.0637 30.951 30.0382C30.893 30.0128 30.8345 29.9887 30.7755 29.966C30.7166 29.9433 30.6571 29.9221 30.5972 29.9022C30.5373 29.8824 30.4769 29.8641 30.416 29.8472C30.3551 29.8303 30.2937 29.8149 30.2318 29.8009C30.1703 29.787 30.1084 29.7745 30.0463 29.7635C29.9837 29.7525 29.9212 29.743 29.8587 29.7351C29.7959 29.7271 29.7331 29.7207 29.6703 29.7157C29.6071 29.7108 29.544 29.7074 29.4808 29.7055C29.4177 29.7036 29.3545 29.7032 29.2914 29.7043C29.2282 29.7055 29.1651 29.7081 29.1019 29.7123C29.0388 29.7165 28.9758 29.7221 28.913 29.7293C28.8501 29.7365 28.7876 29.7453 28.7254 29.7555C28.6629 29.7657 28.6008 29.7774 28.5389 29.7906C28.477 29.8038 28.4157 29.8185 28.3548 29.8347C28.2936 29.8509 28.2328 29.8685 28.1726 29.8876C27.6096 30.0676 27.1292 30.4277 26.8576 30.96C26.6396 31.3863 26.5782 31.8938 26.7281 32.3523C26.8957 32.8649 27.265 33.16 27.7115 33.4252C27.3433 33.7081 27.019 33.9995 26.9547 34.4854C26.9141 34.7907 27.0108 35.1141 27.2007 35.3555C27.2906 35.4703 27.409 35.5674 27.5216 35.6594C27.0779 35.8221 26.7508 36.0325 26.543 36.4741C26.3617 36.8602 26.3511 37.338 26.499 37.7369C26.656 38.1601 26.9885 38.4305 27.3926 38.6078C28.2475 38.9828 29.3851 38.9915 30.298 38.8263C31.1375 38.6354 32.0031 38.2541 32.4796 37.4975C32.7565 37.057 32.8836 36.4957 32.7618 35.9836C32.67 35.5972 32.466 35.265 32.12 35.0619C31.7619 34.8518 31.339 34.7556 30.9297 34.7141C30.8003 34.7009 30.5996 34.6995 30.3634 34.6977C29.5313 34.6916 28.2597 34.6821 28.1257 34.1479C28.0977 34.0371 28.1252 33.923 28.1851 33.8275C28.2417 33.7375 28.3137 33.6889 28.405 33.6389C28.541 33.6192 28.6761 33.6447 28.8115 33.6702C28.8916 33.6853 28.9719 33.7005 29.0526 33.7063C29.9868 33.7735 31.0553 33.6206 31.6522 32.8207C31.9494 32.4223 32.1084 31.882 32.0359 31.3866C31.9857 31.0424 31.8339 30.7609 31.6425 30.4761C32.0596 30.2511 32.4269 30.2215 32.8928 30.1955L33.0237 29.0602ZM29.0945 35.9129C28.8309 35.9111 28.5684 35.9093 28.3127 35.8931C28.0285 36.1325 27.8106 36.41 27.7753 36.7952C27.7502 37.0673 27.8405 37.3266 28.0174 37.5321C28.3113 37.8739 28.7607 37.994 29.1952 38.0177C29.6954 38.0449 30.1733 37.9729 30.6305 37.7694C30.9142 37.5919 31.1684 37.3984 31.2491 37.0525C31.2999 36.8344 31.2917 36.582 31.165 36.3909C30.9998 36.1416 30.6948 36.0397 30.414 35.9916C29.9887 35.9189 29.5399 35.9159 29.0945 35.9129Z" fill="#1B1B1B"/>
<path d="M28.6148 32.5823C28.5065 32.4961 28.4132 32.3948 28.3461 32.2731C28.1996 32.0075 28.159 31.7209 28.2465 31.4277C28.3345 31.1341 28.5432 30.8977 28.8139 30.759C28.8329 30.7494 28.8522 30.7403 28.8719 30.7317C28.8915 30.723 28.9113 30.7149 28.9313 30.7072C28.9513 30.6995 28.9716 30.6923 28.9922 30.6857C29.0125 30.679 29.033 30.6728 29.0536 30.6672C29.0742 30.6615 29.095 30.6564 29.1159 30.6518C29.1369 30.6471 29.158 30.643 29.1792 30.6394C29.2002 30.6358 29.2213 30.6327 29.2426 30.6302C29.2638 30.6277 29.2852 30.6256 29.3068 30.6242C29.3281 30.6227 29.3494 30.6217 29.3706 30.6213C29.3922 30.6208 29.4136 30.6209 29.4349 30.6215C29.4565 30.6222 29.4779 30.6233 29.4992 30.625C29.5204 30.6267 29.5417 30.6289 29.563 30.6316C29.5842 30.6343 29.6055 30.6376 29.6268 30.6414C29.6477 30.6451 29.6686 30.6494 29.6896 30.6543C29.7105 30.6591 29.7313 30.6644 29.7519 30.6702C29.7726 30.6761 29.793 30.6824 29.8133 30.6893C30.1555 30.8074 30.3594 31.0536 30.5092 31.3707C30.5208 31.3806 30.5329 31.3907 30.545 31.4005C30.703 31.5284 31.1225 31.643 31.1911 31.8338L31.1447 31.8428C30.4261 31.9858 30.1671 33.3842 28.7559 32.569C28.8564 32.4647 29.0009 32.3497 29.0454 32.2099C28.8985 32.2794 28.7051 32.4458 28.6148 32.5823Z" fill="#BBED6E"/>
<path d="M28.6148 32.5823C28.5065 32.4961 28.4132 32.3948 28.3461 32.2731C28.1996 32.0075 28.159 31.7209 28.2465 31.4277C28.3345 31.1341 28.5432 30.8977 28.8139 30.759C28.8329 30.7494 28.8522 30.7403 28.8719 30.7317C28.8915 30.723 28.9113 30.7149 28.9313 30.7072C28.9513 30.6995 28.9716 30.6923 28.9922 30.6857C29.0125 30.679 29.033 30.6728 29.0536 30.6672C29.0742 30.6615 29.095 30.6564 29.1159 30.6518C29.1369 30.6471 29.158 30.643 29.1792 30.6394C29.2002 30.6358 29.2213 30.6327 29.2426 30.6302C29.2638 30.6277 29.2852 30.6256 29.3068 30.6242C29.3281 30.6227 29.3494 30.6217 29.3706 30.6213C29.3922 30.6208 29.4136 30.6209 29.4349 30.6215C29.4565 30.6222 29.4779 30.6233 29.4992 30.625C29.5204 30.6267 29.5417 30.6289 29.563 30.6316C29.5842 30.6343 29.6055 30.6376 29.6268 30.6414C29.6477 30.6451 29.6686 30.6494 29.6896 30.6543C29.7105 30.6591 29.7313 30.6644 29.7519 30.6702C29.7726 30.6761 29.793 30.6824 29.8133 30.6893C30.1555 30.8074 30.3594 31.0536 30.5092 31.3707C30.0521 31.277 29.5291 31.2383 29.1227 31.5167C28.7999 31.7377 28.6984 32.0553 28.6404 32.4226C28.6322 32.4758 28.6249 32.5293 28.6148 32.5823Z" fill="#F5F5F5"/>
<path fill-rule="evenodd" clip-rule="evenodd" d="M22.8802 29.661C22.8283 29.6641 22.7766 29.6685 22.7249 29.6742C22.6737 29.6799 22.6227 29.6868 22.5718 29.6949C22.521 29.7031 22.4704 29.7125 22.4199 29.7231C22.3696 29.7337 22.3194 29.7456 22.2696 29.7586C22.2198 29.7717 22.1703 29.786 22.1212 29.8015C22.0721 29.817 22.0234 29.8337 21.975 29.8516C21.9267 29.8694 21.8789 29.8885 21.8315 29.9087C21.7841 29.9289 21.7373 29.9503 21.691 29.9728C21.6446 29.9953 21.5989 30.0189 21.5537 30.0437C21.5085 30.0684 21.4639 30.0942 21.42 30.1212C21.3761 30.1481 21.3329 30.176 21.2903 30.2051C21.2478 30.2341 21.206 30.2642 21.1649 30.2953C21.1238 30.3264 21.0835 30.3584 21.044 30.3915C21.0045 30.4245 20.9658 30.4585 20.928 30.4935C20.8901 30.5284 20.8532 30.5643 20.817 30.601C20.781 30.6378 20.7458 30.6754 20.7115 30.7139C20.6773 30.7523 20.644 30.7916 20.6116 30.8318C20.5793 30.8718 20.548 30.9127 20.5176 30.9544C20.4873 30.996 20.458 31.0383 20.4297 31.0814C20.4014 31.1244 20.3742 31.1682 20.3481 31.2126C20.322 31.257 20.2969 31.302 20.273 31.3476C20.2491 31.3932 20.2263 31.4394 20.2046 31.4862C20.1829 31.5329 20.1624 31.5801 20.143 31.6279C20.1236 31.6756 20.1055 31.7238 20.0884 31.7724C20.0714 31.8211 20.0556 31.8701 20.041 31.9195C20.0264 31.9689 20.013 32.0186 20.0008 32.0687C19.9886 32.1187 19.9777 32.169 19.968 32.2196C19.9582 32.2702 19.9497 32.3211 19.9425 32.3721C19.9353 32.4231 19.9293 32.4742 19.9245 32.5255C19.9198 32.5768 19.9163 32.6282 19.9141 32.6797C19.9119 32.7312 19.9109 32.7827 19.9112 32.8342C19.9115 32.8857 19.913 32.9372 19.9158 32.9886C19.9186 33.0401 19.9227 33.0914 19.928 33.1427C19.9333 33.1939 19.9399 33.245 19.9477 33.2959C19.9555 33.3468 19.9646 33.3975 19.9748 33.448C19.9851 33.4985 19.9967 33.5487 20.0094 33.5986C20.0221 33.6485 20.0361 33.6981 20.0513 33.7473C20.0664 33.7966 20.0828 33.8454 20.1003 33.8939C20.1179 33.9423 20.1366 33.9903 20.1565 34.0378C20.1764 34.0853 20.1975 34.1323 20.2197 34.1788C20.2419 34.2253 20.2652 34.2712 20.2896 34.3166C20.3141 34.3619 20.3396 34.4066 20.3662 34.4507C20.3929 34.4949 20.4206 34.5383 20.4493 34.581C20.4781 34.6237 20.5078 34.6658 20.5386 34.7071C20.5695 34.7484 20.6013 34.7889 20.634 34.8286C20.6668 34.8684 20.7006 34.9073 20.7352 34.9453C20.7699 34.9834 20.8055 35.0206 20.842 35.057C20.8785 35.0933 20.9159 35.1288 20.9542 35.1633C20.9924 35.1978 21.0315 35.2314 21.0713 35.264C21.1112 35.2966 21.1518 35.3282 21.1933 35.3588C21.2347 35.3894 21.2769 35.419 21.3197 35.4476C21.3626 35.4762 21.4061 35.5036 21.4503 35.5301C21.4946 35.5565 21.5394 35.5818 21.5849 35.6061C21.6303 35.6303 21.6763 35.6534 21.7229 35.6754C21.7695 35.6974 21.8166 35.7182 21.8642 35.7379C21.9118 35.7576 21.9598 35.7761 22.0083 35.7934C22.0569 35.8108 22.1058 35.8269 22.1551 35.8419C22.2043 35.8568 22.254 35.8705 22.304 35.883C22.3539 35.8955 22.4042 35.9068 22.4547 35.9169C22.5052 35.927 22.5559 35.9358 22.6069 35.9434C22.6578 35.9509 22.7089 35.9573 22.7602 35.9624C22.8114 35.9674 22.8628 35.9712 22.9142 35.9738C22.9657 35.9764 23.0171 35.9777 23.0686 35.9777C23.1202 35.9778 23.1716 35.9766 23.2231 35.9741C23.2746 35.9716 23.3259 35.9679 23.3772 35.9629C23.4289 35.9579 23.4804 35.9516 23.5318 35.944C23.5832 35.9365 23.6343 35.9277 23.6853 35.9176C23.7363 35.9075 23.7869 35.8961 23.8373 35.8836C23.8877 35.871 23.9378 35.8572 23.9875 35.8421C24.0372 35.827 24.0865 35.8108 24.1354 35.7933C24.1843 35.7758 24.2328 35.7571 24.2808 35.7372C24.3287 35.7174 24.3762 35.6963 24.4232 35.6741C24.4701 35.6519 24.5165 35.6285 24.5623 35.604C24.6081 35.5795 24.6533 35.5539 24.6978 35.5272C24.7424 35.5004 24.7862 35.4726 24.8294 35.4437C24.8726 35.4148 24.915 35.3849 24.9566 35.3539C24.9983 35.3229 25.0392 35.2909 25.0794 35.2579C25.1195 35.2249 25.1588 35.1909 25.1972 35.156C25.2356 35.1211 25.2732 35.0852 25.3099 35.0484C25.3465 35.0116 25.3823 34.9739 25.4171 34.9354C25.4519 34.8968 25.4857 34.8574 25.5186 34.8172C25.5515 34.777 25.5833 34.736 25.6142 34.6942C25.645 34.6524 25.6748 34.6099 25.7035 34.5666C25.7322 34.5233 25.7599 34.4794 25.7866 34.4347C25.8134 34.3901 25.8388 34.3449 25.863 34.299C25.8875 34.2531 25.9107 34.2067 25.9326 34.1596C25.9548 34.1126 25.9757 34.065 25.9954 34.017C26.015 33.9689 26.0336 33.9204 26.051 33.8714C26.0684 33.8225 26.0845 33.7731 26.0993 33.7233C26.1141 33.6735 26.1278 33.6234 26.1404 33.573C26.1526 33.5226 26.1637 33.4718 26.1737 33.4208C26.1837 33.3699 26.1924 33.3187 26.1998 33.2672C26.2072 33.2158 26.2134 33.1642 26.2182 33.1125C26.223 33.0608 26.2266 33.009 26.2288 32.9571C26.2314 32.9052 26.2325 32.8532 26.2322 32.8013C26.2319 32.7493 26.2303 32.6974 26.2274 32.6456C26.2248 32.5937 26.2208 32.5419 26.2153 32.4902C26.2098 32.4385 26.2032 32.387 26.1955 32.3357C26.1874 32.2843 26.1782 32.2332 26.1679 32.1823C26.1576 32.1314 26.146 32.0808 26.1331 32.0305C26.1199 31.9802 26.1057 31.9302 26.0906 31.8806C26.0751 31.8309 26.0585 31.7817 26.0408 31.7329C26.0231 31.6841 26.0041 31.6358 25.9838 31.5879C25.9635 31.5401 25.9421 31.4927 25.9195 31.4459C25.897 31.3991 25.8733 31.3529 25.8485 31.3072C25.824 31.2615 25.7982 31.2165 25.7711 31.1722C25.7441 31.1278 25.7159 31.0841 25.6866 31.0412C25.6575 30.9982 25.6274 30.9559 25.5961 30.9144C25.5649 30.8729 25.5326 30.8322 25.4994 30.7923C25.4661 30.7524 25.4318 30.7134 25.3967 30.6751C25.3615 30.6369 25.3254 30.5996 25.2884 30.5631C25.2513 30.5267 25.2134 30.4912 25.1747 30.4566C25.1359 30.4221 25.0963 30.3885 25.0559 30.3559C25.0155 30.3233 24.9743 30.2917 24.9323 30.261C24.8903 30.2305 24.8476 30.2009 24.8041 30.1725C24.7607 30.144 24.7166 30.1166 24.6718 30.0903C24.627 30.064 24.5816 30.0388 24.5355 30.0148C24.4895 29.9907 24.4429 29.9678 24.3957 29.946C24.3486 29.9242 24.3009 29.9037 24.2527 29.8842C24.2046 29.8648 24.1559 29.8466 24.1069 29.8296C24.0578 29.8126 24.0083 29.7968 23.9585 29.7822C23.9086 29.7676 23.8584 29.7543 23.8079 29.7421C23.7574 29.7301 23.7067 29.7192 23.6556 29.7096C23.6046 29.7 23.5533 29.6917 23.5019 29.6846C23.4504 29.6775 23.3988 29.6717 23.3471 29.6672C23.2953 29.6627 23.2435 29.6594 23.1916 29.6575C23.1397 29.6555 23.0878 29.6548 23.0358 29.6554C22.9839 29.656 22.932 29.6578 22.8802 29.661ZM23.7131 30.9689C23.4614 30.8124 23.1894 30.7616 22.8956 30.7791C22.4567 30.8805 22.1527 31.0771 21.9125 31.4667C21.5528 32.0503 21.5066 32.8306 21.6643 33.485C21.7769 33.9522 22.024 34.4178 22.4442 34.6744C22.6999 34.8306 22.9536 34.8629 23.2487 34.8536C23.6732 34.7614 23.9727 34.5707 24.2114 34.2009C24.5779 33.6332 24.6332 32.8575 24.491 32.2104C24.3854 31.7297 24.1433 31.2364 23.7131 30.9689Z" fill="#1B1B1B"/>
<path d="M19.042 27.0283C19.0692 27.0235 19.1251 27.0351 19.1533 27.0383C19.2662 27.3416 19.1273 29.1136 19.1198 29.5784C19.0898 31.6337 19.1163 33.6884 19.1993 35.7422L17.6066 35.7411L17.5794 35.7309C17.5396 35.6765 17.535 35.6714 17.5341 35.6033C17.5248 34.9325 17.5887 34.2453 17.6009 33.5719C17.64 31.4186 17.6574 29.2552 17.4287 27.1112L19.042 27.0283Z" fill="#1B1B1B"/>
<path d="M6.10077 0.00183105L6.72087 1.24589L6.16602 1.24637L6.16486 25.2231L8.2563 25.2278L8.1955 25.3518L6.1651 25.3526C6.16423 26.0677 6.25605 28.4535 6.10628 28.9584L6.0697 28.9443C5.99629 28.4985 6.0305 28.0153 6.03094 27.5637L6.03447 25.3533C5.59371 25.3525 2.62125 25.4119 2.49487 25.2903C2.71776 25.1368 5.55007 25.2237 6.03393 25.2241L6.0336 1.24662L5.48391 1.2456L6.10077 0.00183105Z" fill="#1B1B1B"/>
<path d="M36.2366 24.6679C36.4831 24.7883 37.264 25.1045 37.3994 25.2873C37.1195 25.5488 36.586 25.7339 36.2342 25.9045L36.2361 25.3535L18.0757 25.3539L12.1018 25.354C11.0759 25.354 10.0308 25.397 9.00784 25.3449L9.0104 25.2275L36.2356 25.2236L36.2366 24.6679Z" fill="#1B1B1B"/>
<path d="M14.6507 32.2469L14.9101 32.2484C14.9721 32.2874 14.9924 32.2932 15.0211 32.3608C15.1525 32.6699 14.9352 33.4365 14.8175 33.7499C14.561 34.433 14.0261 34.9629 13.3641 35.26C12.614 35.5965 11.72 35.6062 10.9568 35.305C10.3077 35.0489 9.7557 34.5642 9.47699 33.9186C9.33529 33.5904 9.10438 32.6521 9.2367 32.3108C9.36608 32.2283 9.45708 32.2493 9.60665 32.2483C9.62806 33.0775 9.70007 33.8717 10.3392 34.4766C10.8444 34.9547 11.529 35.1764 12.2183 35.1536C12.8943 35.1312 13.5589 34.8748 14.0244 34.3738C14.5601 33.7971 14.6295 32.9961 14.6507 32.2469Z" fill="url(#paint7_linear_3_2)"/>
<path d="M39.3953 31.7835C39.5166 31.7773 39.6877 31.7445 39.7926 31.8117C39.7558 31.9771 39.7239 32.1421 39.7065 32.3109C39.6515 32.8447 39.7597 33.4118 40.1091 33.8322C40.4025 34.1853 40.7838 34.3388 41.2356 34.3798C41.7532 34.4268 42.3419 34.2464 42.7406 33.9105C42.887 33.7871 43.1258 33.5407 43.1436 33.3476C43.1663 33.3006 43.1794 33.256 43.1871 33.2045C43.2446 32.8082 43.2185 32.0996 42.9803 31.7733C43.1572 31.7693 43.3336 31.7799 43.5104 31.7885C43.5245 31.8277 43.5274 31.8331 43.537 31.8803C43.5786 32.0899 43.6008 32.4244 43.4863 32.6107C43.6226 32.8285 43.5897 34.3156 43.538 34.616C43.4718 34.6789 43.4307 34.6673 43.3413 34.6753C43.0798 34.5134 43.2572 34.1761 43.1325 33.9234C43.1282 33.9145 43.1229 33.906 43.118 33.8973C43.0653 34.0814 42.8865 34.2277 42.7377 34.3396C42.2882 34.6761 41.6363 34.7942 41.0887 34.7155C40.5402 34.6368 40.039 34.3633 39.7109 33.9118C39.2358 33.2581 39.2759 32.54 39.3953 31.7835Z" fill="url(#paint8_linear_3_2)"/>
<path d="M9.60681 31.9026C9.47845 31.9066 9.402 31.9249 9.28606 31.8587C9.18051 31.6092 9.35401 31.0725 9.45236 30.8261C9.71207 30.1752 10.2475 29.6759 10.8885 29.4055C11.6543 29.0825 12.588 29.0805 13.3545 29.4017C13.9942 29.6697 14.529 30.16 14.7856 30.8094C14.8976 31.0929 15.0719 31.5578 14.9735 31.8641C14.8602 31.8914 14.7495 31.9185 14.6335 31.9316C14.6773 31.4465 14.4335 30.7885 14.1321 30.4115C13.7198 29.8959 13.0905 29.5969 12.4405 29.5313C11.7254 29.4592 10.9907 29.6328 10.4324 30.0983C9.87822 30.5602 9.66519 31.2011 9.60681 31.9026Z" fill="#71B107"/>
<path d="M3.95834 32.2488C4.02929 32.2462 4.10275 32.2412 4.1736 32.2462C4.19989 32.2481 4.28804 32.2608 4.3079 32.2735C4.36836 32.3121 4.39924 32.7276 4.41012 32.8055C4.4959 33.422 4.65726 33.8887 5.09154 34.3552C5.56955 34.8687 6.22445 35.126 6.91902 35.1513C7.73083 35.1808 8.35474 34.8664 8.93729 34.3276C9.01239 34.4383 9.07875 34.5575 9.14863 34.6717C8.5771 35.1959 7.88761 35.5036 7.10861 35.5237C6.28263 35.545 5.47396 35.2701 4.8773 34.6898C4.19153 34.0229 3.97207 33.1767 3.95834 32.2488Z" fill="url(#paint9_linear_3_2)"/>
<path d="M1.71761 32.2375C2.10646 32.2313 3.16136 32.1494 3.47994 32.2578C3.56799 32.2877 3.57462 32.2981 3.61574 32.38L3.54528 32.4567C3.19481 32.595 1.77565 32.507 1.3103 32.5052C1.30943 32.9183 1.20818 34.7416 1.44809 34.9874C1.6125 35.1559 2.4681 35.0731 2.70515 35.069C3.08177 35.0708 3.55843 35.0082 3.92093 35.0787C4.00058 35.1755 3.97555 35.2248 3.97071 35.3471C3.90533 35.4085 3.857 35.4055 3.76943 35.4141C3.31287 35.4591 2.05455 35.4699 1.63516 35.3893C1.44171 35.3521 1.23433 35.283 1.0863 35.1483C0.823977 34.9096 0.932714 32.7037 0.933246 32.251L1.71761 32.2375Z" fill="#71B107"/>
<path d="M6.80479 29.1741C6.83466 29.1715 6.86467 29.1711 6.89463 29.1702C7.83669 29.1432 8.54654 29.45 9.22864 30.0911C9.13783 30.1727 9.03562 30.241 8.93645 30.3121C8.52392 29.9228 8.07292 29.6424 7.50478 29.5495C6.73501 29.4237 6.00931 29.6019 5.37738 30.0504C5.12607 30.2567 4.90376 30.5034 4.74433 30.7876C4.57866 31.0828 4.45755 31.7844 4.17995 31.9479L4.1064 31.9252C4.06343 31.8529 4.04231 31.7983 4.03419 31.7135C3.98683 31.2205 4.39583 30.5561 4.70175 30.1918C5.25322 29.5352 5.96761 29.2528 6.80479 29.1741Z" fill="#71B107"/>
<path fill-rule="evenodd" clip-rule="evenodd" d="M34.0608 35.7191L34.0612 35.7191C34.3267 35.7059 34.6261 35.6911 34.8486 35.7811C35.1762 35.9138 35.1552 36.0761 35.1321 36.2546C35.1224 36.3295 35.1123 36.4072 35.1275 36.4868C35.1382 36.5429 35.1772 36.6096 35.2158 36.6755L35.2158 36.6756L35.2158 36.6756C35.245 36.7255 35.2738 36.7748 35.2898 36.8185C35.3383 36.9517 35.2642 37.0959 35.2009 37.219L35.2006 37.2196C35.192 37.2363 35.1836 37.2526 35.1758 37.2685C34.8617 37.4892 34.4525 37.4735 34.0717 37.4588C33.9973 37.456 33.9239 37.4532 33.8526 37.4522L33.8535 35.7274C33.9186 35.7262 33.9885 35.7227 34.0608 35.7191ZM34.3138 36.7485L34.3142 36.7485C34.4788 36.7408 34.6466 36.733 34.8032 36.7868C34.886 36.8706 34.8872 36.8824 34.897 36.9777L34.8998 37.0042C34.8818 37.0081 34.8619 37.0125 34.8407 37.0173C34.6816 37.0532 34.4459 37.1063 34.3257 37.0244C34.2562 36.977 34.2428 36.8945 34.2297 36.8131C34.2264 36.7926 34.2231 36.7722 34.2189 36.7525C34.2504 36.7515 34.282 36.75 34.3138 36.7485ZM34.3931 36.1218C34.3809 36.1219 34.3687 36.122 34.3566 36.1221L34.2701 36.1491L34.2571 36.3032C34.3793 36.3758 34.5469 36.367 34.6873 36.3597C34.6946 36.3594 34.7018 36.359 34.709 36.3586L34.7495 36.2277C34.6993 36.1508 34.6964 36.1501 34.6065 36.1334C34.5368 36.1204 34.4642 36.1211 34.3931 36.1218Z" fill="#548400"/>
<path fill-rule="evenodd" clip-rule="evenodd" d="M36.0599 35.716C35.9721 35.7204 35.8894 35.7246 35.8161 35.7254C35.8152 35.8127 35.8094 35.9225 35.8029 36.0449C35.7784 36.5076 35.7445 37.1491 35.9302 37.4257C36.0205 37.468 36.0214 37.4677 36.1047 37.4404C36.1106 37.4385 36.1168 37.4364 36.1235 37.4343C36.2508 37.2763 36.2363 37.0355 36.2236 36.8254C36.221 36.7828 36.2185 36.7413 36.2173 36.7022L36.9248 37.4382L36.9353 37.4386C37.0399 37.4428 37.0644 37.4437 37.165 37.39C37.1705 37.3789 37.176 37.3687 37.1811 37.3591C37.2092 37.3062 37.2279 37.2711 37.2099 37.2006C37.194 37.1398 37.1487 37.0885 37.1044 37.0384C37.0315 36.9559 36.9614 36.8766 37.0296 36.7632C37.0652 36.704 37.1083 36.6555 37.1496 36.6091C37.2416 36.5057 37.3248 36.4123 37.2955 36.2319C37.2703 36.0783 37.1819 35.918 37.0495 35.8329C36.8084 35.6779 36.3965 35.6988 36.0599 35.716ZM36.3205 36.1236C36.2839 36.1254 36.2484 36.1272 36.2148 36.128C36.2151 36.1512 36.2148 36.1728 36.2146 36.1932C36.2135 36.3007 36.2127 36.3753 36.2806 36.4833C36.4343 36.5702 36.6753 36.518 36.8466 36.4809L36.8639 36.4772C36.8642 36.4617 36.8646 36.4475 36.8649 36.4343C36.8677 36.3355 36.8689 36.2921 36.8093 36.1899C36.6776 36.1056 36.4878 36.1152 36.3205 36.1236Z" fill="#548400"/>
<path d="M35.1072 31.7699C35.2236 31.7657 35.3164 31.7624 35.4281 31.8005C35.4609 31.8695 35.3483 32.635 35.3812 32.8649C35.4484 33.3427 35.6823 33.7831 36.0737 34.0723C36.4526 34.352 36.9514 34.4613 37.4148 34.3878C37.7526 34.3343 38.1223 34.1378 38.3268 33.86C38.4355 33.9241 38.5322 33.9922 38.5737 34.1103L38.4838 34.1808C38.4254 34.3186 38.2176 34.441 38.0909 34.5155C37.6434 34.7784 36.9915 34.7939 36.5014 34.6578C36.4682 34.6488 36.4352 34.6389 36.4023 34.6282C36.3695 34.6175 36.3371 34.6059 36.3052 34.5936C36.273 34.5812 36.2411 34.5681 36.2095 34.5541C36.1779 34.5401 36.1469 34.5254 36.1162 34.5098C36.0853 34.4943 36.0549 34.478 36.0249 34.4609C35.9949 34.4439 35.9655 34.426 35.9365 34.4074C35.9075 34.3889 35.879 34.3696 35.8509 34.3496C35.8229 34.3296 35.7953 34.3089 35.7683 34.2874C35.7412 34.266 35.7148 34.244 35.689 34.2212C35.6629 34.1985 35.6376 34.1751 35.6132 34.1511C35.5883 34.1271 35.5642 34.1024 35.5407 34.0772C35.5171 34.0519 35.4943 34.0261 35.472 33.9997C35.4501 33.9733 35.4287 33.9464 35.4078 33.9189C35.3871 33.8914 35.367 33.8634 35.3473 33.8349C35.328 33.8064 35.3095 33.7774 35.2918 33.748C35.2737 33.7186 35.2565 33.6887 35.2401 33.6584C34.9288 33.083 34.9177 32.3856 35.1072 31.7699Z" fill="url(#paint10_linear_3_2)"/>
<path d="M1.44871 29.2888C2.00323 29.2406 3.40513 29.2173 3.93205 29.2937C3.98516 29.3746 3.96593 29.4725 3.96172 29.5651C3.66218 29.8161 1.87714 29.3671 1.36182 29.7611C1.35215 29.7685 1.34273 29.7762 1.33321 29.7837C1.28647 30.1708 1.4115 31.6584 1.22263 31.9021C1.12665 31.9024 1.04082 31.9282 0.969444 31.8609C0.890911 31.4174 0.866843 30.1272 1.00748 29.6805C1.0749 29.4663 1.26134 29.3836 1.44871 29.2888Z" fill="#71B107"/>
<path d="M41.0926 30.3777C41.6489 30.3443 42.2128 30.4087 42.6816 30.7409C42.8648 30.8708 43.0953 31.0914 43.1325 31.3205C43.2185 31.1346 43.19 30.9644 43.1871 30.766C43.1852 30.6335 43.2045 30.5449 43.2988 30.4482C43.4075 30.427 43.4036 30.425 43.4989 30.4813C43.5298 30.5393 43.5549 30.5994 43.5655 30.6645C43.5999 30.869 43.566 31.3398 43.4496 31.5123C43.2704 31.5055 43.0913 31.4995 42.9121 31.4944C42.786 31.3103 42.6492 31.1433 42.4472 31.0393C42.4376 31.0228 42.4298 31.0047 42.4178 30.9898C42.3032 30.8489 41.9751 30.7549 41.802 30.7279C41.3371 30.6552 40.6601 30.755 40.2942 31.076C40.1681 31.1866 40.0792 31.357 39.9414 31.45C39.8346 31.5223 39.7186 31.5014 39.6002 31.4746C39.5828 31.3773 39.6461 31.2688 39.7012 31.1873C40.0361 30.6908 40.5272 30.4856 41.0926 30.3777Z" fill="#71B107"/>
<path d="M38.4031 35.7112C38.5095 35.6969 38.611 35.685 38.7057 35.7469C38.9729 35.9217 39.1619 36.6141 39.2368 36.9249C39.2701 37.0649 39.3127 37.2807 39.2223 37.4045C39.1827 37.4595 39.1643 37.4482 39.102 37.4605C38.9608 37.3996 38.9439 37.2437 38.8511 37.1333C38.7772 37.0459 38.7105 37.0674 38.6037 37.0618C38.4921 37.0596 38.3809 37.0646 38.2688 37.0692C38.2132 37.1949 38.1436 37.3454 38.0073 37.3995C37.9063 37.4395 37.8701 37.4329 37.7778 37.3844C37.7657 37.3465 37.756 37.3214 37.7599 37.281C37.7865 36.9883 38.1857 35.9002 38.4031 35.7112Z" fill="#548400"/>
<path d="M40.3913 35.7122C40.5523 35.6984 40.7876 35.693 40.9273 35.7869C41.0298 35.8558 41.0679 35.9297 41.0936 36.045C40.9118 36.2963 40.474 35.9948 40.2391 36.1826C40.3469 36.3926 40.8577 36.3944 41.0675 36.5291C41.1564 36.5865 41.2173 36.665 41.2298 36.7721C41.2472 36.9182 41.1776 37.1088 41.0853 37.2214C40.9273 37.4145 40.7456 37.4449 40.5131 37.4663C40.4527 37.4667 40.3918 37.4614 40.3314 37.4554C40.186 37.4409 40.026 37.4106 39.9371 37.2807C39.8771 37.1937 39.8738 37.1475 39.8916 37.0479C40.1439 36.8985 40.4725 37.1752 40.7176 37.0052C40.777 36.9642 40.764 36.9662 40.7765 36.9043C40.6489 36.7721 40.3971 36.7257 40.228 36.6515C40.0685 36.5815 39.8882 36.4948 39.8303 36.3158C39.7926 36.1999 39.8303 36.0764 39.8902 35.975C39.9922 35.8017 40.2101 35.7564 40.3913 35.7122Z" fill="#548400"/>
<path d="M36.9035 30.3701C36.9696 30.366 37.0358 30.3634 37.1021 30.3625C37.6903 30.3559 38.1828 30.5685 38.5989 30.9774C38.5723 31.0773 38.4123 31.1573 38.3297 31.2065C38.2901 31.1614 38.249 31.1194 38.2031 31.08C37.7787 30.7133 37.2621 30.6821 36.73 30.7357C36.2139 30.8572 36.0346 31.1133 35.6397 31.4246C35.5397 31.5035 35.472 31.5079 35.3522 31.4929L35.3073 31.4219C35.3222 31.3043 35.3807 31.2267 35.4513 31.1353C35.8302 30.6448 36.3062 30.4526 36.9035 30.3701Z" fill="#71B107"/>
<path d="M33.8593 31.771C33.9792 31.7711 34.0971 31.7544 34.1981 31.8279C34.2909 32.281 34.2174 34.0749 34.2165 34.665C34.0932 34.6682 33.9903 34.664 33.8709 34.6314C33.7767 33.9023 33.8482 32.544 33.8593 31.771Z" fill="#71B107"/>
<path d="M42.7362 35.7532C42.8024 35.7437 42.8701 35.7407 42.9368 35.7354C43.0247 35.7953 43.0484 35.8283 43.0774 35.9318C43.1518 36.1953 43.1489 36.8072 43.0238 37.0502C43.2794 37.0451 43.6549 37.0014 43.8898 37.1056C43.9667 37.1398 43.9705 37.1623 44 37.2352C43.9565 37.3249 43.9116 37.3641 43.8323 37.4234C43.6148 37.5183 42.9044 37.4562 42.6342 37.4548C42.8406 36.9461 42.5709 36.2832 42.7362 35.7532Z" fill="#548400"/>
<path d="M15.5277 31.5439L15.5971 31.3962C15.8071 31.3126 16.1219 31.3261 16.3479 31.3285C16.6476 31.3318 16.9813 31.2894 17.2001 31.5141L17.1778 31.7641C16.9789 31.89 16.0036 31.8448 15.7746 31.7839C15.6454 31.7495 15.6016 31.6779 15.5392 31.5661C15.5352 31.5588 15.5316 31.5513 15.5277 31.5439Z" fill="#71B107"/>
<path d="M15.5277 31.5439L15.5971 31.3962C15.8071 31.3126 16.1219 31.3261 16.3479 31.3285C16.6476 31.3318 16.9813 31.2894 17.2001 31.5141C16.6561 31.5801 16.0778 31.5339 15.5277 31.5439Z" fill="#71B107"/>
<path d="M41.7508 35.7532C41.8059 35.7428 41.8697 35.7266 41.9258 35.7288C41.9823 35.7312 42.0229 35.7629 42.0538 35.8076C42.2269 36.0553 42.1631 36.9495 42.1114 37.2418C42.0911 37.356 42.0611 37.3597 41.9698 37.4245C41.9649 37.427 41.9606 37.4309 41.9553 37.4319C41.8615 37.4499 41.8513 37.4385 41.7784 37.3847C41.6319 37.0544 41.6851 36.1148 41.7508 35.7532Z" fill="#548400"/>
<path d="M33.8492 30.4361C33.8588 30.4358 33.868 30.4353 33.8777 30.4353C34.0178 30.4343 34.0836 30.4202 34.1855 30.5203C34.2832 30.8208 34.2024 31.1742 34.1686 31.4846C34.0937 31.4945 34.0207 31.4921 33.9453 31.4907C33.7718 31.3141 33.8477 30.6963 33.8492 30.4361Z" fill="#71B107"/>
<path d="M33.9019 29.0161C33.9057 29.014 33.9096 29.0119 33.9135 29.0099C33.9173 29.0078 33.9214 29.0059 33.9255 29.0041C33.9294 29.0023 33.9334 29.0006 33.9376 28.999C33.9418 28.9974 33.946 28.9959 33.9502 28.9944C33.9544 28.9931 33.9586 28.9918 33.9628 28.9906C33.9669 28.9894 33.9711 28.9883 33.9753 28.9873C33.9798 28.9863 33.9842 28.9855 33.9884 28.9847C33.9929 28.9839 33.9972 28.9832 34.0014 28.9827C34.0059 28.9821 34.0104 28.9817 34.0149 28.9813C34.0191 28.981 34.0235 28.9808 34.028 28.9806C34.0325 28.9805 34.0369 28.9805 34.041 28.9806C34.0456 28.9807 34.0501 28.9809 34.0546 28.9812C34.0588 28.9815 34.0631 28.9819 34.0676 28.9825C34.0721 28.983 34.0765 28.9836 34.0807 28.9843C34.0852 28.9851 34.0895 28.9859 34.0937 28.9869C34.0979 28.9879 34.1021 28.9889 34.1063 28.9901C34.1108 28.9913 34.1151 28.9926 34.1193 28.9939C34.1235 28.9953 34.1276 28.9968 34.1314 28.9984C34.1356 28.9999 34.1398 29.0016 34.144 29.0034C34.1479 29.0052 34.1519 29.0071 34.1561 29.009C34.1599 29.011 34.1638 29.0131 34.1677 29.0153C34.1715 29.0175 34.1752 29.0197 34.1788 29.0221C34.1826 29.0244 34.1864 29.0269 34.1899 29.0294C34.1934 29.032 34.197 29.0346 34.2005 29.0373C34.2041 29.0401 34.2075 29.0429 34.2107 29.0457C34.2142 29.0486 34.2174 29.0516 34.2203 29.0546C34.2236 29.0577 34.2268 29.0608 34.23 29.064C34.2329 29.0672 34.2358 29.0705 34.2387 29.0738C34.2416 29.0772 34.2443 29.0806 34.2469 29.084C34.2498 29.0875 34.2526 29.0911 34.2551 29.0947C34.2577 29.0983 34.2601 29.102 34.2624 29.1057C34.2646 29.1094 34.2669 29.1132 34.2692 29.1171C34.2714 29.1209 34.2735 29.1248 34.2754 29.1287C34.2774 29.1327 34.2793 29.1367 34.2812 29.1407C34.2828 29.1447 34.2845 29.1488 34.2861 29.153C34.2877 29.1571 34.2891 29.1612 34.2904 29.1654C34.2917 29.1696 34.293 29.1738 34.2943 29.1781C34.2956 29.1823 34.2967 29.1866 34.2977 29.1909C34.2986 29.1952 34.2994 29.1996 34.3001 29.2039C34.3007 29.2082 34.3014 29.2126 34.302 29.217C34.3023 29.2214 34.3027 29.2258 34.303 29.2302C34.3033 29.2346 34.3036 29.239 34.304 29.2434C34.304 29.2478 34.3038 29.2522 34.3035 29.2566C34.3035 29.261 34.3033 29.2654 34.303 29.2698C34.3027 29.2742 34.3022 29.2786 34.3015 29.283C34.3009 29.2873 34.3002 29.2917 34.2996 29.2961C34.299 29.3004 34.2982 29.3047 34.2972 29.309C34.2962 29.3133 34.2951 29.3176 34.2938 29.3219C34.2925 29.3261 34.2912 29.3303 34.2899 29.3345C34.2883 29.3387 34.2867 29.3428 34.2851 29.3469C34.2835 29.351 34.2819 29.3551 34.2803 29.3591C34.2783 29.3632 34.2764 29.3671 34.2745 29.371C34.2725 29.3749 34.2704 29.3788 34.2682 29.3827C34.2659 29.3865 34.2637 29.3903 34.2614 29.394C34.2588 29.3977 34.2563 29.4013 34.2537 29.4049C34.2511 29.4085 34.2485 29.412 34.246 29.4155C34.2431 29.419 34.2402 29.4224 34.2373 29.4257C34.2344 29.429 34.2315 29.4322 34.2286 29.4354C34.2253 29.4386 34.2221 29.4417 34.2189 29.4447C34.2157 29.4477 34.2124 29.4506 34.2092 29.4535C34.2057 29.4564 34.2023 29.4591 34.1991 29.4618C34.1955 29.4645 34.1918 29.4671 34.188 29.4696C34.1844 29.4721 34.1809 29.4745 34.1773 29.4769C34.1735 29.4792 34.1696 29.4814 34.1657 29.4836C34.1619 29.4857 34.158 29.4877 34.1541 29.4897C34.1503 29.4916 34.1462 29.4934 34.142 29.4952C34.1382 29.4969 34.1342 29.4986 34.13 29.5001C34.1261 29.5017 34.1221 29.5031 34.1179 29.5044C34.1137 29.5058 34.1095 29.507 34.1053 29.5081C34.1008 29.5093 34.0965 29.5103 34.0923 29.5112C34.0881 29.5122 34.0839 29.513 34.0797 29.5137C34.0752 29.5144 34.0708 29.515 34.0667 29.5155C34.0621 29.516 34.0578 29.5164 34.0536 29.5167C34.0491 29.517 34.0447 29.5172 34.0406 29.5173C34.0361 29.5174 34.0315 29.5173 34.027 29.5172C34.0228 29.5171 34.0185 29.5168 34.014 29.5165C34.0098 29.5161 34.0054 29.5157 34.0009 29.5151C33.9967 29.5146 33.9926 29.5139 33.9884 29.5131C33.9839 29.5123 33.9795 29.5115 33.9753 29.5105C33.9711 29.5095 33.9669 29.5084 33.9628 29.5073C33.9586 29.5061 33.9544 29.5048 33.9502 29.5034C33.946 29.502 33.9418 29.5005 33.9376 29.4989C33.9338 29.4973 33.9297 29.4956 33.9255 29.4938C33.9217 29.492 33.9178 29.4902 33.9139 29.4882C33.9101 29.4862 33.9062 29.4841 33.9023 29.4819C33.8985 29.4798 33.8948 29.4775 33.8912 29.4752C33.8874 29.4728 33.8837 29.4704 33.8801 29.4678C33.8766 29.4653 33.873 29.4627 33.8695 29.46C33.8663 29.4573 33.863 29.4545 33.8598 29.4516C33.8563 29.4488 33.8531 29.4458 33.8502 29.4428C33.8469 29.4398 33.8437 29.4367 33.8405 29.4335C33.8376 29.4303 33.8347 29.4271 33.8318 29.4237C33.8289 29.4204 33.8261 29.417 33.8236 29.4136C33.821 29.4102 33.8184 29.4066 33.8158 29.4031C33.8133 29.3995 33.8108 29.3958 33.8086 29.3921C33.8063 29.3884 33.8041 29.3847 33.8018 29.3809C33.7996 29.3771 33.7975 29.3732 33.7955 29.3693C33.7936 29.3654 33.7918 29.3614 33.7902 29.3574C33.7883 29.3534 33.7865 29.3494 33.7849 29.3453C33.7833 29.3412 33.7818 29.3371 33.7806 29.333C33.7793 29.3288 33.778 29.3246 33.7767 29.3204C33.7757 29.3162 33.7748 29.312 33.7738 29.3077C33.7728 29.3035 33.7719 29.2992 33.7709 29.2949C33.7702 29.2905 33.7696 29.2862 33.769 29.2819C33.7686 29.2775 33.7683 29.2732 33.768 29.2688C33.7677 29.2645 33.7674 29.2601 33.767 29.2557C33.767 29.2514 33.767 29.247 33.767 29.2426C33.7674 29.2382 33.7677 29.2339 33.768 29.2295C33.7683 29.2252 33.7686 29.2208 33.769 29.2165C33.7696 29.2121 33.7702 29.2078 33.7709 29.2035C33.7719 29.1992 33.7727 29.1949 33.7733 29.1906C33.7743 29.1864 33.7754 29.1821 33.7767 29.1779C33.778 29.1737 33.7793 29.1695 33.7806 29.1653C33.7818 29.1612 33.7833 29.1571 33.7849 29.153C33.7865 29.1489 33.7881 29.1449 33.7897 29.1408C33.7917 29.1368 33.7936 29.1329 33.7955 29.129C33.7975 29.1251 33.7994 29.1212 33.8013 29.1174C33.8036 29.1136 33.8059 29.1098 33.8081 29.1061C33.8107 29.1024 33.8131 29.0988 33.8154 29.0952C33.8179 29.0916 33.8205 29.0881 33.8231 29.0846C33.826 29.0812 33.8289 29.0778 33.8318 29.0745C33.8344 29.0711 33.8373 29.0679 33.8405 29.0647C33.8434 29.0615 33.8464 29.0584 33.8497 29.0554C33.8526 29.0524 33.8558 29.0494 33.8593 29.0465C33.8626 29.0437 33.8659 29.0409 33.8695 29.0382C33.8727 29.0355 33.8761 29.0329 33.8796 29.0303C33.8832 29.0278 33.8869 29.0253 33.8907 29.023C33.8943 29.0206 33.898 29.0183 33.9019 29.0161Z" fill="#71B107"/>
<defs>
<linearGradient id="paint0_linear_3_2" x1="10.9015" y1="18.3511" x2="15.426" y2="18.7575" gradientUnits="userSpaceOnUse">
<stop stop-color="#54B51A"/>
<stop offset="1" stop-color="#93D84D"/>
</linearGradient>
<linearGradient id="paint1_linear_3_2" x1="16.5595" y1="17.1683" x2="17.5117" y2="19.7612" gradientUnits="userSpaceOnUse">
<stop stop-color="#A4E631"/>
<stop offset="1" stop-color="#D7F69E"/>
</linearGradient>
<linearGradient id="paint2_linear_3_2" x1="15.1308" y1="19.6682" x2="17.5878" y2="18.3641" gradientUnits="userSpaceOnUse">
<stop stop-color="#29910D"/>
<stop offset="1" stop-color="#93D551"/>
</linearGradient>
<linearGradient id="paint3_linear_3_2" x1="4.9907" y1="22.2359" x2="16.6851" y2="16.9652" gradientUnits="userSpaceOnUse">
<stop stop-color="#1A580C"/>
<stop offset="1" stop-color="#5B8751"/>
</linearGradient>
<linearGradient id="paint4_linear_3_2" x1="11.0169" y1="20.9558" x2="10.7404" y2="15.7121" gradientUnits="userSpaceOnUse">
<stop stop-color="#59B71B"/>
<stop offset="1" stop-color="#A8E35F"/>
</linearGradient>
<linearGradient id="paint5_linear_3_2" x1="14.8876" y1="14.0222" x2="20.1017" y2="11.2846" gradientUnits="userSpaceOnUse">
<stop stop-color="#648D5F"/>
<stop offset="1" stop-color="#9FC372"/>
</linearGradient>
<linearGradient id="paint6_linear_3_2" x1="9.34663" y1="12.29" x2="14.8084" y2="12.4768" gradientUnits="userSpaceOnUse">
<stop stop-color="#98D561"/>
<stop offset="1" stop-color="#DCFDAA"/>
</linearGradient>
<linearGradient id="paint7_linear_3_2" x1="12.0636" y1="35.406" x2="12.0929" y2="32.3153" gradientUnits="userSpaceOnUse">
<stop stop-color="#67A101"/>
<stop offset="1" stop-color="#7BBF05"/>
</linearGradient>
<linearGradient id="paint8_linear_3_2" x1="41.3869" y1="34.6217" x2="41.4254" y2="31.8186" gradientUnits="userSpaceOnUse">
<stop stop-color="#68A201"/>
<stop offset="1" stop-color="#7BBF04"/>
</linearGradient>
<linearGradient id="paint9_linear_3_2" x1="6.49298" y1="35.4016" x2="6.51788" y2="32.3606" gradientUnits="userSpaceOnUse">
<stop stop-color="#67A200"/>
<stop offset="1" stop-color="#7BBF05"/>
</linearGradient>
<linearGradient id="paint10_linear_3_2" x1="36.7432" y1="34.6167" x2="36.7583" y2="31.8536" gradientUnits="userSpaceOnUse">
<stop stop-color="#67A201"/>
<stop offset="1" stop-color="#7BBF03"/>
</linearGradient>
</defs>
</svg>
