<?xml version="1.0" encoding="utf-8" ?>
<svg xmlns="http://www.w3.org/2000/svg" xmlns:xlink="http://www.w3.org/1999/xlink" width="1752" height="1239">
	<path fill="#F5F5F5" d="M0 0L1750.5 0C1752.31 2.84442 1751.97 6.15378 1751.99 9.39753L1752.01 917.277L1752.01 1155.5L1752 1212.58C1751.99 1219.84 1753.18 1229.49 1751.68 1236.43C1751.46 1237.42 1751.02 1238.15 1750.5 1239L0 1239L0 0Z"/>
	<path fill="#BBED6E" d="M804.873 358.399C901.114 313.203 1006.89 320.641 1104.92 355.973C1119.73 361.311 1134.99 367.036 1149.07 374.111L1153.36 375.809L1161.8 379.663C1134.35 380.886 1102 383.329 1082.23 404.866C1064.16 424.545 1056.88 456.807 1047.96 481.514C1045.25 489.019 1042.51 497.642 1038.18 504.387C1025.56 537.617 998.191 580.849 972.07 605.012C953.691 624.403 924.514 649.982 900.102 660.783C841.374 695.409 768.168 701.795 702.872 684.943Q690.948 681.946 679.412 677.691C673.964 687.397 668.662 697 664.361 707.275C661.135 714.98 658.637 723.077 655.298 730.695L655.245 733.126C647.855 748.345 645.189 794.162 636.535 802.845C635.137 804.249 634.315 803.846 632.522 803.747C631.657 803.186 630.904 802.699 630.349 801.805C623.265 790.398 635.086 745.923 638.436 733.268L639.694 730.702C645.316 707.201 657.729 683.9 667.523 661.778C658.184 634.284 651.027 606.191 649.532 577.079C646.503 518.109 668.195 470.47 707.156 427.235C718.928 408.893 759.201 380.988 778.376 371.786C786.948 366.919 795.705 362.047 804.873 358.399Z"/>
	<defs>
		<linearGradient id="gradient_0" gradientUnits="userSpaceOnUse" x1="694.42816" y1="588.41058" x2="788.04767" y2="596.81824">
			<stop offset="0" stop-color="#54B51A"/>
			<stop offset="1" stop-color="#93D84D"/>
		</linearGradient>
	</defs>
	<path fill="url(#gradient_0)" d="M850.847 461.114L853.064 461.864C851.148 464.76 829.759 480.883 825.26 484.747C814.769 493.756 804.768 502.922 795.15 512.871C795.329 520.367 793.934 549.809 791.437 555.7C794.946 554.241 797.555 551.004 801.029 549.166C804.045 547.57 806.529 545.12 809.63 543.623C820.723 538.27 831.69 539.89 843.229 537.947C845.74 537.524 847.569 538.057 849.611 539.597C849.871 539.794 850.121 540.002 850.376 540.204C848.156 539.952 845.076 538.98 843.23 540.232L843.652 541.095C844.798 543.475 845.504 545.086 845.112 547.807C843.545 551.061 840.667 552.505 837.611 554.168L836.878 554.203C837.178 554.407 837.472 554.62 837.776 554.817C838.75 555.445 839.375 555.556 840.495 555.692C845.738 556.327 850.691 559.663 853.834 563.777C858.097 569.358 859.617 575.983 858.588 582.894C856.543 596.625 846.386 609.858 835.407 617.845Q834.024 618.848 832.608 619.804C839.133 618.729 845.016 615.76 850.891 612.873L848.515 616.466C849.22 618.391 849.593 618.52 851.186 619.696C848.351 621.561 845.525 623.588 842.581 625.266C841.462 627.616 840.231 628.171 837.79 629.084C828.538 632.546 810.13 634.998 801.027 630.579C796.478 628.37 791.623 625.243 786.771 623.896L786.626 624.855C786.483 625.75 786.254 626.494 785.966 627.346C783.828 633.669 784.616 642.006 783.313 648.661C782.36 653.526 780.544 671.181 781.188 675.524C789.758 680.821 826.267 667.206 832.361 671.238C824.858 674.054 814.738 674.713 806.785 675.789C765.481 681.379 724.767 680.377 685.516 665.351Q690.659 653.731 696.387 642.388Q702.116 631.045 708.414 620.009Q714.713 608.973 721.566 598.272Q728.42 587.571 735.809 577.234C743.739 566.239 752.891 556.133 760.748 545.105C769.968 537.168 778.36 525.814 786.823 516.923Q801.688 501.713 817.72 487.738Q833.751 473.764 850.847 461.114Z"/>
	<defs>
		<linearGradient id="gradient_1" gradientUnits="userSpaceOnUse" x1="811.50232" y1="563.93524" x2="831.20532" y2="617.58838">
			<stop offset="0" stop-color="#A4E631"/>
			<stop offset="1" stop-color="#D7F69E"/>
		</linearGradient>
	</defs>
	<path fill="url(#gradient_1)" d="M836.878 554.203C837.178 554.407 837.472 554.62 837.776 554.817C838.75 555.445 839.375 555.556 840.495 555.692C845.738 556.327 850.691 559.663 853.834 563.777C858.097 569.358 859.617 575.983 858.588 582.894C856.543 596.625 846.386 609.858 835.407 617.845Q834.024 618.848 832.608 619.804C823.82 621.763 815.34 622.449 806.53 620.079C795.134 617.012 786.71 609.841 780.937 599.684C780.859 590.366 783.299 582.771 788.605 575.014C791.297 571.079 794.661 567.213 799.539 566.254C798.538 567.52 797.478 568.247 797.534 569.906C806.549 569.397 825.456 560.913 833.34 556.555C832.455 556.295 831.743 556.014 830.914 555.589C830.638 555.447 830.365 555.296 830.091 555.15L836.878 554.203Z"/>
	<path fill="#A3E624" d="M786.821 563.13C793.154 556.352 800.378 550.56 808.651 546.3C814.043 543.523 825.136 538.901 831.094 540.767C828.825 542.389 827.434 543.324 826.427 545.978C826.255 549.631 827.988 552.291 830.091 555.15C830.365 555.296 830.638 555.447 830.914 555.589C831.743 556.014 832.455 556.295 833.34 556.555C825.456 560.913 806.549 569.397 797.534 569.906C797.478 568.247 798.538 567.52 799.539 566.254C794.661 567.213 791.297 571.079 788.605 575.014C783.299 582.771 780.859 590.366 780.937 599.684C780.144 597.897 779.316 596.062 778.825 594.165C775.923 582.946 781.354 572.547 786.821 563.13Z"/>
	<path fill="#E2FCB3" d="M812.956 546.783C814.639 546.726 817.122 546.494 818.693 547.159C820.298 547.839 820.358 548.542 820.959 550.037C820.221 552.85 818.632 553.988 816.5 555.743C814.364 556.137 812.707 556.157 810.561 555.823C808.716 554.371 808.619 554.563 808.312 552.08C809.259 549.414 810.731 548.436 812.956 546.783Z"/>
	<defs>
		<linearGradient id="gradient_2" gradientUnits="userSpaceOnUse" x1="781.9408" y1="615.66296" x2="832.78009" y2="588.67914">
			<stop offset="0" stop-color="#29910D"/>
			<stop offset="1" stop-color="#93D551"/>
		</linearGradient>
	</defs>
	<path fill="url(#gradient_2)" d="M842.581 625.266C833.657 628.742 824.221 631.427 814.557 630.989C802.708 630.451 790.824 626.25 782.725 617.3Q782.096 616.618 781.503 615.905Q780.91 615.192 780.354 614.449Q779.798 613.707 779.28 612.937Q778.763 612.167 778.285 611.372Q777.808 610.576 777.372 609.758Q776.936 608.939 776.542 608.099Q776.148 607.259 775.797 606.4Q775.447 605.541 775.14 604.666Q774.834 603.79 774.573 602.9Q774.312 602.01 774.097 601.107Q773.881 600.205 773.712 599.293Q773.543 598.38 773.421 597.461Q773.299 596.541 773.223 595.617Q773.148 594.692 773.12 593.765Q773.092 592.837 773.112 591.91Q773.131 590.982 773.198 590.057C773.895 579.854 779.13 569.815 786.821 563.13C781.354 572.547 775.923 582.946 778.825 594.165C779.316 596.062 780.144 597.897 780.937 599.684C786.71 609.841 795.134 617.012 806.53 620.079C815.34 622.449 823.82 621.763 832.608 619.804C839.133 618.729 845.016 615.76 850.891 612.873L848.515 616.466C849.22 618.391 849.593 618.52 851.186 619.696C848.351 621.561 845.525 623.588 842.581 625.266Z"/>
	<path fill="#E2FCB3" d="M831.094 540.767C833.771 540.505 834.434 539.984 836.637 541.659C838.24 544.352 839.069 549.624 838.257 552.715C838.134 553.183 837.812 553.761 837.611 554.168L836.878 554.203L830.091 555.15C827.988 552.291 826.255 549.631 826.427 545.978C827.434 543.324 828.825 542.389 831.094 540.767Z"/>
	<defs>
		<linearGradient id="gradient_3" gradientUnits="userSpaceOnUse" x1="572.1225" y1="668.79407" x2="814.10114" y2="559.73236">
			<stop offset="0" stop-color="#1A580C"/>
			<stop offset="1" stop-color="#5B8751"/>
		</linearGradient>
	</defs>
	<path fill="url(#gradient_3)" d="M707.156 427.235C706.945 430.597 687.918 456.927 684.258 463.433C668.866 490.788 656.84 525.258 657.992 557.016C659.063 556.451 659.106 556.098 659.726 555.098C662.714 554.627 665.757 556.907 668.331 558.287C669.102 550.084 669.181 540.351 672.576 532.8C673.797 538.725 677.486 543.343 681.91 547.308C690.129 554.674 700.848 558.966 711.941 558.167C731.381 556.768 734.58 544.276 746.078 531.344C747.906 529.288 749.408 527.068 752.208 526.888Q765.174 512.859 778.973 499.65C781.281 505.234 785.058 511.355 786.823 516.923C778.36 525.814 769.968 537.168 760.748 545.105C752.891 556.133 743.739 566.239 735.809 577.234Q728.42 587.571 721.566 598.272Q714.713 608.973 708.414 620.009Q702.116 631.045 696.387 642.388Q690.659 653.731 685.516 665.351C724.767 680.377 765.481 681.379 806.785 675.789C814.738 674.713 824.858 674.054 832.361 671.238C853.935 668.226 874.597 659.401 894.428 650.78C894.253 651.03 894.088 651.287 893.903 651.53C888.979 658.021 868.959 660.091 862.692 665.623L862.869 666.537C863.343 669.107 863.729 672.156 863.906 674.744C863.929 675.084 863.897 675.425 863.892 675.766C876.373 671.946 888.141 665.855 899.56 659.608L900.102 660.783C841.374 695.409 768.168 701.795 702.872 684.943Q690.948 681.946 679.412 677.691C673.964 687.397 668.662 697 664.361 707.275C661.135 714.98 658.637 723.077 655.298 730.695L655.245 733.126C647.855 748.345 645.189 794.162 636.535 802.845C635.137 804.249 634.315 803.846 632.522 803.747C631.657 803.186 630.904 802.699 630.349 801.805C623.265 790.398 635.086 745.923 638.436 733.268L639.694 730.702C645.316 707.201 657.729 683.9 667.523 661.778C658.184 634.284 651.027 606.191 649.532 577.079C646.503 518.109 668.195 470.47 707.156 427.235Z"/>
	<defs>
		<linearGradient id="gradient_4" gradientUnits="userSpaceOnUse" x1="696.81641" y1="642.30591" x2="691.09564" y2="533.8031">
			<stop offset="0" stop-color="#59B71B"/>
			<stop offset="1" stop-color="#A8E35F"/>
		</linearGradient>
	</defs>
	<path fill="url(#gradient_4)" d="M672.576 532.8C673.797 538.725 677.486 543.343 681.91 547.308C690.129 554.674 700.848 558.966 711.941 558.167C731.381 556.768 734.58 544.276 746.078 531.344C747.906 529.288 749.408 527.068 752.208 526.888L750.533 529.491C743.58 536.084 737.51 544.265 731.699 551.856Q723.078 562.974 715.197 574.628Q707.316 586.282 700.208 598.423Q693.1 610.565 686.795 623.142Q680.491 635.72 675.016 648.68C663.832 620.538 655.893 587.49 657.992 557.016C659.063 556.451 659.106 556.098 659.726 555.098C662.714 554.627 665.757 556.907 668.331 558.287C669.102 550.084 669.181 540.351 672.576 532.8Z"/>
	<path fill="#7CA364" d="M752.208 526.888Q765.174 512.859 778.973 499.65C781.281 505.234 785.058 511.355 786.823 516.923C778.36 525.814 769.968 537.168 760.748 545.105C762.507 539.432 768.952 533.787 772.905 529.428C771.761 524.01 769.018 518.934 766.922 513.821C761.587 518.975 757.155 525.979 750.533 529.491L752.208 526.888Z"/>
	<path fill="#8FD44A" d="M804.873 358.399C901.114 313.203 1006.89 320.641 1104.92 355.973C1119.73 361.311 1134.99 367.036 1149.07 374.111C1139.41 373.467 1128.98 369.395 1119.36 367.625C1097.15 363.542 1074.26 363.119 1051.79 364.586L1047.66 364.11C1051.14 362.942 1085.24 361.874 1087.98 362.791C1089.95 363.452 1091.05 363.93 1093.08 363.196C1091.51 360.82 1087.27 357.088 1084.57 356.293C1071.98 352.584 1037.04 354.657 1022.22 354.589L892.094 353.809C876.612 353.68 861.127 353.109 845.633 352.943C839.436 352.877 833.076 352.313 826.896 352.769C820.054 353.275 812.164 356.108 806.114 359.215L805.403 359.586L804.873 358.399Z"/>
	<defs>
		<linearGradient id="gradient_5" gradientUnits="userSpaceOnUse" x1="776.90851" y1="498.83719" x2="884.7973" y2="442.18967">
			<stop offset="0" stop-color="#648D5F"/>
			<stop offset="1" stop-color="#9FC372"/>
		</linearGradient>
	</defs>
	<path fill="url(#gradient_5)" d="M778.973 499.65C808.533 469.119 846.603 442.326 883.303 420.987C888.844 417.765 894.828 415.249 900.479 412.215C909.722 407.252 920.863 400.191 931.031 397.589L931.226 398.343C924.804 402.69 916.73 403.592 910.537 408.08C900.252 415.536 887.126 418.222 877.52 426.796C878.521 430.607 879.566 434.15 881.218 437.735L882.54 437.782C896.869 427.224 914.016 420.334 929.212 411.158C932.165 409.375 943.339 404.135 945.968 404.716L946.061 405.893C941.942 411.11 905.532 426.356 897.075 430.685C880.901 438.964 865.321 450.202 850.847 461.114Q833.751 473.764 817.72 487.738Q801.688 501.713 786.823 516.923C785.058 511.355 781.281 505.234 778.973 499.65Z"/>
	<defs>
		<linearGradient id="gradient_6" gradientUnits="userSpaceOnUse" x1="662.25531" y1="462.99396" x2="775.26965" y2="466.85989">
			<stop offset="0" stop-color="#98D561"/>
			<stop offset="1" stop-color="#DCFDAA"/>
		</linearGradient>
	</defs>
	<path fill="url(#gradient_6)" d="M707.156 427.235C718.928 408.893 759.201 380.988 778.376 371.786L778.655 373.602C765.516 386.733 750.099 397.614 736.585 410.444C703.938 441.436 678.146 486.936 672.497 532.004C672.464 532.268 672.55 532.535 672.576 532.8C669.181 540.351 669.102 550.084 668.331 558.287C665.757 556.907 662.714 554.627 659.726 555.098C659.106 556.098 659.063 556.451 657.992 557.016C656.84 525.258 668.866 490.788 684.258 463.433C687.918 456.927 706.945 430.597 707.156 427.235Z"/>
	<path fill="#7CA364" d="M967.694 597.949C971.593 592.832 976.628 588.146 980.979 583.348C989.087 574.406 997.013 565.209 1004.19 555.497Q1014.96 540.621 1024.73 525.063C1028.9 518.406 1032.9 510.161 1038.18 504.387C1025.56 537.617 998.191 580.849 972.07 605.012C953.691 624.403 924.514 649.982 900.102 660.783L899.56 659.608C888.141 665.855 876.373 671.946 863.892 675.766C863.897 675.425 863.929 675.084 863.906 674.744C863.729 672.156 863.343 669.107 862.869 666.537L862.692 665.623C868.959 660.091 888.979 658.021 893.903 651.53C894.088 651.287 894.253 651.03 894.428 650.78C903.15 644.572 913.661 640.052 922.798 634.309C939.06 624.085 953.696 611.021 967.694 597.949Z"/>
	<path fill="#8FD44A" d="M967.694 597.949C971.593 592.832 976.628 588.146 980.979 583.348C989.087 574.406 997.013 565.209 1004.19 555.497Q1014.96 540.621 1024.73 525.063C1028.9 518.406 1032.9 510.161 1038.18 504.387C1025.56 537.617 998.191 580.849 972.07 605.012C974.347 598.805 995.742 575.083 1001.12 567.821C1004.54 563.21 1008.04 558.538 1010.99 553.609C1013.9 548.745 1015.81 544.007 1019.33 539.448L1019.35 539.446L1018.98 539.215C1014.3 540.36 982.418 590.828 968.273 597.691C968.083 597.783 967.887 597.863 967.694 597.949Z"/>
	<path fill="#A3E624" d="M837.611 554.168C840.667 552.505 843.545 551.061 845.112 547.807C845.504 545.086 844.798 543.475 843.652 541.095L843.23 540.232C845.076 538.98 848.156 539.952 850.376 540.204C859.791 544.424 866.612 549.315 870.398 559.302C874.298 569.589 872.954 581.535 868.441 591.397C865.481 597.866 861.193 603.397 856.13 608.351C854.493 609.733 852.21 611.229 850.891 612.873C845.016 615.76 839.133 618.729 832.608 619.804Q834.024 618.848 835.407 617.845C846.386 609.858 856.543 596.625 858.588 582.894C859.617 575.983 858.097 569.358 853.834 563.777C850.691 559.663 845.738 556.327 840.495 555.692C839.375 555.556 838.75 555.445 837.776 554.817C837.472 554.62 837.178 554.407 836.878 554.203L837.611 554.168Z"/>
	<path fill="#A3E624" d="M1051.79 364.586C1074.26 363.119 1097.15 363.542 1119.36 367.625C1128.98 369.395 1139.41 373.467 1149.07 374.111L1153.36 375.809C1145.9 377.805 1134.39 375.003 1126.52 374.196C1111.58 372.665 1088.86 370.338 1074.38 373.565C1082.7 375.164 1092.28 374.431 1100.79 374.564C1076.33 374.83 1053.34 377.959 1029.12 380.772C1037.44 376.9 1052.69 376.555 1061.94 375.123L1061.63 374.243C1059.35 374.14 1056.74 374.331 1054.62 373.465C1064.41 373.257 1074.09 371.505 1083.79 371.324C1095.46 371.106 1108.11 372.957 1119.62 371.316C1120.86 371.139 1120.41 371.424 1121.09 370.513C1118.66 367.175 1114.03 368.541 1110.42 368.058C1104.77 367.304 1099.06 365.841 1093.38 365.58C1080.32 364.978 1064.22 368.202 1051.79 364.586Z"/>
	<path fill="#8FD44A" d="M856.13 608.351C857.122 610.194 857.882 610.816 857.248 612.999C856.46 615.712 853.309 617.951 851.186 619.696C849.593 618.52 849.22 618.391 848.515 616.466L850.891 612.873C852.21 611.229 854.493 609.733 856.13 608.351Z"/>
	<path fill="#E2FCB3" d="M1090.26 384.862L1090.39 384.827C1085.71 388.643 1079.94 391.041 1075.27 395.149C1071.57 398.394 1068.44 402.642 1065.41 406.506C1047.52 429.354 1046.24 449.57 1036.04 474.957C1002.68 557.91 943.785 623.625 860.957 658.871L859.622 658.779C861.475 655.548 884.999 642.849 890.107 639.392C898.773 633.527 907.172 626.986 915.386 620.504Q923.534 614.102 931.281 607.22Q939.027 600.338 946.345 593.001Q953.662 585.664 960.523 577.898Q967.384 570.133 973.764 561.967Q981.063 552.434 987.707 542.434Q994.351 532.433 1000.31 522.01Q1006.27 511.587 1011.52 500.788Q1016.77 489.989 1021.28 478.863C1030.69 455.279 1034.88 427.359 1051.21 407.305C1059.98 396.538 1076.36 386.351 1090.26 384.862Z"/>
	<path fill="#A3E624" d="M898.888 536.86C904.772 531.487 911.966 526.945 919.825 525.188C923.099 524.457 927.13 523.747 930.076 525.596C926.922 526.42 922.697 527.199 920.911 530.231C920.34 531.2 920.798 531.651 921.11 532.627C923.28 534.065 925.405 534.797 928.054 534.343C929.88 534.03 931.764 533.073 932.862 531.534C934.046 529.875 933.836 528.95 933.456 527.055L934.108 525.948C938.721 526.645 943.402 530.252 946.235 533.891C949.135 537.615 950.21 542.883 949.437 547.48C948.145 555.161 942.419 561.56 936.129 565.749Q933.691 567.391 931.051 568.683C928.428 571.06 922.918 573.456 919.387 573.695C916.636 574.563 913.619 574.891 910.736 574.865C904.308 574.808 898.043 572.746 893.602 567.919Q893.279 567.567 892.974 567.198Q892.669 566.829 892.384 566.445Q892.099 566.061 891.834 565.663Q891.57 565.264 891.326 564.853Q891.083 564.441 890.861 564.017Q890.639 563.593 890.44 563.159Q890.241 562.724 890.065 562.279Q889.888 561.834 889.735 561.381Q889.583 560.928 889.453 560.468Q889.324 560.007 889.219 559.54Q889.115 559.074 889.034 558.602Q888.954 558.13 888.898 557.655Q888.843 557.18 888.812 556.703Q888.781 556.226 888.775 555.747Q888.769 555.269 888.788 554.791Q888.807 554.313 888.851 553.837C889.48 546.54 893.582 541.48 898.888 536.86Z"/>
	<path fill="#BBED6E" d="M898.888 536.86C896.244 541.507 893.84 545.661 893.712 551.157L897.999 545.186L898.788 545.868C905.487 551.583 925.063 561.059 927.854 568.196C926.981 570.104 926.492 570.81 924.355 571.375C923.266 571.663 922.006 571.667 920.882 571.718L913.444 571.668L919.387 573.695C916.636 574.563 913.619 574.891 910.736 574.865C904.308 574.808 898.043 572.746 893.602 567.919Q893.279 567.567 892.974 567.198Q892.669 566.829 892.384 566.445Q892.099 566.061 891.834 565.663Q891.57 565.264 891.326 564.853Q891.083 564.441 890.861 564.017Q890.639 563.593 890.44 563.159Q890.241 562.724 890.065 562.279Q889.888 561.834 889.735 561.381Q889.583 560.928 889.453 560.468Q889.324 560.007 889.219 559.54Q889.115 559.074 889.034 558.602Q888.954 558.13 888.898 557.655Q888.843 557.18 888.812 556.703Q888.781 556.226 888.775 555.747Q888.769 555.269 888.788 554.791Q888.807 554.313 888.851 553.837C889.48 546.54 893.582 541.48 898.888 536.86Z"/>
	<path fill="#71B107" d="M898.888 536.86C896.244 541.507 893.84 545.661 893.712 551.157L893.943 556.196C896.392 562.414 899.547 566.56 905.772 569.331C908.245 570.431 910.814 571.074 913.444 571.668L919.387 573.695C916.636 574.563 913.619 574.891 910.736 574.865C904.308 574.808 898.043 572.746 893.602 567.919Q893.279 567.567 892.974 567.198Q892.669 566.829 892.384 566.445Q892.099 566.061 891.834 565.663Q891.57 565.264 891.326 564.853Q891.083 564.441 890.861 564.017Q890.639 563.593 890.44 563.159Q890.241 562.724 890.065 562.279Q889.888 561.834 889.735 561.381Q889.583 560.928 889.453 560.468Q889.324 560.007 889.219 559.54Q889.115 559.074 889.034 558.602Q888.954 558.13 888.898 557.655Q888.843 557.18 888.812 556.703Q888.781 556.226 888.775 555.747Q888.769 555.269 888.788 554.791Q888.807 554.313 888.851 553.837C889.48 546.54 893.582 541.48 898.888 536.86Z"/>
	<path fill="#1B1B1B" d="M1136.53 807.199C1142.03 807.188 1147 808.258 1152.18 810.002L1149.47 833.492C1139.83 834.031 1132.23 834.643 1123.6 839.299C1127.56 845.193 1130.7 851.016 1131.74 858.14C1133.24 868.39 1129.95 879.569 1123.8 887.814C1111.45 904.364 1089.34 907.528 1070.01 906.138C1065.52 905.815 1061.09 904.095 1056.61 904.744C1054.72 905.779 1053.23 906.784 1052.06 908.646C1050.82 910.622 1050.25 912.983 1050.83 915.276C1054.39 929.467 1096.74 925.761 1108.85 926.991C1117.32 927.851 1126.07 929.84 1133.48 934.188C1140.64 938.391 1144.86 945.264 1146.76 953.26C1149.28 963.857 1146.65 975.471 1140.92 984.585C1131.06 1000.24 1113.15 1008.13 1095.78 1012.08C1076.89 1015.5 1053.35 1015.32 1035.66 1007.56C1027.3 1003.89 1020.42 998.295 1017.17 989.538C1014.11 981.285 1014.33 971.399 1018.08 963.41C1022.38 954.272 1029.15 949.919 1038.33 946.552C1036 944.647 1033.55 942.639 1031.69 940.264C1027.76 935.269 1025.76 928.577 1026.6 922.26C1027.93 912.206 1034.64 906.175 1042.26 900.322C1033.02 894.834 1025.38 888.728 1021.91 878.121C1018.81 868.634 1020.08 858.132 1024.59 849.312C1030.21 838.297 1040.15 830.847 1051.8 827.121Q1053.67 826.529 1055.57 826.027Q1057.46 825.525 1059.38 825.115Q1061.3 824.705 1063.24 824.388Q1065.17 824.071 1067.12 823.847Q1069.07 823.624 1071.03 823.494Q1072.99 823.365 1074.95 823.329Q1076.91 823.294 1078.87 823.353Q1080.83 823.412 1082.79 823.565Q1084.74 823.719 1086.69 823.966Q1088.63 824.213 1090.57 824.554Q1092.5 824.895 1094.41 825.328Q1096.33 825.761 1098.22 826.285Q1100.11 826.81 1101.97 827.425Q1103.83 828.04 1105.66 828.744Q1107.49 829.448 1109.29 830.239Q1111.08 831.03 1112.84 831.907C1114.03 826.072 1115.61 819.905 1119.39 815.162C1123.96 809.429 1129.66 808.017 1136.53 807.199Z"/>
	<path fill="#F5F5F5" d="M1054.7 951.387C1068.93 952.289 1084.17 951.032 1098.18 953.426C1103.99 954.42 1110.3 956.53 1113.72 961.688C1116.34 965.641 1116.51 970.864 1115.46 975.377C1113.79 982.535 1108.53 986.538 1102.66 990.211C1093.2 994.423 1083.31 995.913 1072.96 995.349C1063.97 994.859 1054.67 992.373 1048.59 985.301C1044.93 981.049 1043.06 975.684 1043.58 970.053C1044.31 962.084 1048.82 956.34 1054.7 951.387Z"/>
	<path fill="#BBED6E" d="M1060.95 882.88C1058.71 881.098 1056.78 879.002 1055.39 876.482C1052.36 870.987 1051.52 865.056 1053.33 858.989C1055.15 852.915 1059.47 848.023 1065.07 845.154Q1065.66 844.856 1066.27 844.588Q1066.88 844.319 1067.5 844.081Q1068.12 843.843 1068.76 843.636Q1069.39 843.429 1070.03 843.253Q1070.67 843.078 1071.32 842.934Q1071.97 842.79 1072.63 842.679Q1073.28 842.567 1073.94 842.488Q1074.6 842.409 1075.27 842.363Q1075.93 842.317 1076.59 842.303Q1077.26 842.29 1077.92 842.309Q1078.59 842.328 1079.25 842.38Q1079.91 842.432 1080.57 842.517Q1081.23 842.602 1081.89 842.719Q1082.54 842.836 1083.19 842.986Q1083.84 843.135 1084.48 843.316Q1085.12 843.498 1085.75 843.71C1092.83 846.155 1097.05 851.248 1100.15 857.81C1100.39 858.016 1100.64 858.225 1100.89 858.427C1104.16 861.074 1112.84 863.444 1114.26 867.393L1113.3 867.58C1098.43 870.538 1093.07 899.473 1063.87 882.605C1065.95 880.448 1068.94 878.067 1069.86 875.176C1066.82 876.613 1062.82 880.056 1060.95 882.88Z"/>
	<path fill="#F5F5F5" d="M1060.95 882.88C1058.71 881.098 1056.78 879.002 1055.39 876.482C1052.36 870.987 1051.52 865.056 1053.33 858.989C1055.15 852.915 1059.47 848.023 1065.07 845.154Q1065.66 844.856 1066.27 844.588Q1066.88 844.319 1067.5 844.081Q1068.12 843.843 1068.76 843.636Q1069.39 843.429 1070.03 843.253Q1070.67 843.078 1071.32 842.934Q1071.97 842.79 1072.63 842.679Q1073.28 842.567 1073.94 842.488Q1074.6 842.409 1075.27 842.363Q1075.93 842.317 1076.59 842.303Q1077.26 842.29 1077.92 842.309Q1078.59 842.328 1079.25 842.38Q1079.91 842.432 1080.57 842.517Q1081.23 842.602 1081.89 842.719Q1082.54 842.836 1083.19 842.986Q1083.84 843.135 1084.48 843.316Q1085.12 843.498 1085.75 843.71C1092.83 846.155 1097.05 851.248 1100.15 857.81C1090.69 855.871 1079.87 855.07 1071.46 860.832C1064.78 865.405 1062.68 871.976 1061.48 879.577C1061.31 880.678 1061.16 881.785 1060.95 882.88Z"/>
	<path fill="#1B1B1B" d="M939.078 822.707Q940.68 822.53 942.29 822.432Q943.899 822.335 945.511 822.317Q947.123 822.298 948.734 822.36Q950.345 822.421 951.951 822.561Q953.557 822.702 955.154 822.921Q956.751 823.141 958.335 823.439Q959.92 823.737 961.487 824.112Q963.055 824.488 964.602 824.94Q966.15 825.393 967.673 825.921Q969.196 826.449 970.691 827.052Q972.187 827.655 973.65 828.33Q975.114 829.006 976.543 829.753Q977.972 830.499 979.362 831.316Q980.752 832.132 982.1 833.016Q983.449 833.9 984.752 834.849Q986.055 835.799 987.31 836.811Q988.564 837.823 989.768 838.896Q990.971 839.969 992.12 841.1Q993.269 842.231 994.361 843.417Q995.453 844.604 996.486 845.842Q997.518 847.081 998.488 848.369Q999.458 849.657 1000.36 850.991Q1001.27 852.325 1002.11 853.702Q1002.95 855.079 1003.71 856.496Q1004.48 857.913 1005.18 859.366Q1005.88 860.819 1006.51 862.305Q1007.14 863.791 1007.69 865.305Q1008.24 866.82 1008.72 868.36Q1009.19 869.901 1009.6 871.462Q1010 873.024 1010.32 874.604Q1010.64 876.184 1010.89 877.777Q1011.13 879.371 1011.3 880.975Q1011.47 882.579 1011.55 884.189Q1011.64 885.799 1011.65 887.412Q1011.66 889.024 1011.58 890.635Q1011.51 892.246 1011.36 893.851Q1011.21 895.457 1010.98 897.053Q1010.75 898.649 1010.44 900.231Q1010.13 901.814 1009.75 903.38Q1009.36 904.945 1008.9 906.49Q1008.44 908.035 1007.9 909.555Q1007.36 911.075 1006.75 912.567Q1006.14 914.058 1005.45 915.518Q1004.77 916.978 1004.01 918.402Q1003.26 919.826 1002.43 921.211Q1001.6 922.596 1000.71 923.939Q999.82 925.282 998.862 926.579Q997.905 927.877 996.885 929.125Q995.864 930.373 994.784 931.57Q993.703 932.767 992.565 933.909Q991.427 935.051 990.234 936.135Q989.041 937.219 987.796 938.244Q986.55 939.268 985.256 940.23Q983.963 941.192 982.623 942.089Q981.283 942.985 979.901 943.815Q978.518 944.645 977.097 945.405Q975.675 946.166 974.218 946.855Q972.76 947.545 971.271 948.162Q969.782 948.779 968.264 949.322Q966.745 949.864 965.202 950.332Q963.66 950.799 962.095 951.19Q960.531 951.58 958.95 951.893Q957.368 952.207 955.773 952.441Q954.179 952.676 952.574 952.832Q950.983 952.987 949.386 953.063Q947.789 953.14 946.19 953.138Q944.591 953.137 942.995 953.057Q941.398 952.977 939.807 952.82Q938.216 952.662 936.635 952.427Q935.054 952.192 933.486 951.88Q931.918 951.567 930.367 951.179Q928.816 950.79 927.286 950.327Q925.756 949.863 924.25 949.325Q922.745 948.787 921.267 948.176Q919.79 947.565 918.344 946.883Q916.898 946.2 915.488 945.448Q914.077 944.696 912.704 943.875Q911.332 943.055 910.001 942.169Q908.671 941.282 907.385 940.332Q906.099 939.381 904.862 938.369Q903.624 937.357 902.437 936.286Q901.25 935.215 900.117 934.086Q898.984 932.958 897.907 931.776Q896.831 930.594 895.813 929.361Q894.796 928.128 893.839 926.846Q892.883 925.564 891.991 924.237Q891.099 922.911 890.272 921.542Q889.445 920.173 888.687 918.766Q887.928 917.358 887.239 915.915Q886.55 914.472 885.933 912.997Q885.315 911.522 884.77 910.019Q884.225 908.515 883.755 906.987Q883.284 905.459 882.888 903.91Q882.493 902.36 882.173 900.794Q881.854 899.227 881.611 897.646Q881.369 896.066 881.204 894.475Q881.039 892.884 880.952 891.288Q880.865 889.691 880.856 888.092Q880.847 886.493 880.916 884.895Q880.985 883.298 881.132 881.705Q881.279 880.113 881.504 878.53Q881.729 876.947 882.031 875.376Q882.332 873.806 882.711 872.252Q883.089 870.698 883.542 869.165Q883.996 867.632 884.524 866.122Q885.052 864.613 885.653 863.131Q886.254 861.649 886.927 860.199Q887.6 858.748 888.343 857.332Q889.085 855.916 889.897 854.538Q890.708 853.16 891.585 851.823Q892.462 850.487 893.404 849.195Q894.346 847.902 895.35 846.658Q896.353 845.413 897.417 844.219Q898.48 843.025 899.6 841.884Q900.721 840.743 901.895 839.659Q903.07 838.574 904.297 837.548Q905.523 836.522 906.798 835.557Q908.073 834.593 909.393 833.691Q910.714 832.79 912.077 831.955Q913.44 831.119 914.842 830.351Q916.245 829.583 917.683 828.884Q919.121 828.186 920.591 827.558Q922.062 826.931 923.561 826.376Q925.061 825.821 926.585 825.34Q928.11 824.859 929.656 824.453Q931.203 824.048 932.767 823.718Q934.332 823.388 935.91 823.135Q937.489 822.882 939.078 822.707Z"/>
	<path fill="#F5F5F5" d="M942.609 845.568C948.689 845.207 954.317 846.257 959.525 849.496C968.426 855.031 973.437 865.239 975.622 875.186C978.563 888.574 977.419 904.626 969.836 916.372C964.896 924.024 958.699 927.97 949.916 929.878C943.81 930.071 938.561 929.402 933.269 926.17C924.574 920.861 919.462 911.227 917.132 901.56C913.868 888.018 914.824 871.872 922.267 859.797C927.237 851.734 933.528 847.667 942.609 845.568Z"/>
	<path fill="#1B1B1B" d="M862.871 767.958C863.433 767.858 864.59 768.098 865.175 768.164C867.51 774.44 864.637 811.107 864.481 820.724Q863.551 884.518 866.126 948.266L833.169 948.243L832.606 948.031C831.783 946.906 831.689 946.8 831.67 945.392C831.478 931.511 832.8 917.291 833.052 903.358C833.86 858.802 834.22 814.036 829.488 769.673L862.871 767.958Z"/>
	<path fill="#1B1B1B" d="M595.092 208.728L607.923 234.47L596.442 234.48L596.418 730.605L639.694 730.702L638.436 733.268L596.423 733.285C596.405 748.081 598.305 797.448 595.206 807.895L594.449 807.603C592.93 798.379 593.638 788.38 593.647 779.036L593.72 733.298C584.6 733.283 523.094 734.512 520.479 731.995C525.091 728.819 583.697 730.618 593.709 730.626L593.702 234.485L582.328 234.464L595.092 208.728Z"/>
	<path fill="#1B1B1B" d="M1218.66 719.117C1223.76 721.607 1239.92 728.15 1242.72 731.934C1236.93 737.344 1225.89 741.175 1218.61 744.705L1218.65 733.303L842.876 733.312L719.264 733.314C698.038 733.314 676.412 734.204 655.245 733.126L655.298 730.695L1218.64 730.615L1218.66 719.117Z"/>
	<defs>
		<linearGradient id="gradient_7" gradientUnits="userSpaceOnUse" x1="718.47467" y1="941.30908" x2="719.07928" y2="877.35651">
			<stop offset="0" stop-color="#67A101"/>
			<stop offset="1" stop-color="#7BBF05"/>
		</linearGradient>
	</defs>
	<path fill="url(#gradient_7)" d="M772.005 875.94L777.373 875.971C778.656 876.779 779.076 876.899 779.67 878.297C782.389 884.694 777.892 900.556 775.457 907.041C770.15 921.176 759.081 932.14 745.383 938.287C729.863 945.25 711.365 945.451 695.572 939.219C682.14 933.919 670.719 923.89 664.952 910.531C662.02 903.741 657.242 884.326 659.98 877.263C662.657 875.556 664.54 875.991 667.635 875.969C668.078 893.128 669.568 909.562 682.792 922.077C693.246 931.97 707.413 936.557 721.675 936.086C735.662 935.623 749.415 930.318 759.047 919.95C770.132 908.017 771.567 891.444 772.005 875.94Z"/>
	<defs>
		<linearGradient id="gradient_8" gradientUnits="userSpaceOnUse" x1="1325.2297" y1="925.0791" x2="1326.0272" y2="867.07812">
			<stop offset="0" stop-color="#68A201"/>
			<stop offset="1" stop-color="#7BBF04"/>
		</linearGradient>
	</defs>
	<path fill="url(#gradient_8)" d="M1284.02 866.352C1286.53 866.224 1290.07 865.545 1292.24 866.935C1291.48 870.357 1290.82 873.772 1290.46 877.265C1289.32 888.311 1291.56 900.044 1298.79 908.744C1304.86 916.049 1312.75 919.226 1322.1 920.074C1332.81 921.046 1344.99 917.314 1353.24 910.363C1356.27 907.81 1361.21 902.711 1361.58 898.717C1362.05 897.743 1362.32 896.821 1362.48 895.755C1363.67 887.554 1363.13 872.893 1358.2 866.141C1361.86 866.059 1365.51 866.278 1369.17 866.456C1369.46 867.266 1369.52 867.379 1369.72 868.354C1370.58 872.693 1371.04 879.613 1368.67 883.468C1371.49 887.975 1370.81 918.746 1369.74 924.961C1368.37 926.263 1367.52 926.023 1365.67 926.188C1360.26 922.838 1363.93 915.86 1361.35 910.63C1361.26 910.446 1361.15 910.27 1361.05 910.091C1359.96 913.9 1356.26 916.928 1353.18 919.243C1343.88 926.205 1330.39 928.649 1319.06 927.02C1307.71 925.392 1297.34 919.733 1290.55 910.391C1280.72 896.864 1281.55 882.005 1284.02 866.352Z"/>
	<path fill="#71B107" d="M667.639 868.817C664.983 868.9 663.401 869.277 661.002 867.908C658.818 862.745 662.408 851.641 664.443 846.541C669.817 833.073 680.896 822.742 694.16 817.147C710.005 810.464 729.326 810.421 745.185 817.067C758.422 822.613 769.488 832.759 774.798 846.195C777.116 852.063 780.722 861.682 778.686 868.02C776.341 868.585 774.052 869.146 771.65 869.417C772.558 859.378 767.513 845.764 761.275 837.962C752.745 827.294 739.723 821.108 726.274 819.75C711.477 818.257 696.275 821.849 684.721 831.481C673.255 841.039 668.847 854.302 667.639 868.817Z"/>
	<defs>
		<linearGradient id="gradient_9" gradientUnits="userSpaceOnUse" x1="603.20758" y1="941.21613" x2="603.72272" y2="878.29364">
			<stop offset="0" stop-color="#67A200"/>
			<stop offset="1" stop-color="#7BBF05"/>
		</linearGradient>
	</defs>
	<path fill="url(#gradient_9)" d="M550.761 875.979C552.229 875.926 553.749 875.822 555.215 875.925C555.759 875.964 557.583 876.227 557.994 876.49C559.245 877.289 559.884 885.886 560.109 887.498C561.884 900.256 565.223 909.912 574.209 919.566C584.1 930.19 597.651 935.514 612.023 936.037C628.821 936.649 641.731 930.143 653.785 918.994C655.339 921.284 656.712 923.751 658.158 926.114C646.332 936.961 632.065 943.327 615.946 943.743C598.855 944.184 582.122 938.495 569.776 926.488C555.586 912.689 551.045 895.179 550.761 875.979Z"/>
	<path fill="#71B107" d="M504.396 875.745C512.442 875.618 534.27 873.922 540.862 876.165C542.684 876.785 542.821 877 543.672 878.695L542.214 880.281C534.962 883.143 505.597 881.322 495.968 881.285C495.95 889.834 493.855 927.56 498.819 932.646C502.221 936.133 519.925 934.42 524.83 934.336C532.623 934.373 542.486 933.077 549.987 934.536C551.635 936.538 551.117 937.559 551.017 940.09C549.664 941.361 548.664 941.297 546.852 941.476C537.405 942.408 511.368 942.63 502.69 940.963C498.687 940.194 494.396 938.763 491.333 935.976C485.905 931.036 488.155 885.392 488.166 876.026L504.396 875.745Z"/>
	<path fill="#71B107" d="M609.66 812.359C610.278 812.305 610.899 812.296 611.519 812.278C631.012 811.72 645.7 818.068 659.814 831.333C657.935 833.022 655.82 834.435 653.768 835.905C645.232 827.85 635.9 822.049 624.144 820.127C608.216 817.524 593.2 821.21 580.124 830.49C574.924 834.76 570.324 839.864 567.025 845.744C563.597 851.854 561.091 866.37 555.347 869.754L553.825 869.285C552.936 867.789 552.499 866.658 552.331 864.904C551.351 854.703 559.814 840.954 566.144 833.417C577.555 819.831 592.337 813.986 609.66 812.359Z"/>
	<path fill="#548400" d="M1169.35 947.958C1175.64 947.844 1184.08 946.698 1189.94 949.07C1199.56 952.966 1194.65 958.099 1195.71 963.672C1196.1 965.71 1198.3 968.434 1199.07 970.536C1200.21 973.671 1198.07 977.099 1196.71 979.846C1188.94 985.306 1178.36 983.774 1169.33 983.647L1169.35 947.958Z"/>
	<path fill="#F5F5F5" d="M1176.91 969.17C1180.93 969.039 1185.13 968.549 1189 969.88C1190.86 971.762 1190.73 971.889 1191 974.379C1187.83 975.048 1181.94 976.717 1179.12 974.796C1177.32 973.568 1177.34 971.203 1176.91 969.17Z"/>
	<path fill="#F5F5F5" d="M1179.76 956.126C1181.47 956.119 1183.24 956.045 1184.93 956.359C1186.79 956.705 1186.85 956.719 1187.89 958.311L1187.05 961.02C1184.06 961.171 1180.36 961.453 1177.7 959.873L1177.97 956.685L1179.76 956.126Z"/>
	<path fill="#548400" d="M1209.96 947.917C1217.28 947.842 1229.19 946.097 1235.48 950.141C1238.22 951.902 1240.05 955.219 1240.57 958.397C1241.45 963.809 1237.44 965.437 1235.07 969.391C1232.8 973.163 1237.93 975.114 1238.8 978.441C1239.24 980.165 1238.62 980.867 1237.87 982.361C1235.72 983.509 1235.25 983.45 1232.9 983.358L1218.26 968.128C1218.41 972.932 1219.49 979.345 1216.32 983.277C1214.2 983.964 1214.32 984.036 1212.32 983.1C1207.46 975.863 1209.87 956.548 1209.96 947.917Z"/>
	<path fill="#F5F5F5" d="M1218.21 956.247C1222.08 956.162 1227.19 955.403 1230.51 957.528C1231.91 959.927 1231.69 960.761 1231.64 963.473C1228.08 964.241 1222.86 965.459 1219.57 963.6C1217.9 960.94 1218.24 959.26 1218.21 956.247Z"/>
	<defs>
		<linearGradient id="gradient_10" gradientUnits="userSpaceOnUse" x1="1229.1428" y1="924.97546" x2="1229.4548" y2="867.80188">
			<stop offset="0" stop-color="#67A201"/>
			<stop offset="1" stop-color="#7BBF03"/>
		</linearGradient>
	</defs>
	<path fill="url(#gradient_10)" d="M1195.29 866.071C1197.7 865.984 1199.62 865.916 1201.93 866.703C1202.61 868.131 1200.28 883.97 1200.96 888.729C1202.35 898.615 1207.19 907.728 1215.29 913.711C1223.13 919.499 1233.45 921.76 1243.04 920.24C1250.03 919.132 1257.68 915.067 1261.91 909.319C1264.16 910.645 1266.16 912.055 1267.02 914.498L1265.16 915.956C1263.95 918.808 1259.65 921.341 1257.03 922.883C1247.77 928.321 1234.28 928.643 1224.14 925.827Q1223.11 925.546 1222.09 925.214Q1221.07 924.881 1220.08 924.498Q1219.08 924.114 1218.1 923.681Q1217.12 923.247 1216.17 922.765Q1215.21 922.283 1214.28 921.753Q1213.35 921.223 1212.45 920.646Q1211.55 920.07 1210.68 919.449Q1209.81 918.828 1208.97 918.163Q1208.13 917.499 1207.33 916.793Q1206.52 916.087 1205.76 915.341Q1204.99 914.596 1204.26 913.812Q1203.53 913.029 1202.84 912.209Q1202.16 911.39 1201.51 910.537Q1200.87 909.684 1200.26 908.799Q1199.66 907.915 1199.11 907.001Q1198.55 906.087 1198.04 905.146C1191.6 893.24 1191.37 878.811 1195.29 866.071Z"/>
	<path fill="#71B107" d="M498.832 814.732C510.306 813.734 539.314 813.253 550.217 814.833C551.316 816.508 550.918 818.532 550.831 820.448C544.633 825.643 507.697 816.352 497.034 824.504C496.834 824.657 496.639 824.817 496.442 824.973C495.475 832.982 498.062 863.764 494.154 868.807C492.168 868.813 490.392 869.347 488.915 867.953C487.29 858.776 486.792 832.08 489.702 822.836C491.097 818.404 494.955 816.694 498.832 814.732Z"/>
	<path fill="#71B107" d="M1319.14 837.264C1330.65 836.572 1342.32 837.904 1352.02 844.778C1355.81 847.467 1360.58 852.032 1361.35 856.771C1363.13 852.925 1362.54 849.403 1362.48 845.299C1362.44 842.556 1362.84 840.724 1364.79 838.722C1367.04 838.283 1366.96 838.243 1368.93 839.407C1369.57 840.607 1370.09 841.85 1370.31 843.198C1371.02 847.43 1370.32 857.171 1367.91 860.741Q1362.35 860.528 1356.79 860.371C1354.18 856.56 1351.35 853.105 1347.17 850.954C1346.97 850.612 1346.81 850.238 1346.56 849.929C1344.19 847.013 1337.4 845.068 1333.82 844.509C1324.2 843.006 1310.19 845.071 1302.62 851.712C1300.01 854.001 1298.17 857.527 1295.32 859.451C1293.11 860.947 1290.71 860.514 1288.26 859.961C1287.9 857.946 1289.21 855.702 1290.35 854.016C1297.28 843.743 1307.44 839.497 1319.14 837.264Z"/>
	<path fill="#548400" d="M1263.49 947.623C1265.69 947.327 1267.79 947.082 1269.75 948.362C1275.28 951.98 1279.19 966.307 1280.74 972.738C1281.43 975.634 1282.31 980.099 1280.44 982.661C1279.62 983.798 1279.24 983.566 1277.95 983.819C1275.03 982.56 1274.68 979.333 1272.76 977.05C1271.23 975.24 1269.85 975.686 1267.64 975.569C1265.33 975.524 1263.03 975.627 1260.71 975.722C1259.56 978.323 1258.12 981.438 1255.3 982.558C1253.21 983.386 1252.46 983.248 1250.55 982.246C1250.3 981.461 1250.1 980.942 1250.18 980.105C1250.73 974.05 1258.99 951.534 1263.49 947.623Z"/>
	<path fill="#548400" d="M1304.63 947.644C1307.96 947.359 1312.83 947.246 1315.72 949.19C1317.84 950.615 1318.63 952.145 1319.16 954.531C1315.4 959.731 1306.34 953.491 1301.48 957.378C1303.71 961.722 1314.28 961.761 1318.62 964.548C1320.46 965.735 1321.72 967.359 1321.98 969.576C1322.34 972.598 1320.9 976.542 1318.99 978.872C1315.72 982.867 1311.96 983.497 1307.15 983.94C1305.9 983.949 1304.64 983.839 1303.39 983.714C1300.38 983.415 1297.07 982.788 1295.23 980.099C1293.99 978.299 1293.92 977.344 1294.29 975.283C1299.51 972.19 1306.31 977.917 1311.38 974.399C1312.61 973.55 1312.34 973.592 1312.6 972.31C1309.96 969.575 1304.75 968.615 1301.25 967.08C1297.95 965.632 1294.22 963.837 1293.02 960.133C1292.24 957.735 1293.02 955.18 1294.26 953.081C1296.37 949.496 1300.88 948.558 1304.63 947.644Z"/>
	<path fill="#71B107" d="M1232.46 837.105Q1234.51 836.978 1236.57 836.949C1248.74 836.813 1258.93 841.211 1267.54 849.672C1266.99 851.739 1263.68 853.395 1261.97 854.412C1261.15 853.48 1260.3 852.61 1259.35 851.795C1250.57 844.207 1239.88 843.562 1228.87 844.671C1218.19 847.184 1214.48 852.485 1206.31 858.926C1204.24 860.559 1202.84 860.649 1200.36 860.338L1199.43 858.87C1199.74 856.436 1200.95 854.83 1202.41 852.94C1210.25 842.791 1220.1 838.813 1232.46 837.105Z"/>
	<path fill="#71B107" d="M1169.47 866.094C1171.95 866.096 1174.39 865.749 1176.48 867.271C1178.4 876.646 1176.88 913.766 1176.86 925.976C1174.31 926.042 1172.18 925.955 1169.71 925.281C1167.76 910.194 1169.24 882.088 1169.47 866.094Z"/>
	<path fill="#548400" d="M1353.15 948.493C1354.52 948.297 1355.92 948.234 1357.3 948.124C1359.12 949.364 1359.61 950.047 1360.21 952.189C1361.75 957.64 1361.69 970.301 1359.1 975.33C1364.39 975.224 1372.16 974.321 1377.02 976.477C1378.61 977.184 1378.69 977.65 1379.3 979.158C1378.4 981.015 1377.47 981.825 1375.83 983.052C1371.33 985.017 1356.63 983.732 1351.04 983.703C1355.31 973.176 1349.73 959.459 1353.15 948.493Z"/>
	<path fill="#71B107" d="M790.154 861.394L791.59 858.338C795.934 856.609 802.449 856.887 807.124 856.938C813.327 857.005 820.231 856.128 824.759 860.778L824.297 865.951C820.181 868.556 800 867.621 795.263 866.36C792.588 865.648 791.683 864.167 790.392 861.854C790.308 861.703 790.233 861.547 790.154 861.394Z"/>
	<path fill="#71B107" d="M790.154 861.394L791.59 858.338C795.934 856.609 802.449 856.887 807.124 856.938C813.327 857.005 820.231 856.128 824.759 860.778C813.501 862.143 801.536 861.187 790.154 861.394Z"/>
	<path fill="#548400" d="M1332.76 948.493C1333.9 948.278 1335.22 947.941 1336.38 947.988C1337.55 948.037 1338.39 948.694 1339.03 949.618C1342.61 954.744 1341.29 973.247 1340.22 979.295C1339.8 981.657 1339.18 981.734 1337.29 983.075C1337.19 983.126 1337.1 983.207 1336.99 983.228C1335.05 983.6 1334.84 983.364 1333.33 982.251C1330.3 975.417 1331.4 955.974 1332.76 948.493Z"/>
	<path fill="#71B107" d="M1169.26 838.471C1169.46 838.465 1169.65 838.456 1169.85 838.455C1172.75 838.434 1174.11 838.142 1176.22 840.215C1178.24 846.432 1176.57 853.744 1175.87 860.167C1174.32 860.373 1172.81 860.322 1171.25 860.293C1167.66 856.639 1169.23 843.855 1169.26 838.471Z"/>
	<path fill="#71B107" d="M1170.35 809.09Q1170.47 809.022 1170.59 808.96Q1170.71 808.897 1170.84 808.841Q1170.96 808.785 1171.09 808.735Q1171.22 808.685 1171.35 808.641Q1171.48 808.598 1171.61 808.561Q1171.74 808.524 1171.87 808.493Q1172.01 808.463 1172.14 808.439Q1172.28 808.415 1172.41 808.397Q1172.55 808.38 1172.69 808.369Q1172.82 808.359 1172.96 808.355Q1173.1 808.351 1173.23 808.354Q1173.37 808.357 1173.51 808.367Q1173.64 808.376 1173.78 808.393Q1173.92 808.409 1174.05 808.432Q1174.19 808.455 1174.32 808.485Q1174.45 808.515 1174.58 808.551Q1174.72 808.588 1174.85 808.63Q1174.98 808.673 1175.1 808.722Q1175.23 808.771 1175.36 808.827Q1175.48 808.882 1175.61 808.943Q1175.73 809.005 1175.85 809.072Q1175.97 809.14 1176.08 809.213Q1176.2 809.286 1176.31 809.365Q1176.42 809.444 1176.53 809.528Q1176.64 809.613 1176.74 809.702Q1176.85 809.792 1176.94 809.886Q1177.04 809.981 1177.14 810.08Q1177.23 810.179 1177.32 810.283Q1177.41 810.387 1177.49 810.495Q1177.58 810.603 1177.66 810.715Q1177.74 810.827 1177.81 810.943Q1177.88 811.059 1177.95 811.178Q1178.02 811.297 1178.08 811.42Q1178.14 811.542 1178.2 811.667Q1178.25 811.793 1178.3 811.921Q1178.35 812.048 1178.39 812.178Q1178.43 812.309 1178.47 812.441Q1178.51 812.573 1178.54 812.706Q1178.57 812.84 1178.59 812.975Q1178.61 813.11 1178.63 813.246Q1178.64 813.382 1178.65 813.519Q1178.66 813.655 1178.67 813.792Q1178.67 813.929 1178.66 814.066Q1178.66 814.203 1178.65 814.339Q1178.64 814.476 1178.62 814.611Q1178.6 814.747 1178.58 814.882Q1178.56 815.017 1178.53 815.15Q1178.5 815.284 1178.46 815.416Q1178.42 815.547 1178.38 815.677Q1178.33 815.807 1178.28 815.934Q1178.23 816.062 1178.18 816.187Q1178.12 816.312 1178.06 816.433Q1178 816.555 1177.93 816.674Q1177.86 816.793 1177.79 816.908Q1177.71 817.023 1177.63 817.135Q1177.55 817.246 1177.47 817.353Q1177.38 817.461 1177.29 817.564Q1177.2 817.667 1177.11 817.765Q1177.01 817.864 1176.91 817.958Q1176.81 818.051 1176.71 818.14Q1176.6 818.228 1176.5 818.312Q1176.39 818.395 1176.27 818.473Q1176.16 818.551 1176.05 818.623Q1175.93 818.696 1175.81 818.762Q1175.69 818.828 1175.57 818.888Q1175.45 818.948 1175.32 819.002Q1175.2 819.056 1175.07 819.104Q1174.95 819.152 1174.82 819.193Q1174.69 819.235 1174.56 819.27Q1174.42 819.305 1174.29 819.334Q1174.16 819.363 1174.03 819.385Q1173.89 819.407 1173.76 819.423Q1173.62 819.439 1173.49 819.448Q1173.35 819.457 1173.22 819.459Q1173.08 819.462 1172.94 819.458Q1172.81 819.454 1172.67 819.443Q1172.54 819.432 1172.4 819.415Q1172.27 819.397 1172.14 819.373Q1172 819.349 1171.87 819.319Q1171.74 819.289 1171.61 819.252Q1171.48 819.215 1171.35 819.172Q1171.22 819.128 1171.09 819.079Q1170.97 819.03 1170.84 818.974Q1170.72 818.919 1170.6 818.857Q1170.48 818.795 1170.36 818.728Q1170.24 818.661 1170.13 818.588Q1170.01 818.515 1169.9 818.436Q1169.79 818.358 1169.68 818.274Q1169.58 818.19 1169.48 818.101Q1169.37 818.012 1169.28 817.918Q1169.18 817.824 1169.08 817.726Q1168.99 817.627 1168.9 817.524Q1168.81 817.421 1168.73 817.314Q1168.65 817.207 1168.57 817.096Q1168.49 816.985 1168.42 816.87Q1168.35 816.755 1168.28 816.637Q1168.21 816.519 1168.15 816.398Q1168.09 816.276 1168.04 816.152Q1167.98 816.028 1167.93 815.901Q1167.88 815.775 1167.84 815.646Q1167.8 815.517 1167.76 815.386Q1167.73 815.255 1167.7 815.123Q1167.67 814.991 1167.64 814.857Q1167.62 814.723 1167.6 814.588Q1167.59 814.454 1167.58 814.318Q1167.57 814.183 1167.56 814.047Q1167.56 813.912 1167.56 813.776Q1167.57 813.64 1167.58 813.505Q1167.59 813.37 1167.6 813.235Q1167.62 813.1 1167.64 812.966Q1167.67 812.833 1167.69 812.7Q1167.72 812.568 1167.76 812.437Q1167.8 812.306 1167.84 812.177Q1167.88 812.048 1167.93 811.921Q1167.98 811.795 1168.03 811.67Q1168.09 811.546 1168.15 811.425Q1168.21 811.303 1168.27 811.185Q1168.34 811.067 1168.41 810.952Q1168.49 810.837 1168.56 810.726Q1168.64 810.614 1168.72 810.507Q1168.81 810.4 1168.9 810.297Q1168.98 810.193 1169.08 810.095Q1169.17 809.996 1169.27 809.902Q1169.36 809.808 1169.47 809.719Q1169.57 809.63 1169.68 809.546Q1169.78 809.462 1169.89 809.383Q1170 809.304 1170.12 809.231Q1170.23 809.158 1170.35 809.09Z"/>
</svg>
