<svg width="1749" height="702" viewBox="0 0 1749 702" fill="none" xmlns="http://www.w3.org/2000/svg">
<path d="M336.873 200.399C433.114 155.203 538.89 162.641 636.92 197.973C651.73 203.311 666.99 209.036 681.07 216.111L685.36 217.809L693.8 221.663C666.35 222.886 634 225.329 614.23 246.866C596.16 266.545 588.88 298.807 579.96 323.514C577.25 331.019 574.51 339.642 570.18 346.387C557.56 379.617 530.191 422.849 504.07 447.012C485.691 466.403 456.514 491.982 432.102 502.783C373.374 537.409 300.168 543.795 234.872 526.943C226.923 524.945 219.103 522.528 211.412 519.691C205.964 529.397 200.662 539 196.361 549.275C193.135 556.98 190.637 565.077 187.298 572.695L187.245 575.126C179.855 590.345 177.189 636.162 168.535 644.845C167.137 646.249 166.315 645.846 164.522 645.747C163.657 645.186 162.904 644.699 162.349 643.805C155.265 632.398 167.086 587.923 170.436 575.268L171.694 572.702C177.316 549.201 189.729 525.9 199.523 503.778C190.184 476.284 183.027 448.191 181.532 419.079C178.503 360.109 200.195 312.47 239.156 269.235C250.928 250.893 291.201 222.988 310.376 213.786C318.948 208.919 327.705 204.047 336.873 200.399Z" fill="#BBED6E"/>
<path d="M382.847 303.114L385.064 303.864C383.148 306.76 361.759 322.883 357.26 326.747C346.769 335.756 336.768 344.922 327.15 354.871C327.329 362.367 325.934 391.809 323.437 397.7C326.946 396.241 329.555 393.004 333.029 391.166C336.045 389.57 338.529 387.12 341.63 385.623C352.723 380.27 363.69 381.89 375.229 379.947C377.74 379.524 379.569 380.057 381.611 381.597C381.871 381.794 382.121 382.002 382.376 382.204C380.156 381.952 377.076 380.98 375.23 382.232L375.652 383.095C376.798 385.475 377.504 387.086 377.112 389.807C375.545 393.061 372.667 394.505 369.611 396.168L368.878 396.203C369.178 396.407 369.472 396.62 369.776 396.817C370.75 397.445 371.375 397.556 372.495 397.692C377.738 398.327 382.691 401.663 385.834 405.777C390.097 411.358 391.617 417.983 390.588 424.894C388.543 438.625 378.386 451.858 367.407 459.845C366.485 460.514 365.552 461.167 364.608 461.804C371.133 460.729 377.016 457.76 382.891 454.873L380.515 458.466C381.22 460.391 381.593 460.52 383.186 461.696C380.351 463.561 377.525 465.588 374.581 467.266C373.462 469.616 372.231 470.171 369.79 471.084C360.538 474.546 342.13 476.998 333.027 472.579C328.478 470.37 323.623 467.243 318.771 465.896L318.626 466.855C318.483 467.75 318.254 468.494 317.966 469.346C315.828 475.669 316.616 484.006 315.313 490.661C314.36 495.526 312.544 513.181 313.188 517.524C321.758 522.821 358.267 509.206 364.361 513.238C356.858 516.054 346.738 516.713 338.785 517.789C297.481 523.379 256.767 522.377 217.516 507.351C220.945 499.604 224.568 491.95 228.387 484.388C232.206 476.826 236.215 469.366 240.414 462.009C244.613 454.652 248.997 447.406 253.566 440.272C258.135 433.138 262.883 426.125 267.809 419.234C275.739 408.239 284.891 398.133 292.748 387.105C301.968 379.168 310.36 367.814 318.823 358.923C328.733 348.783 339.032 339.055 349.72 329.738C360.407 320.422 371.45 311.547 382.847 303.114Z" fill="url(#paint0_linear_0_1)"/>
<path d="M368.878 396.203C369.178 396.407 369.472 396.62 369.776 396.817C370.75 397.445 371.375 397.556 372.495 397.692C377.738 398.327 382.691 401.663 385.834 405.777C390.097 411.358 391.617 417.983 390.588 424.894C388.543 438.625 378.386 451.858 367.407 459.845C366.485 460.514 365.552 461.167 364.608 461.804C355.82 463.763 347.34 464.449 338.53 462.079C327.134 459.012 318.71 451.841 312.937 441.684C312.859 432.366 315.299 424.771 320.605 417.014C323.297 413.079 326.661 409.213 331.539 408.254C330.538 409.52 329.478 410.247 329.534 411.906C338.549 411.397 357.456 402.913 365.34 398.555C364.455 398.295 363.743 398.014 362.914 397.589C362.638 397.447 362.365 397.296 362.091 397.15L368.878 396.203Z" fill="url(#paint1_linear_0_1)"/>
<path d="M318.821 405.13C325.154 398.352 332.378 392.56 340.651 388.3C346.043 385.523 357.136 380.901 363.094 382.767C360.825 384.389 359.434 385.324 358.427 387.978C358.255 391.631 359.988 394.291 362.091 397.15C362.365 397.296 362.638 397.447 362.914 397.589C363.743 398.014 364.455 398.295 365.34 398.555C357.456 402.913 338.549 411.397 329.534 411.906C329.478 410.247 330.538 409.52 331.539 408.254C326.661 409.213 323.297 413.079 320.605 417.014C315.299 424.771 312.859 432.366 312.937 441.684C312.144 439.897 311.316 438.062 310.825 436.165C307.923 424.946 313.354 414.547 318.821 405.13Z" fill="#A3E624"/>
<path d="M344.956 388.783C346.639 388.726 349.122 388.494 350.693 389.159C352.298 389.839 352.358 390.542 352.959 392.037C352.221 394.85 350.632 395.988 348.5 397.743C346.364 398.137 344.707 398.157 342.561 397.823C340.716 396.371 340.619 396.563 340.312 394.08C341.259 391.414 342.731 390.436 344.956 388.783Z" fill="#E2FCB3"/>
<path d="M374.581 467.266C365.657 470.742 356.221 473.427 346.557 472.989C334.708 472.451 322.824 468.25 314.725 459.3C314.306 458.845 313.898 458.38 313.503 457.905C313.108 457.43 312.725 456.944 312.354 456.449C311.983 455.954 311.625 455.45 311.28 454.937C310.935 454.424 310.604 453.902 310.285 453.372C309.967 452.841 309.663 452.303 309.372 451.758C309.081 451.212 308.805 450.659 308.542 450.099C308.279 449.539 308.031 448.973 307.797 448.4C307.564 447.827 307.345 447.249 307.14 446.666C306.936 446.082 306.747 445.493 306.573 444.9C306.399 444.307 306.24 443.709 306.097 443.107C305.953 442.506 305.825 441.901 305.712 441.293C305.599 440.684 305.502 440.074 305.421 439.461C305.34 438.848 305.274 438.233 305.223 437.617C305.173 437 305.139 436.383 305.12 435.765C305.101 435.146 305.099 434.528 305.112 433.91C305.125 433.291 305.153 432.674 305.198 432.057C305.895 421.854 311.13 411.815 318.821 405.13C313.354 414.547 307.923 424.946 310.825 436.165C311.316 438.062 312.144 439.897 312.937 441.684C318.71 451.841 327.134 459.012 338.53 462.079C347.34 464.449 355.82 463.763 364.608 461.804C371.133 460.729 377.016 457.76 382.891 454.873L380.515 458.466C381.22 460.391 381.593 460.52 383.186 461.696C380.351 463.561 377.525 465.588 374.581 467.266Z" fill="url(#paint2_linear_0_1)"/>
<path d="M363.094 382.767C365.771 382.505 366.434 381.984 368.637 383.659C370.24 386.352 371.069 391.624 370.257 394.715C370.134 395.183 369.812 395.761 369.611 396.168L368.878 396.203L362.091 397.15C359.988 394.291 358.255 391.631 358.427 387.978C359.434 385.324 360.825 384.389 363.094 382.767Z" fill="#E2FCB3"/>
<path d="M239.156 269.235C238.945 272.597 219.918 298.927 216.258 305.433C200.866 332.788 188.84 367.258 189.992 399.016C191.063 398.451 191.106 398.098 191.726 397.098C194.714 396.627 197.757 398.907 200.331 400.287C201.102 392.084 201.181 382.351 204.576 374.8C205.797 380.725 209.486 385.343 213.91 389.308C222.129 396.674 232.848 400.966 243.941 400.167C263.381 398.768 266.58 386.276 278.078 373.344C279.906 371.288 281.408 369.068 284.208 368.888C292.852 359.535 301.774 350.456 310.973 341.65C313.281 347.234 317.058 353.355 318.823 358.923C310.36 367.814 301.968 379.168 292.748 387.105C284.891 398.133 275.739 408.239 267.809 419.234C262.883 426.125 258.135 433.138 253.566 440.272C248.997 447.406 244.613 454.652 240.414 462.009C236.215 469.366 232.206 476.826 228.387 484.388C224.568 491.95 220.945 499.604 217.516 507.351C256.767 522.377 297.481 523.379 338.785 517.789C346.738 516.713 356.858 516.054 364.361 513.238C385.935 510.226 406.597 501.401 426.428 492.78C426.253 493.03 426.088 493.287 425.903 493.53C420.979 500.021 400.959 502.091 394.692 507.623L394.869 508.537C395.343 511.107 395.729 514.156 395.906 516.744C395.929 517.084 395.897 517.425 395.892 517.766C408.373 513.946 420.141 507.855 431.56 501.608L432.102 502.783C373.374 537.409 300.168 543.795 234.872 526.943C226.923 524.945 219.103 522.528 211.412 519.691C205.964 529.397 200.662 539 196.361 549.275C193.135 556.98 190.637 565.077 187.298 572.695L187.245 575.126C179.855 590.345 177.189 636.162 168.535 644.845C167.137 646.249 166.315 645.846 164.522 645.747C163.657 645.186 162.904 644.699 162.349 643.805C155.265 632.398 167.086 587.923 170.436 575.268L171.694 572.702C177.316 549.201 189.729 525.9 199.523 503.778C190.184 476.284 183.027 448.191 181.532 419.079C178.503 360.109 200.195 312.47 239.156 269.235Z" fill="url(#paint3_linear_0_1)"/>
<path d="M204.576 374.8C205.797 380.725 209.486 385.343 213.91 389.308C222.129 396.674 232.848 400.966 243.941 400.167C263.381 398.768 266.58 386.276 278.078 373.344C279.906 371.288 281.408 369.068 284.208 368.888L282.533 371.491C275.58 378.084 269.51 386.265 263.699 393.856C257.952 401.268 252.451 408.859 247.197 416.628C241.943 424.397 236.947 432.329 232.208 440.423C227.469 448.518 222.998 456.757 218.795 465.142C214.592 473.527 210.666 482.04 207.016 490.68C195.832 462.538 187.893 429.49 189.992 399.016C191.063 398.451 191.106 398.098 191.726 397.098C194.714 396.627 197.757 398.907 200.331 400.287C201.102 392.084 201.181 382.351 204.576 374.8Z" fill="url(#paint4_linear_0_1)"/>
<path d="M284.208 368.888C292.852 359.535 301.774 350.456 310.973 341.65C313.281 347.234 317.058 353.355 318.823 358.923C310.36 367.814 301.968 379.168 292.748 387.105C294.507 381.432 300.952 375.787 304.905 371.428C303.761 366.01 301.018 360.934 298.922 355.821C293.587 360.975 289.155 367.979 282.533 371.491L284.208 368.888Z" fill="#7CA364"/>
<path d="M336.873 200.399C433.114 155.203 538.89 162.641 636.92 197.973C651.73 203.311 666.99 209.036 681.07 216.111C671.41 215.467 660.98 211.395 651.36 209.625C629.15 205.542 606.26 205.119 583.79 206.586L579.66 206.11C583.14 204.942 617.24 203.874 619.98 204.791C621.95 205.452 623.05 205.93 625.08 205.196C623.51 202.82 619.27 199.088 616.57 198.293C603.98 194.584 569.04 196.657 554.22 196.589L424.094 195.809C408.612 195.68 393.127 195.109 377.633 194.943C371.436 194.877 365.076 194.313 358.896 194.769C352.054 195.275 344.164 198.108 338.114 201.215L337.403 201.586L336.873 200.399Z" fill="#8FD44A"/>
<path d="M310.973 341.65C340.533 311.119 378.603 284.326 415.303 262.987C420.844 259.765 426.828 257.249 432.479 254.215C441.722 249.252 452.863 242.191 463.031 239.589L463.226 240.343C456.804 244.69 448.73 245.592 442.537 250.08C432.252 257.536 419.126 260.222 409.52 268.796C410.521 272.607 411.566 276.15 413.218 279.735L414.54 279.782C428.869 269.224 446.016 262.334 461.212 253.158C464.165 251.375 475.339 246.135 477.968 246.716L478.061 247.893C473.942 253.11 437.532 268.356 429.075 272.685C412.901 280.964 397.321 292.202 382.847 303.114C371.45 311.547 360.407 320.422 349.72 329.738C339.032 339.055 328.733 348.783 318.823 358.923C317.058 353.355 313.281 347.234 310.973 341.65Z" fill="url(#paint5_linear_0_1)"/>
<path d="M239.156 269.235C250.928 250.893 291.201 222.988 310.376 213.786L310.655 215.602C297.516 228.733 282.099 239.614 268.585 252.444C235.938 283.436 210.146 328.936 204.497 374.004C204.464 374.268 204.55 374.535 204.576 374.8C201.181 382.351 201.102 392.084 200.331 400.287C197.757 398.907 194.714 396.627 191.726 397.098C191.106 398.098 191.063 398.451 189.992 399.016C188.84 367.258 200.866 332.788 216.258 305.433C219.918 298.927 238.945 272.597 239.156 269.235Z" fill="url(#paint6_linear_0_1)"/>
<path d="M499.694 439.949C503.593 434.832 508.628 430.146 512.979 425.348C521.087 416.406 529.013 407.209 536.19 397.497C543.37 387.58 550.217 377.435 556.73 367.063C560.9 360.406 564.9 352.161 570.18 346.387C557.56 379.617 530.191 422.849 504.07 447.012C485.691 466.403 456.514 491.982 432.102 502.783L431.56 501.608C420.141 507.855 408.373 513.946 395.892 517.766C395.897 517.425 395.929 517.084 395.906 516.744C395.729 514.156 395.343 511.107 394.869 508.537L394.692 507.623C400.959 502.091 420.979 500.021 425.903 493.53C426.088 493.287 426.253 493.03 426.428 492.78C435.15 486.572 445.661 482.052 454.798 476.309C471.06 466.085 485.696 453.021 499.694 439.949Z" fill="#7CA364"/>
<path d="M499.694 439.949C503.593 434.832 508.628 430.146 512.979 425.348C521.087 416.406 529.013 407.209 536.19 397.497C543.37 387.58 550.217 377.435 556.73 367.063C560.9 360.406 564.9 352.161 570.18 346.387C557.56 379.617 530.191 422.849 504.07 447.012C506.347 440.805 527.742 417.083 533.12 409.821C536.54 405.21 540.04 400.538 542.99 395.609C545.9 390.745 547.81 386.007 551.33 381.448L551.35 381.446L550.98 381.215C546.3 382.36 514.418 432.828 500.273 439.691C500.083 439.783 499.887 439.863 499.694 439.949Z" fill="#8FD44A"/>
<path d="M369.611 396.168C372.667 394.505 375.545 393.061 377.112 389.807C377.504 387.086 376.798 385.475 375.652 383.095L375.23 382.232C377.076 380.98 380.156 381.952 382.376 382.204C391.791 386.424 398.612 391.315 402.398 401.302C406.298 411.589 404.954 423.535 400.441 433.397C397.481 439.866 393.193 445.397 388.13 450.351C386.493 451.733 384.21 453.229 382.891 454.873C377.016 457.76 371.133 460.729 364.608 461.804C365.552 461.167 366.485 460.514 367.407 459.845C378.386 451.858 388.543 438.625 390.588 424.894C391.617 417.983 390.097 411.358 385.834 405.777C382.691 401.663 377.738 398.327 372.495 397.692C371.375 397.556 370.75 397.445 369.776 396.817C369.472 396.62 369.178 396.407 368.878 396.203L369.611 396.168Z" fill="#A3E624"/>
<path d="M583.79 206.586C606.26 205.119 629.15 205.542 651.36 209.625C660.98 211.395 671.41 215.467 681.07 216.111L685.36 217.809C677.9 219.805 666.39 217.003 658.52 216.196C643.58 214.665 620.86 212.338 606.38 215.565C614.7 217.164 624.28 216.431 632.79 216.564C608.33 216.83 585.34 219.959 561.12 222.772C569.44 218.9 584.69 218.555 593.94 217.123L593.63 216.243C591.35 216.14 588.74 216.331 586.62 215.465C596.41 215.257 606.09 213.505 615.79 213.324C627.46 213.106 640.11 214.957 651.62 213.316C652.86 213.139 652.41 213.424 653.09 212.513C650.66 209.175 646.03 210.541 642.42 210.058C636.77 209.304 631.06 207.841 625.38 207.58C612.32 206.978 596.22 210.202 583.79 206.586Z" fill="#A3E624"/>
<path d="M388.13 450.351C389.122 452.194 389.882 452.816 389.248 454.999C388.46 457.712 385.309 459.951 383.186 461.696C381.593 460.52 381.22 460.391 380.515 458.466L382.891 454.873C384.21 453.229 386.493 451.733 388.13 450.351Z" fill="#8FD44A"/>
<path d="M622.26 226.862L622.39 226.827C617.71 230.643 611.94 233.041 607.27 237.149C603.57 240.394 600.44 244.642 597.41 248.506C579.52 271.354 578.24 291.57 568.04 316.957C534.68 399.91 475.785 465.625 392.957 500.871L391.622 500.779C393.475 497.548 416.999 484.849 422.107 481.392C430.773 475.527 439.172 468.986 447.386 462.504C452.818 458.236 458.116 453.808 463.281 449.22C468.445 444.632 473.466 439.892 478.345 435.001C483.223 430.11 487.949 425.075 492.523 419.898C497.097 414.721 501.511 409.411 505.764 403.967C510.63 397.612 515.278 391.101 519.707 384.434C524.136 377.767 528.337 370.959 532.31 364.01C536.283 357.061 540.02 349.987 543.52 342.788C547.02 335.589 550.273 328.28 553.28 320.863C562.69 297.279 566.88 269.359 583.21 249.305C591.98 238.538 608.36 228.351 622.26 226.862Z" fill="#E2FCB3"/>
<path d="M430.888 378.86C436.772 373.487 443.966 368.945 451.825 367.188C455.099 366.457 459.13 365.747 462.076 367.596C458.922 368.42 454.697 369.199 452.911 372.231C452.34 373.2 452.798 373.651 453.11 374.627C455.28 376.065 457.405 376.797 460.054 376.343C461.88 376.03 463.764 375.073 464.862 373.534C466.046 371.875 465.836 370.95 465.456 369.055L466.108 367.948C470.721 368.645 475.402 372.252 478.235 375.891C481.135 379.615 482.21 384.883 481.437 389.48C480.145 397.161 474.419 403.56 468.129 407.749C466.504 408.844 464.811 409.822 463.051 410.683C460.428 413.06 454.918 415.456 451.387 415.695C448.636 416.563 445.619 416.891 442.736 416.865C436.308 416.808 430.043 414.746 425.602 409.919C425.387 409.684 425.177 409.444 424.974 409.198C424.771 408.952 424.574 408.701 424.384 408.445C424.194 408.189 424.011 407.928 423.834 407.663C423.658 407.397 423.489 407.127 423.326 406.853C423.164 406.578 423.009 406.3 422.861 406.017C422.713 405.734 422.573 405.448 422.44 405.159C422.307 404.869 422.182 404.576 422.065 404.279C421.947 403.982 421.837 403.683 421.735 403.381C421.634 403.079 421.54 402.775 421.453 402.468C421.367 402.161 421.289 401.851 421.219 401.54C421.15 401.229 421.088 400.917 421.034 400.602C420.981 400.287 420.935 399.972 420.898 399.655C420.861 399.338 420.833 399.021 420.812 398.703C420.791 398.385 420.779 398.066 420.775 397.747C420.771 397.428 420.775 397.11 420.788 396.791C420.801 396.472 420.822 396.154 420.851 395.837C421.48 388.54 425.582 383.48 430.888 378.86Z" fill="#A3E624"/>
<path d="M430.888 378.86C428.244 383.507 425.84 387.661 425.712 393.157L429.999 387.186L430.788 387.868C437.487 393.583 457.063 403.059 459.854 410.196C458.981 412.104 458.492 412.81 456.355 413.375C455.266 413.663 454.006 413.667 452.882 413.718L445.444 413.668L451.387 415.695C448.636 416.563 445.619 416.891 442.736 416.865C436.308 416.808 430.043 414.746 425.602 409.919C425.387 409.684 425.177 409.444 424.974 409.198C424.771 408.952 424.574 408.701 424.384 408.445C424.194 408.189 424.011 407.928 423.834 407.663C423.658 407.397 423.489 407.127 423.326 406.853C423.164 406.578 423.009 406.3 422.861 406.017C422.713 405.734 422.573 405.448 422.44 405.159C422.307 404.869 422.182 404.576 422.065 404.279C421.947 403.982 421.837 403.683 421.735 403.381C421.634 403.079 421.54 402.775 421.453 402.468C421.367 402.161 421.289 401.851 421.219 401.54C421.15 401.229 421.088 400.917 421.034 400.602C420.981 400.287 420.935 399.972 420.898 399.655C420.861 399.338 420.833 399.021 420.812 398.703C420.791 398.385 420.779 398.066 420.775 397.747C420.771 397.428 420.775 397.11 420.788 396.791C420.801 396.472 420.822 396.154 420.851 395.837C421.48 388.54 425.582 383.48 430.888 378.86Z" fill="#BBED6E"/>
<path d="M430.888 378.86C428.244 383.507 425.84 387.661 425.712 393.157L425.943 398.196C428.392 404.414 431.547 408.56 437.772 411.331C440.245 412.431 442.814 413.074 445.444 413.668L451.387 415.695C448.636 416.563 445.619 416.891 442.736 416.865C436.308 416.808 430.043 414.746 425.602 409.919C425.387 409.684 425.177 409.444 424.974 409.198C424.771 408.952 424.574 408.701 424.384 408.445C424.194 408.189 424.011 407.928 423.834 407.663C423.658 407.397 423.489 407.127 423.326 406.853C423.164 406.578 423.009 406.3 422.861 406.017C422.713 405.734 422.573 405.448 422.44 405.159C422.307 404.869 422.182 404.576 422.065 404.279C421.947 403.982 421.837 403.683 421.735 403.381C421.634 403.079 421.54 402.775 421.453 402.468C421.367 402.161 421.289 401.851 421.219 401.54C421.15 401.229 421.088 400.917 421.034 400.602C420.981 400.287 420.935 399.972 420.898 399.655C420.861 399.338 420.833 399.021 420.812 398.703C420.791 398.385 420.779 398.066 420.775 397.747C420.771 397.428 420.775 397.11 420.788 396.791C420.801 396.472 420.822 396.154 420.851 395.837C421.48 388.54 425.582 383.48 430.888 378.86Z" fill="#71B107"/>
<path fill-rule="evenodd" clip-rule="evenodd" d="M1460.57 269.068C1455.39 267.324 1450.42 266.254 1444.92 266.265C1438.05 267.083 1432.35 268.495 1427.78 274.228C1424 278.971 1422.42 285.138 1421.23 290.973C1420.06 290.388 1418.88 289.832 1417.68 289.305C1416.48 288.778 1415.27 288.279 1414.05 287.81C1412.83 287.341 1411.6 286.901 1410.36 286.491C1409.12 286.081 1407.87 285.701 1406.61 285.351C1405.35 285.002 1404.08 284.683 1402.8 284.394C1401.53 284.105 1400.25 283.847 1398.96 283.62C1397.67 283.393 1396.38 283.197 1395.08 283.032C1393.78 282.867 1392.48 282.734 1391.18 282.631C1389.88 282.529 1388.57 282.458 1387.26 282.419C1385.96 282.38 1384.65 282.372 1383.34 282.395C1382.04 282.419 1380.73 282.474 1379.42 282.56C1378.12 282.647 1376.81 282.764 1375.51 282.913C1374.21 283.062 1372.92 283.243 1371.63 283.454C1370.34 283.665 1369.05 283.908 1367.77 284.181C1366.49 284.454 1365.22 284.758 1363.96 285.093C1362.7 285.428 1361.44 285.792 1360.19 286.187C1348.54 289.913 1338.6 297.363 1332.98 308.378C1328.47 317.198 1327.2 327.7 1330.3 337.187C1333.77 347.794 1341.41 353.9 1350.65 359.388C1343.03 365.241 1336.32 371.272 1334.99 381.326C1334.15 387.643 1336.15 394.335 1340.08 399.33C1341.94 401.705 1344.39 403.713 1346.72 405.618C1337.54 408.985 1330.77 413.338 1326.47 422.476C1322.72 430.465 1322.5 440.351 1325.56 448.604C1328.81 457.361 1335.69 462.956 1344.05 466.626C1361.74 474.386 1385.28 474.566 1404.17 471.146C1421.54 467.196 1439.45 459.306 1449.31 443.651C1455.04 434.537 1457.67 422.923 1455.15 412.326C1453.25 404.33 1449.03 397.457 1441.87 393.254C1434.46 388.906 1425.71 386.917 1417.24 386.057C1414.57 385.785 1410.41 385.755 1405.53 385.718C1388.31 385.591 1362 385.396 1359.22 374.342C1358.64 372.049 1359.21 369.688 1360.45 367.712C1361.62 365.85 1363.11 364.845 1365 363.81C1367.82 363.402 1370.61 363.929 1373.41 364.458C1375.07 364.771 1376.73 365.084 1378.4 365.204C1397.73 366.594 1419.84 363.43 1432.19 346.88C1438.34 338.635 1441.63 327.456 1440.13 317.206C1439.09 310.082 1435.95 304.259 1431.99 298.365C1440.62 293.709 1448.22 293.097 1457.86 292.558L1460.57 269.068ZM1379.27 410.862C1373.81 410.825 1368.38 410.788 1363.09 410.453C1357.21 415.406 1352.7 421.15 1351.97 429.119C1351.45 434.75 1353.32 440.115 1356.98 444.367C1363.06 451.439 1372.36 453.925 1381.35 454.415C1391.7 454.979 1401.59 453.489 1411.05 449.277C1416.92 445.604 1422.18 441.601 1423.85 434.443C1424.9 429.93 1424.73 424.707 1422.11 420.754C1418.69 415.596 1412.38 413.486 1406.57 412.492C1397.77 410.988 1388.49 410.925 1379.27 410.862Z" fill="#1B1B1B"/>
<path d="M1369.34 341.946C1367.1 340.164 1365.17 338.068 1363.78 335.548C1360.75 330.053 1359.91 324.122 1361.72 318.055C1363.54 311.981 1367.86 307.089 1373.46 304.22C1373.86 304.021 1374.26 303.833 1374.66 303.654C1375.07 303.475 1375.48 303.306 1375.89 303.147C1376.31 302.988 1376.73 302.84 1377.15 302.702C1377.57 302.564 1378 302.436 1378.42 302.319C1378.85 302.202 1379.28 302.096 1379.71 302C1380.15 301.904 1380.58 301.819 1381.02 301.745C1381.46 301.67 1381.89 301.607 1382.33 301.554C1382.77 301.501 1383.22 301.46 1383.66 301.429C1384.1 301.398 1384.54 301.378 1384.98 301.369C1385.43 301.36 1385.87 301.362 1386.31 301.375C1386.76 301.388 1387.2 301.411 1387.64 301.446C1388.08 301.481 1388.52 301.526 1388.96 301.583C1389.4 301.64 1389.84 301.707 1390.28 301.785C1390.72 301.863 1391.15 301.952 1391.58 302.052C1392.02 302.151 1392.45 302.261 1392.87 302.382C1393.3 302.503 1393.72 302.635 1394.14 302.776C1401.22 305.221 1405.44 310.314 1408.54 316.876C1408.78 317.082 1409.03 317.291 1409.28 317.493C1412.55 320.14 1421.23 322.51 1422.65 326.459L1421.69 326.646C1406.82 329.604 1401.46 358.539 1372.26 341.671C1374.34 339.514 1377.33 337.133 1378.25 334.242C1375.21 335.679 1371.21 339.122 1369.34 341.946Z" fill="#BBED6E"/>
<path d="M1374.86 304.112L1374.87 304.112C1375.26 303.935 1375.67 303.77 1376.07 303.614C1376.48 303.458 1376.89 303.313 1377.31 303.178L1377.31 303.177C1377.72 303.042 1378.14 302.916 1378.56 302.801C1378.97 302.687 1379.4 302.582 1379.82 302.488C1380.25 302.394 1380.68 302.311 1381.11 302.238L1381.11 302.238C1381.53 302.165 1381.96 302.102 1382.39 302.05C1382.82 301.999 1383.26 301.958 1383.7 301.928L1383.7 301.928C1384.13 301.898 1384.56 301.878 1384.99 301.869C1385.43 301.86 1385.87 301.862 1386.3 301.875L1386.3 301.875C1386.74 301.887 1387.17 301.911 1387.6 301.945C1388.04 301.979 1388.47 302.023 1388.9 302.079C1389.33 302.135 1389.76 302.201 1390.2 302.277C1390.62 302.354 1391.05 302.441 1391.47 302.539L1391.47 302.539C1391.9 302.637 1392.32 302.745 1392.74 302.863C1393.16 302.982 1393.57 303.111 1393.98 303.249C1400.57 305.524 1404.63 310.142 1407.65 316.189C1398.41 314.394 1387.87 313.802 1379.57 319.486C1372.72 324.178 1370.59 330.925 1369.38 338.565L1369.38 338.567C1369.34 338.85 1369.29 339.132 1369.25 339.412C1369.17 339.951 1369.09 340.486 1369 341.018C1367.08 339.389 1365.44 337.511 1364.22 335.307C1361.25 329.919 1360.43 324.126 1362.2 318.198C1363.98 312.265 1368.2 307.478 1373.69 304.666C1374.08 304.471 1374.47 304.287 1374.86 304.112Z" stroke="black"/>
<path fill-rule="evenodd" clip-rule="evenodd" d="M1250.68 281.498C1249.61 281.563 1248.54 281.655 1247.47 281.773C1246.41 281.89 1245.36 282.032 1244.3 282.201C1243.25 282.37 1242.2 282.564 1241.16 282.784C1240.12 283.004 1239.08 283.249 1238.05 283.519C1237.02 283.79 1236 284.085 1234.98 284.406C1233.96 284.727 1232.95 285.072 1231.95 285.442C1230.96 285.812 1229.97 286.206 1228.98 286.624C1228 287.043 1227.04 287.485 1226.08 287.95C1225.12 288.416 1224.17 288.905 1223.24 289.417C1222.3 289.929 1221.38 290.464 1220.47 291.021C1219.56 291.578 1218.67 292.156 1217.79 292.757C1216.91 293.358 1216.04 293.98 1215.19 294.623C1214.34 295.266 1213.51 295.93 1212.69 296.614C1211.87 297.298 1211.07 298.002 1210.29 298.725C1209.51 299.448 1208.74 300.189 1207.99 300.95C1207.25 301.711 1206.52 302.489 1205.81 303.285C1205.1 304.081 1204.41 304.894 1203.74 305.724C1203.07 306.553 1202.43 307.399 1201.8 308.261C1201.17 309.122 1200.56 309.998 1199.98 310.889C1199.39 311.78 1198.83 312.685 1198.29 313.604C1197.75 314.523 1197.23 315.454 1196.74 316.398C1196.24 317.342 1195.77 318.298 1195.32 319.265C1194.87 320.232 1194.45 321.209 1194.05 322.197C1193.65 323.185 1193.27 324.182 1192.92 325.188C1192.57 326.195 1192.24 327.209 1191.94 328.231C1191.63 329.253 1191.36 330.282 1191.1 331.318C1190.85 332.354 1190.63 333.395 1190.42 334.442C1190.22 335.489 1190.05 336.541 1189.9 337.596C1189.75 338.651 1189.62 339.71 1189.53 340.771C1189.43 341.833 1189.36 342.896 1189.31 343.961C1189.26 345.026 1189.24 346.092 1189.25 347.158C1189.26 348.224 1189.29 349.289 1189.35 350.354C1189.4 351.418 1189.49 352.48 1189.6 353.541C1189.71 354.602 1189.84 355.659 1190 356.712C1190.17 357.766 1190.35 358.815 1190.57 359.86C1190.78 360.904 1191.02 361.943 1191.28 362.976C1191.55 364.009 1191.83 365.034 1192.15 366.053C1192.46 367.072 1192.8 368.082 1193.16 369.085C1193.53 370.087 1193.91 371.08 1194.33 372.063C1194.74 373.046 1195.17 374.019 1195.63 374.981C1196.09 375.943 1196.57 376.893 1197.08 377.832C1197.59 378.77 1198.11 379.695 1198.67 380.608C1199.22 381.521 1199.79 382.419 1200.38 383.303C1200.98 384.188 1201.6 385.057 1202.23 385.912C1202.87 386.767 1203.53 387.605 1204.21 388.427C1204.89 389.249 1205.58 390.054 1206.3 390.842C1207.02 391.63 1207.76 392.4 1208.51 393.152C1209.27 393.905 1210.04 394.638 1210.83 395.352C1211.62 396.066 1212.43 396.76 1213.26 397.435C1214.08 398.11 1214.92 398.764 1215.78 399.398C1216.64 400.031 1217.51 400.644 1218.39 401.235C1219.28 401.826 1220.18 402.394 1221.1 402.941C1222.01 403.488 1222.94 404.013 1223.88 404.514C1224.82 405.015 1225.77 405.494 1226.74 405.949C1227.7 406.404 1228.68 406.835 1229.66 407.242C1230.65 407.649 1231.64 408.032 1232.64 408.391C1233.65 408.75 1234.66 409.084 1235.68 409.393C1236.7 409.702 1237.73 409.986 1238.76 410.245C1239.79 410.504 1240.83 410.737 1241.88 410.946C1242.93 411.154 1243.97 411.336 1245.03 411.493C1246.08 411.65 1247.14 411.781 1248.2 411.886C1249.26 411.991 1250.32 412.07 1251.39 412.123C1252.45 412.176 1253.52 412.203 1254.58 412.204C1255.65 412.205 1256.72 412.18 1257.78 412.129C1258.84 412.078 1259.91 412.001 1260.97 411.898C1262.04 411.794 1263.1 411.664 1264.17 411.507C1265.23 411.351 1266.29 411.168 1267.34 410.959C1268.4 410.75 1269.45 410.516 1270.49 410.256C1271.53 409.995 1272.57 409.709 1273.6 409.398C1274.62 409.086 1275.65 408.749 1276.66 408.388C1277.67 408.026 1278.67 407.639 1279.66 407.228C1280.66 406.817 1281.64 406.381 1282.61 405.921C1283.58 405.462 1284.54 404.978 1285.49 404.471C1286.44 403.964 1287.37 403.434 1288.29 402.881C1289.22 402.328 1290.12 401.752 1291.02 401.155C1291.91 400.557 1292.79 399.937 1293.65 399.296C1294.51 398.655 1295.36 397.993 1296.19 397.31C1297.02 396.627 1297.83 395.924 1298.63 395.201C1299.42 394.478 1300.2 393.736 1300.96 392.975C1301.72 392.214 1302.46 391.434 1303.18 390.636C1303.9 389.838 1304.6 389.023 1305.28 388.191C1305.96 387.359 1306.62 386.51 1307.26 385.645C1307.89 384.78 1308.51 383.9 1309.1 383.005C1309.7 382.11 1310.27 381.2 1310.82 380.277C1311.38 379.354 1311.9 378.417 1312.4 377.468C1312.91 376.519 1313.39 375.557 1313.84 374.584C1314.3 373.611 1314.74 372.627 1315.14 371.633C1315.55 370.638 1315.93 369.634 1316.29 368.621C1316.65 367.608 1316.99 366.586 1317.29 365.556C1317.6 364.526 1317.88 363.489 1318.14 362.446C1318.4 361.402 1318.63 360.352 1318.83 359.297C1319.04 358.242 1319.22 357.183 1319.37 356.119C1319.53 355.055 1319.65 353.988 1319.75 352.917C1319.85 351.847 1319.93 350.775 1319.97 349.701C1320.03 348.627 1320.05 347.553 1320.04 346.478C1320.04 345.403 1320 344.328 1319.94 343.255C1319.89 342.182 1319.81 341.11 1319.69 340.041C1319.58 338.972 1319.44 337.906 1319.28 336.843C1319.12 335.781 1318.93 334.723 1318.71 333.67C1318.5 332.617 1318.26 331.569 1317.99 330.528C1317.72 329.487 1317.43 328.453 1317.11 327.426C1316.79 326.399 1316.45 325.381 1316.08 324.371C1315.72 323.362 1315.32 322.362 1314.9 321.371C1314.48 320.38 1314.04 319.401 1313.57 318.432C1313.11 317.463 1312.62 316.507 1312.1 315.562C1311.6 314.617 1311.06 313.686 1310.5 312.768C1309.94 311.85 1309.36 310.946 1308.75 310.057C1308.15 309.168 1307.53 308.294 1306.88 307.435C1306.24 306.576 1305.57 305.734 1304.88 304.908C1304.19 304.083 1303.48 303.274 1302.75 302.483C1302.03 301.692 1301.28 300.92 1300.51 300.166C1299.75 299.412 1298.96 298.677 1298.16 297.962C1297.36 297.247 1296.54 296.552 1295.7 295.877C1294.87 295.202 1294.01 294.548 1293.15 293.915C1292.28 293.282 1291.39 292.671 1290.49 292.082C1289.6 291.493 1288.68 290.926 1287.76 290.382C1286.83 289.837 1285.89 289.316 1284.94 288.819C1283.98 288.321 1283.02 287.847 1282.04 287.396C1281.07 286.946 1280.08 286.52 1279.08 286.118C1278.09 285.716 1277.08 285.339 1276.07 284.987C1275.05 284.635 1274.03 284.308 1273 284.006C1271.96 283.705 1270.93 283.429 1269.88 283.178C1268.84 282.928 1267.79 282.704 1266.73 282.505C1265.67 282.306 1264.61 282.134 1263.55 281.987C1262.48 281.841 1261.42 281.721 1260.34 281.627C1259.27 281.534 1258.2 281.467 1257.13 281.426C1256.05 281.385 1254.98 281.37 1253.9 281.383C1252.83 281.395 1251.76 281.433 1250.68 281.498ZM1267.92 308.562C1262.71 305.323 1257.08 304.273 1251 304.634C1241.92 306.733 1235.63 310.8 1230.66 318.863C1223.22 330.938 1222.26 347.084 1225.53 360.626C1227.86 370.293 1232.97 379.927 1241.66 385.236C1246.95 388.468 1252.2 389.137 1258.31 388.944C1267.09 387.036 1273.29 383.09 1278.23 375.438C1285.81 363.692 1286.96 347.64 1284.02 334.252C1281.83 324.305 1276.82 314.097 1267.92 308.562Z" fill="#1B1B1B"/>
<path d="M1171.26 227.024C1171.83 226.924 1172.98 227.164 1173.57 227.23C1175.9 233.506 1173.03 270.173 1172.87 279.79C1172.25 322.319 1172.8 364.833 1174.52 407.332L1141.56 407.309L1141 407.097C1140.18 405.972 1140.08 405.866 1140.06 404.458C1139.87 390.577 1141.19 376.357 1141.45 362.424C1142.25 317.868 1142.61 273.102 1137.88 228.739L1171.26 227.024Z" fill="#1B1B1B"/>
<path d="M127.092 50.728L139.923 76.47L128.442 76.48L128.418 572.605L171.694 572.702L170.436 575.268L128.423 575.285C128.405 590.081 130.305 639.448 127.206 649.895L126.449 649.603C124.93 640.379 125.638 630.38 125.647 621.036L125.72 575.298C116.6 575.283 55.094 576.512 52.479 573.995C57.091 570.819 115.697 572.618 125.709 572.626L125.702 76.485L114.328 76.464L127.092 50.728Z" fill="#1B1B1B"/>
<path d="M750.66 561.117C755.76 563.607 771.92 570.15 774.72 573.934C768.93 579.344 757.89 583.175 750.61 586.705L750.65 575.303L374.876 575.312L251.264 575.314C230.038 575.314 208.412 576.204 187.245 575.126L187.298 572.695L750.64 572.615L750.66 561.117Z" fill="#1B1B1B"/>
<path d="M1080.4 335.006L1085.77 335.037C1087.05 335.845 1087.47 335.965 1088.06 337.363C1090.78 343.76 1086.29 359.622 1083.85 366.107C1078.54 380.242 1067.47 391.206 1053.78 397.353C1038.26 404.316 1019.76 404.517 1003.97 398.285C990.534 392.985 979.113 382.956 973.346 369.597C970.414 362.807 965.636 343.392 968.374 336.329C971.051 334.622 972.934 335.057 976.029 335.035C976.472 352.194 977.962 368.628 991.186 381.143C1001.64 391.036 1015.81 395.623 1030.07 395.152C1044.06 394.689 1057.81 389.384 1067.44 379.016C1078.53 367.083 1079.96 350.51 1080.4 335.006Z" fill="url(#paint7_linear_0_1)"/>
<path d="M1592.41 325.418C1594.92 325.29 1598.46 324.611 1600.63 326.001C1599.87 329.423 1599.21 332.838 1598.85 336.331C1597.71 347.377 1599.95 359.11 1607.18 367.81C1613.25 375.115 1621.14 378.292 1630.49 379.14C1641.2 380.112 1653.38 376.38 1661.63 369.429C1664.66 366.876 1669.6 361.777 1669.97 357.783C1670.44 356.809 1670.71 355.887 1670.87 354.821C1672.06 346.62 1671.52 331.959 1666.59 325.207C1670.25 325.125 1673.9 325.344 1677.56 325.522C1677.85 326.332 1677.91 326.445 1678.11 327.42C1678.97 331.759 1679.43 338.679 1677.06 342.534C1679.88 347.041 1679.2 377.812 1678.13 384.027C1676.76 385.329 1675.91 385.089 1674.06 385.254C1668.65 381.904 1672.32 374.926 1669.74 369.696C1669.65 369.512 1669.54 369.336 1669.44 369.157C1668.35 372.966 1664.65 375.994 1661.57 378.309C1652.27 385.271 1638.78 387.715 1627.45 386.086C1616.1 384.458 1605.73 378.799 1598.94 369.457C1589.11 355.93 1589.94 341.071 1592.41 325.418Z" fill="url(#paint8_linear_0_1)"/>
<path d="M976.033 327.883C973.377 327.966 971.795 328.343 969.396 326.974C967.212 321.811 970.802 310.707 972.837 305.607C978.211 292.139 989.29 281.808 1002.55 276.213C1018.4 269.53 1037.72 269.487 1053.58 276.133C1066.82 281.679 1077.88 291.825 1083.19 305.261C1085.51 311.129 1089.12 320.748 1087.08 327.086C1084.73 327.651 1082.45 328.212 1080.04 328.483C1080.95 318.444 1075.91 304.83 1069.67 297.028C1061.14 286.36 1048.12 280.174 1034.67 278.816C1019.87 277.323 1004.67 280.915 993.115 290.547C981.649 300.105 977.241 313.368 976.033 327.883Z" fill="#71B107"/>
<path d="M859.155 335.045C860.623 334.992 862.143 334.888 863.609 334.991C864.153 335.03 865.977 335.293 866.388 335.556C867.639 336.355 868.278 344.952 868.503 346.564C870.278 359.322 873.617 368.978 882.603 378.632C892.494 389.256 906.045 394.58 920.417 395.103C937.215 395.715 950.125 389.209 962.179 378.06C963.733 380.35 965.106 382.817 966.552 385.18C954.726 396.027 940.459 402.393 924.34 402.809C907.249 403.25 890.516 397.561 878.17 385.554C863.98 371.755 859.439 354.245 859.155 335.045Z" fill="url(#paint9_linear_0_1)"/>
<path d="M812.79 334.811C820.836 334.684 842.664 332.988 849.256 335.231C851.078 335.851 851.215 336.066 852.066 337.761L850.608 339.347C843.356 342.209 813.991 340.388 804.362 340.351C804.344 348.9 802.249 386.626 807.213 391.712C810.615 395.199 828.319 393.486 833.224 393.402C841.017 393.439 850.88 392.143 858.381 393.602C860.029 395.604 859.511 396.625 859.411 399.156C858.058 400.427 857.058 400.363 855.246 400.542C845.799 401.474 819.762 401.696 811.084 400.029C807.081 399.26 802.79 397.829 799.727 395.042C794.299 390.102 796.549 344.458 796.56 335.092L812.79 334.811Z" fill="#71B107"/>
<path d="M918.054 271.425C918.672 271.371 919.293 271.362 919.913 271.344C939.406 270.786 954.094 277.134 968.208 290.399C966.329 292.088 964.214 293.501 962.162 294.971C953.626 286.916 944.294 281.115 932.538 279.193C916.61 276.59 901.594 280.276 888.518 289.556C883.318 293.826 878.718 298.93 875.419 304.81C871.991 310.92 869.485 325.436 863.741 328.82L862.219 328.351C861.33 326.855 860.893 325.724 860.725 323.97C859.745 313.769 868.208 300.02 874.538 292.483C885.949 278.897 900.731 273.052 918.054 271.425Z" fill="#71B107"/>
<path fill-rule="evenodd" clip-rule="evenodd" d="M1477.74 407.024C1479.09 407 1480.54 406.928 1482.04 406.853C1487.53 406.58 1493.73 406.273 1498.33 408.136C1505.11 410.881 1504.68 414.24 1504.2 417.934C1504 419.483 1503.79 421.091 1504.1 422.738C1504.33 423.898 1505.13 425.28 1505.93 426.644L1505.93 426.646C1506.54 427.677 1507.13 428.697 1507.46 429.602C1508.47 432.358 1506.93 435.341 1505.62 437.888C1505.44 438.238 1505.27 438.58 1505.1 438.912C1498.6 443.479 1490.14 443.154 1482.26 442.851C1480.72 442.792 1479.2 442.734 1477.72 442.713L1477.74 407.024ZM1486.6 428.184C1486.83 428.174 1487.05 428.164 1487.28 428.153C1490.68 427.994 1494.15 427.832 1497.39 428.946C1499.11 430.679 1499.13 430.924 1499.34 432.896C1499.35 433.066 1499.37 433.248 1499.39 433.445C1499.02 433.524 1498.61 433.617 1498.17 433.716C1494.88 434.457 1490 435.557 1487.51 433.862C1486.08 432.881 1485.8 431.173 1485.53 429.49C1485.49 429.235 1485.44 428.98 1485.4 428.729C1485.37 428.563 1485.34 428.398 1485.3 428.236C1485.73 428.222 1486.17 428.204 1486.6 428.184ZM1488.91 415.186C1488.66 415.189 1488.4 415.191 1488.15 415.192L1486.36 415.751L1486.09 418.939C1488.62 420.441 1492.09 420.26 1495 420.109C1495.15 420.101 1495.3 420.094 1495.44 420.086L1496.28 417.377C1495.24 415.785 1495.18 415.771 1493.32 415.425C1491.88 415.157 1490.38 415.172 1488.91 415.186Z" fill="#548400"/>
<path fill-rule="evenodd" clip-rule="evenodd" d="M1523.4 406.788C1521.58 406.88 1519.87 406.968 1518.35 406.983C1518.34 408.789 1518.21 411.062 1518.08 413.595C1517.57 423.168 1516.87 436.443 1520.71 442.166C1522.58 443.041 1522.6 443.035 1524.33 442.47C1524.45 442.43 1524.58 442.388 1524.71 442.343C1527.35 439.075 1527.05 434.092 1526.78 429.745C1526.73 428.862 1526.68 428.005 1526.65 427.194L1541.29 442.424L1541.51 442.433C1543.68 442.519 1544.18 442.539 1546.26 441.427C1546.38 441.197 1546.49 440.986 1546.6 440.787C1547.18 439.693 1547.57 438.966 1547.19 437.507C1546.87 436.249 1545.93 435.188 1545.01 434.151C1543.5 432.445 1542.05 430.803 1543.46 428.457C1544.2 427.231 1545.09 426.229 1545.95 425.268C1547.85 423.13 1549.57 421.197 1548.96 417.463C1548.44 414.285 1546.61 410.968 1543.87 409.207C1538.89 406 1530.36 406.434 1523.4 406.788ZM1528.79 415.223C1528.03 415.261 1527.3 415.298 1526.6 415.313C1526.61 415.794 1526.6 416.241 1526.6 416.664C1526.58 418.888 1526.56 420.431 1527.96 422.666C1531.15 424.464 1536.13 423.384 1539.68 422.616L1540.03 422.539C1540.04 422.219 1540.05 421.925 1540.06 421.651C1540.11 419.608 1540.14 418.71 1538.9 416.594C1536.18 414.851 1532.25 415.048 1528.79 415.223Z" fill="#548400"/>
<path d="M1503.68 325.137C1506.09 325.05 1508.01 324.982 1510.32 325.769C1511 327.197 1508.67 343.036 1509.35 347.795C1510.74 357.681 1515.58 366.794 1523.68 372.777C1531.52 378.565 1541.84 380.826 1551.43 379.306C1558.42 378.198 1566.07 374.133 1570.3 368.385C1572.55 369.711 1574.55 371.121 1575.41 373.564L1573.55 375.022C1572.34 377.874 1568.04 380.407 1565.42 381.949C1556.16 387.387 1542.67 387.709 1532.53 384.893C1531.85 384.706 1531.16 384.501 1530.48 384.28C1529.8 384.058 1529.13 383.819 1528.47 383.564C1527.81 383.308 1527.15 383.036 1526.49 382.747C1525.84 382.458 1525.2 382.152 1524.56 381.831C1523.92 381.51 1523.29 381.172 1522.67 380.819C1522.05 380.466 1521.44 380.097 1520.84 379.712C1520.24 379.328 1519.65 378.929 1519.07 378.515C1518.49 378.101 1517.92 377.672 1517.36 377.229C1516.8 376.786 1516.26 376.33 1515.72 375.859C1515.18 375.388 1514.66 374.904 1514.15 374.407C1513.64 373.91 1513.14 373.401 1512.65 372.878C1512.17 372.356 1511.69 371.822 1511.23 371.275C1510.78 370.729 1510.34 370.172 1509.9 369.603C1509.48 369.034 1509.06 368.455 1508.65 367.865C1508.25 367.276 1507.87 366.676 1507.5 366.067C1507.13 365.458 1506.77 364.839 1506.43 364.212C1499.99 352.306 1499.76 337.877 1503.68 325.137Z" fill="url(#paint10_linear_0_1)"/>
<path d="M807.226 273.798C818.7 272.8 847.708 272.319 858.611 273.899C859.71 275.574 859.312 277.598 859.225 279.514C853.027 284.709 816.091 275.418 805.428 283.57C805.228 283.723 805.033 283.883 804.836 284.039C803.869 292.048 806.456 322.83 802.548 327.873C800.562 327.879 798.786 328.413 797.309 327.019C795.684 317.842 795.186 291.146 798.096 281.902C799.491 277.47 803.349 275.76 807.226 273.798Z" fill="#71B107"/>
<path d="M1627.53 296.33C1639.04 295.638 1650.71 296.97 1660.41 303.844C1664.2 306.533 1668.97 311.098 1669.74 315.837C1671.52 311.991 1670.93 308.469 1670.87 304.365C1670.83 301.622 1671.23 299.79 1673.18 297.788C1675.43 297.349 1675.35 297.309 1677.32 298.473C1677.96 299.673 1678.48 300.916 1678.7 302.264C1679.41 306.496 1678.71 316.237 1676.3 319.807C1672.6 319.665 1668.89 319.542 1665.18 319.437C1662.57 315.626 1659.74 312.171 1655.56 310.02C1655.36 309.678 1655.2 309.304 1654.95 308.995C1652.58 306.079 1645.79 304.134 1642.21 303.575C1632.59 302.072 1618.58 304.137 1611.01 310.778C1608.4 313.067 1606.56 316.593 1603.71 318.517C1601.5 320.013 1599.1 319.58 1596.65 319.027C1596.29 317.012 1597.6 314.768 1598.74 313.082C1605.67 302.809 1615.83 298.563 1627.53 296.33Z" fill="#71B107"/>
<path d="M1571.88 406.689C1574.08 406.393 1576.18 406.148 1578.14 407.428C1583.67 411.046 1587.58 425.373 1589.13 431.804C1589.82 434.7 1590.7 439.165 1588.83 441.727C1588.01 442.864 1587.63 442.632 1586.34 442.885C1583.42 441.626 1583.07 438.399 1581.15 436.116C1579.62 434.306 1578.24 434.752 1576.03 434.635C1573.72 434.59 1571.42 434.693 1569.1 434.788C1567.95 437.389 1566.51 440.504 1563.69 441.624C1561.6 442.452 1560.85 442.314 1558.94 441.312C1558.69 440.527 1558.49 440.008 1558.57 439.171C1559.12 433.116 1567.38 410.6 1571.88 406.689Z" fill="#548400"/>
<path d="M1613.02 406.71C1616.35 406.425 1621.22 406.312 1624.11 408.256C1626.23 409.681 1627.02 411.211 1627.55 413.597C1623.79 418.797 1614.73 412.557 1609.87 416.444C1612.1 420.788 1622.67 420.827 1627.01 423.614C1628.85 424.801 1630.11 426.425 1630.37 428.642C1630.73 431.664 1629.29 435.608 1627.38 437.938C1624.11 441.933 1620.35 442.563 1615.54 443.006C1614.29 443.015 1613.03 442.905 1611.78 442.78C1608.77 442.481 1605.46 441.854 1603.62 439.165C1602.38 437.365 1602.31 436.41 1602.68 434.349C1607.9 431.256 1614.7 436.983 1619.77 433.465C1621 432.616 1620.73 432.658 1620.99 431.376C1618.35 428.641 1613.14 427.681 1609.64 426.146C1606.34 424.698 1602.61 422.903 1601.41 419.199C1600.63 416.801 1601.41 414.246 1602.65 412.147C1604.76 408.562 1609.27 407.624 1613.02 406.71Z" fill="#548400"/>
<path d="M1540.85 296.171C1542.22 296.086 1543.59 296.034 1544.96 296.015C1557.13 295.879 1567.32 300.277 1575.93 308.738C1575.38 310.805 1572.07 312.461 1570.36 313.478C1569.54 312.546 1568.69 311.676 1567.74 310.861C1558.96 303.273 1548.27 302.628 1537.26 303.737C1526.58 306.25 1522.87 311.551 1514.7 317.992C1512.63 319.625 1511.23 319.715 1508.75 319.404L1507.82 317.936C1508.13 315.502 1509.34 313.896 1510.8 312.006C1518.64 301.857 1528.49 297.879 1540.85 296.171Z" fill="#71B107"/>
<path d="M1477.86 325.16C1480.34 325.162 1482.78 324.815 1484.87 326.337C1486.79 335.712 1485.27 372.832 1485.25 385.042C1482.7 385.108 1480.57 385.021 1478.1 384.347C1476.15 369.26 1477.63 341.154 1477.86 325.16Z" fill="#71B107"/>
<path d="M1661.54 407.559C1662.91 407.363 1664.31 407.3 1665.69 407.19C1667.51 408.43 1668 409.113 1668.6 411.255C1670.14 416.706 1670.08 429.367 1667.49 434.396C1672.78 434.29 1680.55 433.387 1685.41 435.543C1687 436.25 1687.08 436.716 1687.69 438.224C1686.79 440.081 1685.86 440.891 1684.22 442.118C1679.72 444.083 1665.02 442.798 1659.43 442.769C1663.7 432.242 1658.12 418.525 1661.54 407.559Z" fill="#548400"/>
<path d="M1098.55 320.46L1099.98 317.404C1104.33 315.675 1110.84 315.953 1115.52 316.004C1121.72 316.071 1128.62 315.194 1133.15 319.844L1132.69 325.017C1128.57 327.622 1108.39 326.687 1103.66 325.426C1100.98 324.714 1100.08 323.233 1098.79 320.92C1098.7 320.769 1098.63 320.613 1098.55 320.46Z" fill="#71B107"/>
<path d="M1098.55 320.46L1099.98 317.404C1104.33 315.675 1110.84 315.953 1115.52 316.004C1121.72 316.071 1128.62 315.194 1133.15 319.844C1121.89 321.209 1109.93 320.253 1098.55 320.46Z" fill="#71B107"/>
<path d="M1641.15 407.559C1642.29 407.344 1643.61 407.007 1644.77 407.054C1645.94 407.103 1646.78 407.76 1647.42 408.684C1651 413.81 1649.68 432.313 1648.61 438.361C1648.19 440.723 1647.57 440.8 1645.68 442.141C1645.58 442.192 1645.49 442.273 1645.38 442.294C1643.44 442.666 1643.23 442.43 1641.72 441.317C1638.69 434.483 1639.79 415.04 1641.15 407.559Z" fill="#548400"/>
<path d="M1477.65 297.537C1477.85 297.531 1478.04 297.522 1478.24 297.521C1481.14 297.5 1482.5 297.208 1484.61 299.281C1486.63 305.498 1484.96 312.81 1484.26 319.233C1482.71 319.439 1481.2 319.388 1479.64 319.359C1476.05 315.705 1477.62 302.921 1477.65 297.537Z" fill="#71B107"/>
<path d="M702.35 651.09C702.43 651.045 702.51 651.001 702.59 650.96C702.67 650.918 702.753 650.878 702.84 650.841C702.92 650.804 703.003 650.768 703.09 650.735C703.177 650.702 703.263 650.67 703.35 650.641C703.437 650.612 703.523 650.586 703.61 650.561C703.697 650.536 703.783 650.514 703.87 650.493C703.963 650.473 704.053 650.455 704.14 650.439C704.233 650.423 704.323 650.409 704.41 650.397C704.503 650.386 704.597 650.376 704.69 650.369C704.777 650.362 704.867 650.358 704.96 650.355C705.053 650.352 705.143 650.352 705.23 650.354C705.323 650.356 705.417 650.36 705.51 650.367C705.597 650.373 705.687 650.382 705.78 650.393C705.873 650.404 705.963 650.417 706.05 650.432C706.143 650.447 706.233 650.465 706.32 650.485C706.407 650.505 706.493 650.527 706.58 650.551C706.673 650.576 706.763 650.602 706.85 650.63C706.937 650.659 707.02 650.689 707.1 650.722C707.187 650.755 707.273 650.79 707.36 650.827C707.44 650.864 707.523 650.902 707.61 650.943C707.69 650.984 707.77 651.027 707.85 651.072C707.93 651.117 708.007 651.164 708.08 651.213C708.16 651.262 708.237 651.312 708.31 651.365C708.383 651.418 708.457 651.472 708.53 651.528C708.603 651.585 708.673 651.643 708.74 651.702C708.813 651.762 708.88 651.823 708.94 651.886C709.007 651.949 709.073 652.014 709.14 652.08C709.2 652.146 709.26 652.214 709.32 652.283C709.38 652.352 709.437 652.423 709.49 652.495C709.55 652.567 709.607 652.64 709.66 652.715C709.713 652.79 709.763 652.866 709.81 652.943C709.857 653.02 709.903 653.099 709.95 653.178C709.997 653.257 710.04 653.338 710.08 653.42C710.12 653.501 710.16 653.584 710.2 653.667C710.233 653.751 710.267 653.836 710.3 653.921C710.333 654.006 710.363 654.091 710.39 654.178C710.417 654.265 710.443 654.353 710.47 654.441C710.497 654.529 710.52 654.617 710.54 654.706C710.56 654.795 710.577 654.885 710.59 654.975C710.603 655.065 710.617 655.155 710.63 655.246C710.637 655.337 710.643 655.428 710.65 655.519C710.657 655.61 710.663 655.701 710.67 655.792C710.67 655.883 710.667 655.975 710.66 656.066C710.66 656.157 710.657 656.248 710.65 656.339C710.643 656.43 710.633 656.521 710.62 656.611C710.607 656.702 710.593 656.792 710.58 656.882C710.567 656.972 710.55 657.061 710.53 657.15C710.51 657.239 710.487 657.328 710.46 657.416C710.433 657.503 710.407 657.59 710.38 657.677C710.347 657.764 710.313 657.849 710.28 657.934C710.247 658.019 710.213 658.104 710.18 658.187C710.14 658.27 710.1 658.352 710.06 658.433C710.02 658.514 709.977 658.595 709.93 658.674C709.883 658.753 709.837 658.831 709.79 658.908C709.737 658.985 709.683 659.06 709.63 659.135C709.577 659.209 709.523 659.282 709.47 659.353C709.41 659.425 709.35 659.495 709.29 659.564C709.23 659.633 709.17 659.7 709.11 659.765C709.043 659.831 708.977 659.895 708.91 659.958C708.843 660.02 708.777 660.081 708.71 660.14C708.637 660.199 708.567 660.256 708.5 660.312C708.427 660.367 708.35 660.421 708.27 660.473C708.197 660.525 708.123 660.575 708.05 660.623C707.97 660.672 707.89 660.718 707.81 660.762C707.73 660.806 707.65 660.848 707.57 660.888C707.49 660.928 707.407 660.966 707.32 661.002C707.24 661.038 707.157 661.072 707.07 661.104C706.99 661.136 706.907 661.166 706.82 661.193C706.733 661.221 706.647 661.247 706.56 661.27C706.467 661.293 706.377 661.315 706.29 661.334C706.203 661.353 706.117 661.37 706.03 661.385C705.937 661.4 705.847 661.412 705.76 661.423C705.667 661.434 705.577 661.442 705.49 661.448C705.397 661.454 705.307 661.458 705.22 661.459C705.127 661.461 705.033 661.461 704.94 661.458C704.853 661.455 704.763 661.45 704.67 661.443C704.583 661.436 704.493 661.426 704.4 661.415C704.313 661.403 704.227 661.389 704.14 661.373C704.047 661.357 703.957 661.339 703.87 661.319C703.783 661.299 703.697 661.277 703.61 661.252C703.523 661.227 703.437 661.201 703.35 661.172C703.263 661.143 703.177 661.112 703.09 661.079C703.01 661.046 702.927 661.011 702.84 660.974C702.76 660.937 702.68 660.898 702.6 660.857C702.52 660.816 702.44 660.773 702.36 660.728C702.28 660.683 702.203 660.637 702.13 660.588C702.05 660.539 701.973 660.489 701.9 660.436C701.827 660.384 701.753 660.33 701.68 660.274C701.613 660.218 701.547 660.16 701.48 660.101C701.407 660.042 701.34 659.981 701.28 659.918C701.213 659.855 701.147 659.791 701.08 659.726C701.02 659.66 700.96 659.593 700.9 659.524C700.84 659.455 700.783 659.385 700.73 659.314C700.677 659.243 700.623 659.17 700.57 659.096C700.517 659.022 700.467 658.947 700.42 658.87C700.373 658.793 700.327 658.716 700.28 658.637C700.233 658.558 700.19 658.479 700.15 658.398C700.11 658.317 700.073 658.235 700.04 658.152C700 658.069 699.963 657.986 699.93 657.901C699.897 657.817 699.867 657.732 699.84 657.646C699.813 657.56 699.787 657.473 699.76 657.386C699.74 657.299 699.72 657.211 699.7 657.123C699.68 657.035 699.66 656.946 699.64 656.857C699.627 656.768 699.613 656.678 699.6 656.588C699.593 656.499 699.587 656.409 699.58 656.318C699.573 656.228 699.567 656.138 699.56 656.047C699.56 655.957 699.56 655.867 699.56 655.776C699.567 655.685 699.573 655.595 699.58 655.505C699.587 655.415 699.593 655.325 699.6 655.235C699.613 655.145 699.627 655.055 699.64 654.966C699.66 654.877 699.677 654.789 699.69 654.7C699.71 654.612 699.733 654.524 699.76 654.437C699.787 654.35 699.813 654.263 699.84 654.177C699.867 654.091 699.897 654.006 699.93 653.921C699.963 653.837 699.997 653.753 700.03 653.67C700.07 653.587 700.11 653.506 700.15 653.425C700.19 653.344 700.23 653.264 700.27 653.185C700.317 653.106 700.363 653.029 700.41 652.952C700.463 652.875 700.513 652.8 700.56 652.726C700.613 652.651 700.667 652.578 700.72 652.507C700.78 652.436 700.84 652.366 700.9 652.297C700.953 652.228 701.013 652.16 701.08 652.095C701.14 652.029 701.203 651.965 701.27 651.902C701.33 651.839 701.397 651.778 701.47 651.719C701.537 651.66 701.607 651.602 701.68 651.546C701.747 651.49 701.817 651.436 701.89 651.383C701.963 651.33 702.04 651.28 702.12 651.231C702.193 651.182 702.27 651.135 702.35 651.09Z" fill="#71B107"/>
<defs>
<linearGradient id="paint0_linear_0_1" x1="226.428" y1="430.411" x2="320.048" y2="438.818" gradientUnits="userSpaceOnUse">
<stop stop-color="#54B51A"/>
<stop offset="1" stop-color="#93D84D"/>
</linearGradient>
<linearGradient id="paint1_linear_0_1" x1="343.502" y1="405.935" x2="363.205" y2="459.588" gradientUnits="userSpaceOnUse">
<stop stop-color="#A4E631"/>
<stop offset="1" stop-color="#D7F69E"/>
</linearGradient>
<linearGradient id="paint2_linear_0_1" x1="313.941" y1="457.663" x2="364.78" y2="430.679" gradientUnits="userSpaceOnUse">
<stop stop-color="#29910D"/>
<stop offset="1" stop-color="#93D551"/>
</linearGradient>
<linearGradient id="paint3_linear_0_1" x1="104.123" y1="510.794" x2="346.101" y2="401.732" gradientUnits="userSpaceOnUse">
<stop stop-color="#1A580C"/>
<stop offset="1" stop-color="#5B8751"/>
</linearGradient>
<linearGradient id="paint4_linear_0_1" x1="228.816" y1="484.306" x2="223.096" y2="375.803" gradientUnits="userSpaceOnUse">
<stop stop-color="#59B71B"/>
<stop offset="1" stop-color="#A8E35F"/>
</linearGradient>
<linearGradient id="paint5_linear_0_1" x1="308.909" y1="340.837" x2="416.797" y2="284.19" gradientUnits="userSpaceOnUse">
<stop stop-color="#648D5F"/>
<stop offset="1" stop-color="#9FC372"/>
</linearGradient>
<linearGradient id="paint6_linear_0_1" x1="194.255" y1="304.994" x2="307.27" y2="308.86" gradientUnits="userSpaceOnUse">
<stop stop-color="#98D561"/>
<stop offset="1" stop-color="#DCFDAA"/>
</linearGradient>
<linearGradient id="paint7_linear_0_1" x1="1026.87" y1="400.375" x2="1027.47" y2="336.423" gradientUnits="userSpaceOnUse">
<stop stop-color="#67A101"/>
<stop offset="1" stop-color="#7BBF05"/>
</linearGradient>
<linearGradient id="paint8_linear_0_1" x1="1633.62" y1="384.145" x2="1634.42" y2="326.144" gradientUnits="userSpaceOnUse">
<stop stop-color="#68A201"/>
<stop offset="1" stop-color="#7BBF04"/>
</linearGradient>
<linearGradient id="paint9_linear_0_1" x1="911.601" y1="400.282" x2="912.117" y2="337.36" gradientUnits="userSpaceOnUse">
<stop stop-color="#67A200"/>
<stop offset="1" stop-color="#7BBF05"/>
</linearGradient>
<linearGradient id="paint10_linear_0_1" x1="1537.54" y1="384.042" x2="1537.85" y2="326.868" gradientUnits="userSpaceOnUse">
<stop stop-color="#67A201"/>
<stop offset="1" stop-color="#7BBF03"/>
</linearGradient>
</defs>
</svg>
