<svg width="893" height="807" viewBox="0 0 893 807" fill="none" xmlns="http://www.w3.org/2000/svg">
<rect width="893" height="807" fill="#F5F5F5"/>
<path d="M317.873 150.399C414.114 105.203 519.89 112.641 617.92 147.973C632.73 153.311 647.99 159.036 662.07 166.111L666.36 167.809L674.8 171.663C647.35 172.886 615 175.329 595.23 196.866C577.16 216.545 569.88 248.807 560.96 273.514C558.25 281.019 555.51 289.642 551.18 296.387C538.56 329.617 511.191 372.849 485.07 397.012C466.691 416.403 437.514 441.982 413.102 452.783C354.374 487.409 281.168 493.795 215.872 476.943C207.923 474.945 200.103 472.528 192.412 469.691C186.964 479.397 181.662 489 177.361 499.275C174.135 506.98 171.637 515.077 168.298 522.695L168.245 525.126C160.855 540.345 158.189 586.162 149.535 594.845C148.137 596.249 147.315 595.846 145.522 595.747C144.657 595.186 143.904 594.699 143.349 593.805C136.265 582.398 148.086 537.923 151.436 525.268L152.694 522.702C158.316 499.201 170.729 475.9 180.523 453.778C171.184 426.284 164.027 398.191 162.532 369.079C159.503 310.109 181.195 262.47 220.156 219.235C231.928 200.893 272.201 172.988 291.376 163.786C299.948 158.919 308.705 154.047 317.873 150.399Z" fill="#BBED6E"/>
<path d="M363.847 253.114L366.064 253.864C364.148 256.76 342.759 272.883 338.26 276.747C327.769 285.756 317.768 294.922 308.15 304.871C308.329 312.367 306.934 341.809 304.437 347.7C307.946 346.241 310.555 343.004 314.029 341.166C317.045 339.57 319.529 337.12 322.63 335.623C333.723 330.27 344.69 331.89 356.229 329.947C358.74 329.524 360.569 330.057 362.611 331.597C362.871 331.794 363.121 332.002 363.376 332.204C361.156 331.952 358.076 330.98 356.23 332.232L356.652 333.095C357.798 335.475 358.504 337.086 358.112 339.807C356.545 343.061 353.667 344.505 350.611 346.168L349.878 346.203C350.178 346.407 350.472 346.62 350.776 346.817C351.75 347.445 352.375 347.556 353.495 347.692C358.738 348.327 363.691 351.663 366.834 355.777C371.097 361.358 372.617 367.983 371.588 374.894C369.543 388.625 359.386 401.858 348.407 409.845C347.485 410.514 346.552 411.167 345.608 411.804C352.133 410.729 358.016 407.76 363.891 404.873L361.515 408.466C362.22 410.391 362.593 410.52 364.186 411.696C361.351 413.561 358.525 415.588 355.581 417.266C354.462 419.616 353.231 420.171 350.79 421.084C341.538 424.546 323.13 426.998 314.027 422.579C309.478 420.37 304.623 417.243 299.771 415.896L299.626 416.855C299.483 417.75 299.254 418.494 298.966 419.346C296.828 425.669 297.616 434.006 296.313 440.661C295.36 445.526 293.544 463.181 294.188 467.524C302.758 472.821 339.267 459.206 345.361 463.238C337.858 466.054 327.738 466.713 319.785 467.789C278.481 473.379 237.767 472.377 198.516 457.351C201.945 449.604 205.568 441.95 209.387 434.388C213.206 426.826 217.215 419.366 221.414 412.009C225.613 404.652 229.997 397.406 234.566 390.272C239.135 383.138 243.883 376.125 248.809 369.234C256.739 358.239 265.891 348.133 273.748 337.105C282.968 329.168 291.36 317.814 299.823 308.923C309.733 298.783 320.032 289.055 330.72 279.738C341.407 270.422 352.45 261.547 363.847 253.114Z" fill="url(#paint0_linear_0_1)"/>
<path d="M349.878 346.203C350.178 346.407 350.472 346.62 350.776 346.817C351.75 347.445 352.375 347.556 353.495 347.692C358.738 348.327 363.691 351.663 366.834 355.777C371.097 361.358 372.617 367.983 371.588 374.894C369.543 388.625 359.386 401.858 348.407 409.845C347.485 410.514 346.552 411.167 345.608 411.804C336.82 413.763 328.34 414.449 319.53 412.079C308.134 409.012 299.71 401.841 293.937 391.684C293.859 382.366 296.299 374.771 301.605 367.014C304.297 363.079 307.661 359.213 312.539 358.254C311.538 359.52 310.478 360.247 310.534 361.906C319.549 361.397 338.456 352.913 346.34 348.555C345.455 348.295 344.743 348.014 343.914 347.589C343.638 347.447 343.365 347.296 343.091 347.15L349.878 346.203Z" fill="url(#paint1_linear_0_1)"/>
<path d="M299.821 355.13C306.154 348.352 313.378 342.56 321.651 338.3C327.043 335.523 338.136 330.901 344.094 332.767C341.825 334.389 340.434 335.324 339.427 337.978C339.255 341.631 340.988 344.291 343.091 347.15C343.365 347.296 343.638 347.447 343.914 347.589C344.743 348.014 345.455 348.295 346.34 348.555C338.456 352.913 319.549 361.397 310.534 361.906C310.478 360.247 311.538 359.52 312.539 358.254C307.661 359.213 304.297 363.079 301.605 367.014C296.299 374.771 293.859 382.366 293.937 391.684C293.144 389.897 292.316 388.062 291.825 386.165C288.923 374.946 294.354 364.547 299.821 355.13Z" fill="#A3E624"/>
<path d="M325.956 338.783C327.639 338.726 330.122 338.494 331.693 339.159C333.298 339.839 333.358 340.542 333.959 342.037C333.221 344.85 331.632 345.988 329.5 347.743C327.364 348.137 325.707 348.157 323.561 347.823C321.716 346.371 321.619 346.563 321.312 344.08C322.259 341.414 323.731 340.436 325.956 338.783Z" fill="#E2FCB3"/>
<path d="M355.581 417.266C346.657 420.742 337.221 423.427 327.557 422.989C315.708 422.451 303.824 418.25 295.725 409.3C295.306 408.845 294.898 408.38 294.503 407.905C294.108 407.43 293.725 406.944 293.354 406.449C292.983 405.954 292.625 405.45 292.28 404.937C291.935 404.424 291.604 403.902 291.285 403.372C290.967 402.841 290.663 402.303 290.372 401.758C290.081 401.212 289.805 400.659 289.542 400.099C289.279 399.539 289.031 398.973 288.797 398.4C288.564 397.827 288.345 397.249 288.14 396.666C287.936 396.082 287.747 395.493 287.573 394.9C287.399 394.307 287.24 393.709 287.097 393.107C286.953 392.506 286.825 391.901 286.712 391.293C286.599 390.684 286.502 390.074 286.421 389.461C286.34 388.848 286.274 388.233 286.223 387.617C286.173 387 286.139 386.383 286.12 385.765C286.101 385.146 286.099 384.528 286.112 383.91C286.125 383.291 286.153 382.674 286.198 382.057C286.895 371.854 292.13 361.815 299.821 355.13C294.354 364.547 288.923 374.946 291.825 386.165C292.316 388.062 293.144 389.897 293.937 391.684C299.71 401.841 308.134 409.012 319.53 412.079C328.34 414.449 336.82 413.763 345.608 411.804C352.133 410.729 358.016 407.76 363.891 404.873L361.515 408.466C362.22 410.391 362.593 410.52 364.186 411.696C361.351 413.561 358.525 415.588 355.581 417.266Z" fill="url(#paint2_linear_0_1)"/>
<path d="M344.094 332.767C346.771 332.505 347.434 331.984 349.637 333.659C351.24 336.352 352.069 341.624 351.257 344.715C351.134 345.183 350.812 345.761 350.611 346.168L349.878 346.203L343.091 347.15C340.988 344.291 339.255 341.631 339.427 337.978C340.434 335.324 341.825 334.389 344.094 332.767Z" fill="#E2FCB3"/>
<path d="M220.156 219.235C219.945 222.597 200.918 248.927 197.258 255.433C181.866 282.788 169.84 317.258 170.992 349.016C172.063 348.451 172.106 348.098 172.726 347.098C175.714 346.627 178.757 348.907 181.331 350.287C182.102 342.084 182.181 332.351 185.576 324.8C186.797 330.725 190.486 335.343 194.91 339.308C203.129 346.674 213.848 350.966 224.941 350.167C244.381 348.768 247.58 336.276 259.078 323.344C260.906 321.288 262.408 319.068 265.208 318.888C273.852 309.535 282.774 300.456 291.973 291.65C294.281 297.234 298.058 303.355 299.823 308.923C291.36 317.814 282.968 329.168 273.748 337.105C265.891 348.133 256.739 358.239 248.809 369.234C243.883 376.125 239.135 383.138 234.566 390.272C229.997 397.406 225.613 404.652 221.414 412.009C217.215 419.366 213.206 426.826 209.387 434.388C205.568 441.95 201.945 449.604 198.516 457.351C237.767 472.377 278.481 473.379 319.785 467.789C327.738 466.713 337.858 466.054 345.361 463.238C366.935 460.226 387.597 451.401 407.428 442.78C407.253 443.03 407.088 443.287 406.903 443.53C401.979 450.021 381.959 452.091 375.692 457.623L375.869 458.537C376.343 461.107 376.729 464.156 376.906 466.744C376.929 467.084 376.897 467.425 376.892 467.766C389.373 463.946 401.141 457.855 412.56 451.608L413.102 452.783C354.374 487.409 281.168 493.795 215.872 476.943C207.923 474.945 200.103 472.528 192.412 469.691C186.964 479.397 181.662 489 177.361 499.275C174.135 506.98 171.637 515.077 168.298 522.695L168.245 525.126C160.855 540.345 158.189 586.162 149.535 594.845C148.137 596.249 147.315 595.846 145.522 595.747C144.657 595.186 143.904 594.699 143.349 593.805C136.265 582.398 148.086 537.923 151.436 525.268L152.694 522.702C158.316 499.201 170.729 475.9 180.523 453.778C171.184 426.284 164.027 398.191 162.532 369.079C159.503 310.109 181.195 262.47 220.156 219.235Z" fill="url(#paint3_linear_0_1)"/>
<path d="M185.576 324.8C186.797 330.725 190.486 335.343 194.91 339.308C203.129 346.674 213.848 350.966 224.941 350.167C244.381 348.768 247.58 336.276 259.078 323.344C260.906 321.288 262.408 319.068 265.208 318.888L263.533 321.491C256.58 328.084 250.51 336.265 244.699 343.856C238.952 351.268 233.451 358.859 228.197 366.628C222.943 374.397 217.947 382.329 213.208 390.423C208.469 398.518 203.998 406.757 199.795 415.142C195.592 423.527 191.666 432.04 188.016 440.68C176.832 412.538 168.893 379.49 170.992 349.016C172.063 348.451 172.106 348.098 172.726 347.098C175.714 346.627 178.757 348.907 181.331 350.287C182.102 342.084 182.181 332.351 185.576 324.8Z" fill="url(#paint4_linear_0_1)"/>
<path d="M265.208 318.888C273.852 309.535 282.774 300.456 291.973 291.65C294.281 297.234 298.058 303.355 299.823 308.923C291.36 317.814 282.968 329.168 273.748 337.105C275.507 331.432 281.952 325.787 285.905 321.428C284.761 316.01 282.018 310.934 279.922 305.821C274.587 310.975 270.155 317.979 263.533 321.491L265.208 318.888Z" fill="#7CA364"/>
<path d="M317.873 150.399C414.114 105.203 519.89 112.641 617.92 147.973C632.73 153.311 647.99 159.036 662.07 166.111C652.41 165.467 641.98 161.395 632.36 159.625C610.15 155.542 587.26 155.119 564.79 156.586L560.66 156.11C564.14 154.942 598.24 153.874 600.98 154.791C602.95 155.452 604.05 155.93 606.08 155.196C604.51 152.82 600.27 149.088 597.57 148.293C584.98 144.584 550.04 146.657 535.22 146.589L405.094 145.809C389.612 145.68 374.127 145.109 358.633 144.943C352.436 144.877 346.076 144.313 339.896 144.769C333.054 145.275 325.164 148.108 319.114 151.215L318.403 151.586L317.873 150.399Z" fill="#8FD44A"/>
<path d="M291.973 291.65C321.533 261.119 359.603 234.326 396.303 212.987C401.844 209.765 407.828 207.249 413.479 204.215C422.722 199.252 433.863 192.191 444.031 189.589L444.226 190.343C437.804 194.69 429.73 195.592 423.537 200.08C413.252 207.536 400.126 210.222 390.52 218.796C391.521 222.607 392.566 226.15 394.218 229.735L395.54 229.782C409.869 219.224 427.016 212.334 442.212 203.158C445.165 201.375 456.339 196.135 458.968 196.716L459.061 197.893C454.942 203.11 418.532 218.356 410.075 222.685C393.901 230.964 378.321 242.202 363.847 253.114C352.45 261.547 341.407 270.422 330.72 279.738C320.032 289.055 309.733 298.783 299.823 308.923C298.058 303.355 294.281 297.234 291.973 291.65Z" fill="url(#paint5_linear_0_1)"/>
<path d="M220.156 219.235C231.928 200.893 272.201 172.988 291.376 163.786L291.655 165.602C278.516 178.733 263.099 189.614 249.585 202.444C216.938 233.436 191.146 278.936 185.497 324.004C185.464 324.268 185.55 324.535 185.576 324.8C182.181 332.351 182.102 342.084 181.331 350.287C178.757 348.907 175.714 346.627 172.726 347.098C172.106 348.098 172.063 348.451 170.992 349.016C169.84 317.258 181.866 282.788 197.258 255.433C200.918 248.927 219.945 222.597 220.156 219.235Z" fill="url(#paint6_linear_0_1)"/>
<path d="M480.694 389.949C484.593 384.832 489.628 380.146 493.979 375.348C502.087 366.406 510.013 357.209 517.19 347.497C524.37 337.58 531.217 327.435 537.73 317.063C541.9 310.406 545.9 302.161 551.18 296.387C538.56 329.617 511.191 372.849 485.07 397.012C466.691 416.403 437.514 441.982 413.102 452.783L412.56 451.608C401.141 457.855 389.373 463.946 376.892 467.766C376.897 467.425 376.929 467.084 376.906 466.744C376.729 464.156 376.343 461.107 375.869 458.537L375.692 457.623C381.959 452.091 401.979 450.021 406.903 443.53C407.088 443.287 407.253 443.03 407.428 442.78C416.15 436.572 426.661 432.052 435.798 426.309C452.06 416.085 466.696 403.021 480.694 389.949Z" fill="#7CA364"/>
<path d="M480.694 389.949C484.593 384.832 489.628 380.146 493.979 375.348C502.087 366.406 510.013 357.209 517.19 347.497C524.37 337.58 531.217 327.435 537.73 317.063C541.9 310.406 545.9 302.161 551.18 296.387C538.56 329.617 511.191 372.849 485.07 397.012C487.347 390.805 508.742 367.083 514.12 359.821C517.54 355.21 521.04 350.538 523.99 345.609C526.9 340.745 528.81 336.007 532.33 331.448L532.35 331.446L531.98 331.215C527.3 332.36 495.418 382.828 481.273 389.691C481.083 389.783 480.887 389.863 480.694 389.949Z" fill="#8FD44A"/>
<path d="M350.611 346.168C353.667 344.505 356.545 343.061 358.112 339.807C358.504 337.086 357.798 335.475 356.652 333.095L356.23 332.232C358.076 330.98 361.156 331.952 363.376 332.204C372.791 336.424 379.612 341.315 383.398 351.302C387.298 361.589 385.954 373.535 381.441 383.397C378.481 389.866 374.193 395.397 369.13 400.351C367.493 401.733 365.21 403.229 363.891 404.873C358.016 407.76 352.133 410.729 345.608 411.804C346.552 411.167 347.485 410.514 348.407 409.845C359.386 401.858 369.543 388.625 371.588 374.894C372.617 367.983 371.097 361.358 366.834 355.777C363.691 351.663 358.738 348.327 353.495 347.692C352.375 347.556 351.75 347.445 350.776 346.817C350.472 346.62 350.178 346.407 349.878 346.203L350.611 346.168Z" fill="#A3E624"/>
<path d="M564.79 156.586C587.26 155.119 610.15 155.542 632.36 159.625C641.98 161.395 652.41 165.467 662.07 166.111L666.36 167.809C658.9 169.805 647.39 167.003 639.52 166.196C624.58 164.665 601.86 162.338 587.38 165.565C595.7 167.164 605.28 166.431 613.79 166.564C589.33 166.83 566.34 169.959 542.12 172.772C550.44 168.9 565.69 168.555 574.94 167.123L574.63 166.243C572.35 166.14 569.74 166.331 567.62 165.465C577.41 165.257 587.09 163.505 596.79 163.324C608.46 163.106 621.11 164.957 632.62 163.316C633.86 163.139 633.41 163.424 634.09 162.513C631.66 159.175 627.03 160.541 623.42 160.058C617.77 159.304 612.06 157.841 606.38 157.58C593.32 156.978 577.22 160.202 564.79 156.586Z" fill="#A3E624"/>
<path d="M369.13 400.351C370.122 402.194 370.882 402.816 370.248 404.999C369.46 407.712 366.309 409.951 364.186 411.696C362.593 410.52 362.22 410.391 361.515 408.466L363.891 404.873C365.21 403.229 367.493 401.733 369.13 400.351Z" fill="#8FD44A"/>
<path d="M603.26 176.862L603.39 176.827C598.71 180.643 592.94 183.041 588.27 187.149C584.57 190.394 581.44 194.642 578.41 198.506C560.52 221.354 559.24 241.57 549.04 266.957C515.68 349.91 456.785 415.625 373.957 450.871L372.622 450.779C374.475 447.548 397.999 434.849 403.107 431.392C411.773 425.527 420.172 418.986 428.386 412.504C433.818 408.236 439.116 403.808 444.281 399.22C449.445 394.632 454.466 389.892 459.345 385.001C464.223 380.11 468.949 375.075 473.523 369.898C478.097 364.721 482.511 359.411 486.764 353.967C491.63 347.612 496.278 341.101 500.707 334.434C505.136 327.767 509.337 320.959 513.31 314.01C517.283 307.061 521.02 299.987 524.52 292.788C528.02 285.589 531.273 278.28 534.28 270.863C543.69 247.279 547.88 219.359 564.21 199.305C572.98 188.538 589.36 178.351 603.26 176.862Z" fill="#E2FCB3"/>
<path d="M411.888 328.86C417.772 323.487 424.966 318.945 432.825 317.188C436.099 316.457 440.13 315.747 443.076 317.596C439.922 318.42 435.697 319.199 433.911 322.231C433.34 323.2 433.798 323.651 434.11 324.627C436.28 326.065 438.405 326.797 441.054 326.343C442.88 326.03 444.764 325.073 445.862 323.534C447.046 321.875 446.836 320.95 446.456 319.055L447.108 317.948C451.721 318.645 456.402 322.252 459.235 325.891C462.135 329.615 463.21 334.883 462.437 339.48C461.145 347.161 455.419 353.56 449.129 357.749C447.504 358.844 445.811 359.822 444.051 360.683C441.428 363.06 435.918 365.456 432.387 365.695C429.636 366.563 426.619 366.891 423.736 366.865C417.308 366.808 411.043 364.746 406.602 359.919C406.387 359.684 406.177 359.444 405.974 359.198C405.771 358.952 405.574 358.701 405.384 358.445C405.194 358.189 405.011 357.928 404.834 357.663C404.658 357.397 404.489 357.127 404.326 356.853C404.164 356.578 404.009 356.3 403.861 356.017C403.713 355.734 403.573 355.448 403.44 355.159C403.307 354.869 403.182 354.576 403.065 354.279C402.947 353.982 402.837 353.683 402.735 353.381C402.634 353.079 402.54 352.775 402.453 352.468C402.367 352.161 402.289 351.851 402.219 351.54C402.15 351.229 402.088 350.917 402.034 350.602C401.981 350.287 401.935 349.972 401.898 349.655C401.861 349.338 401.833 349.021 401.812 348.703C401.791 348.385 401.779 348.066 401.775 347.747C401.771 347.428 401.775 347.11 401.788 346.791C401.801 346.472 401.822 346.154 401.851 345.837C402.48 338.54 406.582 333.48 411.888 328.86Z" fill="#A3E624"/>
<path d="M411.888 328.86C409.244 333.507 406.84 337.661 406.712 343.157L410.999 337.186L411.788 337.868C418.487 343.583 438.063 353.059 440.854 360.196C439.981 362.104 439.492 362.81 437.355 363.375C436.266 363.663 435.006 363.667 433.882 363.718L426.444 363.668L432.387 365.695C429.636 366.563 426.619 366.891 423.736 366.865C417.308 366.808 411.043 364.746 406.602 359.919C406.387 359.684 406.177 359.444 405.974 359.198C405.771 358.952 405.574 358.701 405.384 358.445C405.194 358.189 405.011 357.928 404.834 357.663C404.658 357.397 404.489 357.127 404.326 356.853C404.164 356.578 404.009 356.3 403.861 356.017C403.713 355.734 403.573 355.448 403.44 355.159C403.307 354.869 403.182 354.576 403.065 354.279C402.947 353.982 402.837 353.683 402.735 353.381C402.634 353.079 402.54 352.775 402.453 352.468C402.367 352.161 402.289 351.851 402.219 351.54C402.15 351.229 402.088 350.917 402.034 350.602C401.981 350.287 401.935 349.972 401.898 349.655C401.861 349.338 401.833 349.021 401.812 348.703C401.791 348.385 401.779 348.066 401.775 347.747C401.771 347.428 401.775 347.11 401.788 346.791C401.801 346.472 401.822 346.154 401.851 345.837C402.48 338.54 406.582 333.48 411.888 328.86Z" fill="#BBED6E"/>
<path d="M411.888 328.86C409.244 333.507 406.84 337.661 406.712 343.157L406.943 348.196C409.392 354.414 412.547 358.56 418.772 361.331C421.245 362.431 423.814 363.074 426.444 363.668L432.387 365.695C429.636 366.563 426.619 366.891 423.736 366.865C417.308 366.808 411.043 364.746 406.602 359.919C406.387 359.684 406.177 359.444 405.974 359.198C405.771 358.952 405.574 358.701 405.384 358.445C405.194 358.189 405.011 357.928 404.834 357.663C404.658 357.397 404.489 357.127 404.326 356.853C404.164 356.578 404.009 356.3 403.861 356.017C403.713 355.734 403.573 355.448 403.44 355.159C403.307 354.869 403.182 354.576 403.065 354.279C402.947 353.982 402.837 353.683 402.735 353.381C402.634 353.079 402.54 352.775 402.453 352.468C402.367 352.161 402.289 351.851 402.219 351.54C402.15 351.229 402.088 350.917 402.034 350.602C401.981 350.287 401.935 349.972 401.898 349.655C401.861 349.338 401.833 349.021 401.812 348.703C401.791 348.385 401.779 348.066 401.775 347.747C401.771 347.428 401.775 347.11 401.788 346.791C401.801 346.472 401.822 346.154 401.851 345.837C402.48 338.54 406.582 333.48 411.888 328.86Z" fill="#71B107"/>
<path d="M649.53 599.199C655.03 599.188 660 600.258 665.18 602.002L662.47 625.492C652.83 626.031 645.23 626.643 636.6 631.299C640.56 637.193 643.7 643.016 644.74 650.14C646.24 660.39 642.95 671.569 636.8 679.814C624.45 696.364 602.34 699.528 583.01 698.138C578.52 697.815 574.09 696.095 569.61 696.744C567.72 697.779 566.23 698.784 565.06 700.646C563.82 702.622 563.25 704.983 563.83 707.276C567.39 721.467 609.74 717.761 621.85 718.991C630.32 719.851 639.07 721.84 646.48 726.188C653.64 730.391 657.86 737.264 659.76 745.26C662.28 755.857 659.65 767.471 653.92 776.585C644.06 792.24 626.15 800.13 608.78 804.08C589.89 807.5 566.35 807.32 548.66 799.56C540.3 795.89 533.42 790.295 530.17 781.538C527.11 773.285 527.33 763.399 531.08 755.41C535.38 746.272 542.15 741.919 551.33 738.552C549 736.647 546.55 734.639 544.69 732.264C540.76 727.269 538.76 720.577 539.6 714.26C540.93 704.206 547.64 698.175 555.26 692.322C546.02 686.834 538.38 680.728 534.91 670.121C531.81 660.634 533.08 650.132 537.59 641.312C543.21 630.297 553.15 622.847 564.8 619.121C566.047 618.726 567.303 618.362 568.57 618.027C569.83 617.692 571.1 617.388 572.38 617.115C573.66 616.842 574.947 616.599 576.24 616.388C577.527 616.177 578.82 615.996 580.12 615.847C581.42 615.698 582.723 615.581 584.03 615.494C585.337 615.408 586.643 615.353 587.95 615.329C589.257 615.306 590.563 615.314 591.87 615.353C593.177 615.392 594.483 615.463 595.79 615.565C597.09 615.668 598.39 615.801 599.69 615.966C600.983 616.131 602.277 616.327 603.57 616.554C604.857 616.781 606.137 617.039 607.41 617.328C608.69 617.617 609.96 617.936 611.22 618.285C612.48 618.635 613.73 619.015 614.97 619.425C616.21 619.835 617.44 620.275 618.66 620.744C619.88 621.213 621.09 621.712 622.29 622.239C623.483 622.766 624.667 623.322 625.84 623.907C627.03 618.072 628.61 611.905 632.39 607.162C636.96 601.429 642.66 600.017 649.53 599.199Z" fill="#1B1B1B"/>
<path d="M567.7 743.387C581.93 744.289 597.17 743.032 611.18 745.426C616.99 746.42 623.3 748.53 626.72 753.688C629.34 757.641 629.51 762.864 628.46 767.377C626.79 774.535 621.53 778.538 615.66 782.211C606.2 786.423 596.31 787.913 585.96 787.349C576.97 786.859 567.67 784.373 561.59 777.301C557.93 773.049 556.06 767.684 556.58 762.053C557.31 754.084 561.82 748.34 567.7 743.387Z" fill="#F5F5F5"/>
<path d="M573.95 674.88C571.71 673.098 569.78 671.002 568.39 668.482C565.36 662.987 564.52 657.056 566.33 650.989C568.15 644.915 572.47 640.023 578.07 637.154C578.463 636.955 578.863 636.767 579.27 636.588C579.677 636.409 580.087 636.24 580.5 636.081C580.913 635.922 581.333 635.774 581.76 635.636C582.18 635.498 582.603 635.37 583.03 635.253C583.457 635.136 583.887 635.03 584.32 634.934C584.753 634.838 585.19 634.753 585.63 634.679C586.063 634.604 586.5 634.541 586.94 634.488C587.38 634.435 587.823 634.394 588.27 634.363C588.71 634.332 589.15 634.312 589.59 634.303C590.037 634.294 590.48 634.296 590.92 634.309C591.367 634.322 591.81 634.345 592.25 634.38C592.69 634.415 593.13 634.46 593.57 634.517C594.01 634.574 594.45 634.641 594.89 634.719C595.323 634.797 595.757 634.886 596.19 634.986C596.623 635.085 597.053 635.195 597.48 635.316C597.907 635.437 598.33 635.569 598.75 635.71C605.83 638.155 610.05 643.248 613.15 649.81C613.39 650.016 613.64 650.225 613.89 650.427C617.16 653.074 625.84 655.444 627.26 659.393L626.3 659.58C611.43 662.538 606.07 691.473 576.87 674.605C578.95 672.448 581.94 670.067 582.86 667.176C579.82 668.613 575.82 672.056 573.95 674.88Z" fill="#BBED6E"/>
<path d="M573.95 674.88C571.71 673.098 569.78 671.002 568.39 668.482C565.36 662.987 564.52 657.056 566.33 650.989C568.15 644.915 572.47 640.023 578.07 637.154C578.463 636.955 578.863 636.767 579.27 636.588C579.677 636.409 580.087 636.24 580.5 636.081C580.913 635.922 581.333 635.774 581.76 635.636C582.18 635.498 582.603 635.37 583.03 635.253C583.457 635.136 583.887 635.03 584.32 634.934C584.753 634.838 585.19 634.753 585.63 634.679C586.063 634.604 586.5 634.541 586.94 634.488C587.38 634.435 587.823 634.394 588.27 634.363C588.71 634.332 589.15 634.312 589.59 634.303C590.037 634.294 590.48 634.296 590.92 634.309C591.367 634.322 591.81 634.345 592.25 634.38C592.69 634.415 593.13 634.46 593.57 634.517C594.01 634.574 594.45 634.641 594.89 634.719C595.323 634.797 595.757 634.886 596.19 634.986C596.623 635.085 597.053 635.195 597.48 635.316C597.907 635.437 598.33 635.569 598.75 635.71C605.83 638.155 610.05 643.248 613.15 649.81C603.69 647.871 592.87 647.07 584.46 652.832C577.78 657.405 575.68 663.976 574.48 671.577C574.31 672.678 574.16 673.785 573.95 674.88Z" fill="#F5F5F5"/>
<path d="M452.078 614.707C453.146 614.589 454.217 614.497 455.29 614.432C456.363 614.367 457.436 614.329 458.511 614.317C459.586 614.304 460.66 614.319 461.734 614.36C462.808 614.401 463.88 614.468 464.951 614.561C466.022 614.655 467.089 614.775 468.154 614.921C469.219 615.068 470.279 615.24 471.335 615.439C472.392 615.638 473.442 615.862 474.487 616.112C475.532 616.363 476.571 616.639 477.602 616.94C478.634 617.242 479.658 617.569 480.673 617.921C481.688 618.273 482.694 618.65 483.691 619.052C484.688 619.454 485.675 619.88 486.65 620.33C487.626 620.781 488.59 621.255 489.543 621.753C490.496 622.25 491.435 622.771 492.362 623.316C493.289 623.86 494.201 624.427 495.1 625.016C495.999 625.605 496.883 626.216 497.752 626.849C498.621 627.482 499.473 628.136 500.31 628.811C501.146 629.486 501.965 630.181 502.768 630.896C503.57 631.611 504.354 632.346 505.12 633.1C505.886 633.854 506.633 634.626 507.361 635.417C508.089 636.208 508.797 637.017 509.486 637.842C510.174 638.668 510.841 639.51 511.488 640.369C512.135 641.228 512.759 642.102 513.36 642.991C513.967 643.88 514.55 644.784 515.11 645.702C515.67 646.62 516.203 647.551 516.71 648.496C517.223 649.441 517.713 650.397 518.18 651.366C518.647 652.335 519.09 653.314 519.51 654.305C519.93 655.296 520.323 656.296 520.69 657.305C521.057 658.315 521.4 659.333 521.72 660.36C522.033 661.387 522.327 662.421 522.6 663.462C522.867 664.503 523.107 665.551 523.32 666.604C523.533 667.657 523.723 668.715 523.89 669.777C524.05 670.84 524.187 671.906 524.3 672.975C524.413 674.044 524.497 675.116 524.55 676.189C524.61 677.262 524.643 678.337 524.65 679.412C524.657 680.487 524.633 681.561 524.58 682.635C524.533 683.709 524.46 684.781 524.36 685.851C524.26 686.922 524.133 687.989 523.98 689.053C523.827 690.117 523.647 691.176 523.44 692.231C523.233 693.286 523.003 694.336 522.75 695.38C522.49 696.423 522.207 697.46 521.9 698.49C521.593 699.52 521.26 700.542 520.9 701.555C520.54 702.568 520.157 703.572 519.75 704.567C519.343 705.561 518.91 706.545 518.45 707.518C517.997 708.491 517.517 709.453 517.01 710.402C516.51 711.351 515.983 712.288 515.43 713.211C514.877 714.134 514.303 715.044 513.71 715.939C513.117 716.834 512.501 717.714 511.862 718.579C511.224 719.444 510.565 720.293 509.885 721.125C509.204 721.957 508.504 722.772 507.784 723.57C507.063 724.368 506.324 725.148 505.565 725.909C504.806 726.67 504.029 727.412 503.234 728.135C502.439 728.858 501.626 729.561 500.796 730.244C499.965 730.927 499.119 731.589 498.256 732.23C497.394 732.871 496.516 733.491 495.623 734.089C494.73 734.686 493.822 735.262 492.901 735.815C491.979 736.368 491.044 736.898 490.097 737.405C489.149 737.912 488.189 738.396 487.218 738.855C486.246 739.315 485.264 739.751 484.271 740.162C483.278 740.573 482.276 740.96 481.264 741.322C480.251 741.683 479.231 742.02 478.202 742.332C477.174 742.643 476.138 742.929 475.095 743.19C474.052 743.45 473.004 743.684 471.95 743.893C470.895 744.102 469.836 744.285 468.773 744.441C467.71 744.598 466.644 744.728 465.574 744.832C464.513 744.935 463.451 745.012 462.386 745.063C461.321 745.114 460.256 745.139 459.19 745.138C458.124 745.137 457.059 745.11 455.995 745.057C454.93 745.004 453.868 744.925 452.807 744.82C451.746 744.715 450.689 744.584 449.635 744.427C448.581 744.27 447.531 744.088 446.486 743.88C445.441 743.671 444.401 743.438 443.367 743.179C442.333 742.92 441.306 742.636 440.286 742.327C439.266 742.018 438.254 741.684 437.25 741.325C436.247 740.966 435.252 740.583 434.267 740.176C433.282 739.769 432.308 739.338 431.344 738.883C430.38 738.428 429.428 737.949 428.488 737.448C427.547 736.947 426.619 736.422 425.704 735.875C424.789 735.328 423.888 734.76 423.001 734.169C422.114 733.578 421.242 732.965 420.385 732.332C419.528 731.698 418.687 731.044 417.862 730.369C417.037 729.694 416.228 729 415.437 728.286C414.646 727.572 413.872 726.839 413.117 726.086C412.362 725.334 411.625 724.564 410.907 723.776C410.19 722.988 409.492 722.183 408.813 721.361C408.135 720.539 407.477 719.701 406.839 718.846C406.202 717.991 405.586 717.122 404.991 716.237C404.396 715.353 403.823 714.455 403.272 713.542C402.721 712.629 402.192 711.704 401.687 710.766C401.181 709.827 400.698 708.877 400.239 707.915C399.78 706.953 399.344 705.98 398.933 704.997C398.521 704.014 398.133 703.021 397.77 702.019C397.407 701.016 397.068 700.006 396.755 698.987C396.441 697.968 396.152 696.943 395.888 695.91C395.625 694.877 395.386 693.838 395.173 692.794C394.96 691.749 394.773 690.7 394.611 689.646C394.45 688.593 394.314 687.536 394.204 686.475C394.094 685.414 394.01 684.352 393.952 683.288C393.894 682.223 393.862 681.158 393.856 680.092C393.85 679.026 393.87 677.96 393.916 676.895C393.962 675.83 394.034 674.767 394.132 673.705C394.23 672.644 394.354 671.585 394.504 670.53C394.654 669.475 394.83 668.423 395.031 667.376C395.232 666.329 395.458 665.288 395.711 664.252C395.963 663.216 396.24 662.187 396.542 661.165C396.845 660.143 397.172 659.129 397.524 658.122C397.876 657.116 398.252 656.119 398.653 655.131C399.054 654.143 399.478 653.166 399.927 652.199C400.376 651.232 400.848 650.276 401.343 649.332C401.838 648.388 402.356 647.457 402.897 646.538C403.438 645.619 404 644.714 404.585 643.823C405.17 642.932 405.776 642.056 406.404 641.195C407.032 640.333 407.681 639.487 408.35 638.658C409.019 637.828 409.708 637.015 410.417 636.219C411.126 635.423 411.853 634.645 412.6 633.884C413.347 633.123 414.112 632.382 414.895 631.659C415.678 630.936 416.479 630.232 417.297 629.548C418.114 628.864 418.948 628.2 419.798 627.557C420.648 626.914 421.513 626.292 422.393 625.691C423.274 625.09 424.168 624.512 425.077 623.955C425.986 623.398 426.907 622.863 427.842 622.351C428.777 621.839 429.724 621.35 430.683 620.884C431.642 620.419 432.611 619.977 433.591 619.558C434.572 619.14 435.562 618.746 436.561 618.376C437.561 618.006 438.569 617.661 439.585 617.34C440.602 617.019 441.625 616.724 442.656 616.453C443.687 616.183 444.724 615.938 445.767 615.718C446.81 615.498 447.858 615.304 448.91 615.135C449.963 614.966 451.019 614.824 452.078 614.707Z" fill="#1B1B1B"/>
<path d="M455.609 637.568C461.689 637.207 467.317 638.257 472.525 641.496C481.426 647.031 486.437 657.239 488.622 667.186C491.563 680.574 490.419 696.626 482.836 708.372C477.896 716.024 471.699 719.97 462.916 721.878C456.81 722.071 451.561 721.402 446.269 718.17C437.574 712.861 432.462 703.227 430.132 693.56C426.868 680.018 427.824 663.872 435.267 651.797C440.237 643.734 446.528 639.667 455.609 637.568Z" fill="#F5F5F5"/>
<path d="M375.871 559.958C376.433 559.858 377.59 560.098 378.175 560.164C380.51 566.44 377.637 603.107 377.481 612.724C376.861 655.253 377.409 697.767 379.126 740.266L346.169 740.243L345.606 740.031C344.783 738.906 344.689 738.8 344.67 737.392C344.478 723.511 345.8 709.291 346.052 695.358C346.86 650.802 347.22 606.036 342.488 561.673L375.871 559.958Z" fill="#1B1B1B"/>
<path d="M108.092 0.728027L120.923 26.47L109.442 26.48L109.418 522.605L152.694 522.702L151.436 525.268L109.423 525.285C109.405 540.081 111.305 589.448 108.206 599.895L107.449 599.603C105.93 590.379 106.638 580.38 106.647 571.036L106.72 525.298C97.6 525.283 36.094 526.512 33.479 523.995C38.091 520.819 96.697 522.618 106.709 522.626L106.702 26.485L95.328 26.464L108.092 0.728027Z" fill="#1B1B1B"/>
<path d="M731.66 511.117C736.76 513.607 752.92 520.15 755.72 523.934C749.93 529.344 738.89 533.175 731.61 536.705L731.65 525.303L355.876 525.312L232.264 525.314C211.038 525.314 189.412 526.204 168.245 525.126L168.298 522.695L731.64 522.615L731.66 511.117Z" fill="#1B1B1B"/>
<path d="M285.005 667.94L290.373 667.971C291.656 668.779 292.076 668.899 292.67 670.297C295.389 676.694 290.892 692.556 288.457 699.041C283.15 713.176 272.081 724.14 258.383 730.287C242.863 737.25 224.365 737.451 208.572 731.219C195.14 725.919 183.719 715.89 177.952 702.531C175.02 695.741 170.242 676.326 172.98 669.263C175.657 667.556 177.54 667.991 180.635 667.969C181.078 685.128 182.568 701.562 195.792 714.077C206.246 723.97 220.413 728.557 234.675 728.086C248.662 727.623 262.415 722.318 272.047 711.95C283.132 700.017 284.567 683.444 285.005 667.94Z" fill="url(#paint7_linear_0_1)"/>
<path d="M797.02 658.352C799.53 658.224 803.07 657.545 805.24 658.935C804.48 662.357 803.82 665.772 803.46 669.265C802.32 680.311 804.56 692.044 811.79 700.744C817.86 708.049 825.75 711.226 835.1 712.074C845.81 713.046 857.99 709.314 866.24 702.363C869.27 699.81 874.21 694.711 874.58 690.717C875.05 689.743 875.32 688.821 875.48 687.755C876.67 679.554 876.13 664.893 871.2 658.141C874.86 658.059 878.51 658.278 882.17 658.456C882.46 659.266 882.52 659.379 882.72 660.354C883.58 664.693 884.04 671.613 881.67 675.468C884.49 679.975 883.81 710.746 882.74 716.961C881.37 718.263 880.52 718.023 878.67 718.188C873.26 714.838 876.93 707.86 874.35 702.63C874.26 702.446 874.15 702.27 874.05 702.091C872.96 705.9 869.26 708.928 866.18 711.243C856.88 718.205 843.39 720.649 832.06 719.02C820.71 717.392 810.34 711.733 803.55 702.391C793.72 688.864 794.55 674.005 797.02 658.352Z" fill="url(#paint8_linear_0_1)"/>
<path d="M180.639 660.817C177.983 660.9 176.401 661.277 174.002 659.908C171.818 654.745 175.408 643.641 177.443 638.541C182.817 625.073 193.896 614.742 207.16 609.147C223.005 602.464 242.326 602.421 258.185 609.067C271.422 614.613 282.488 624.759 287.798 638.195C290.116 644.063 293.722 653.682 291.686 660.02C289.341 660.585 287.052 661.146 284.65 661.417C285.558 651.378 280.513 637.764 274.275 629.962C265.745 619.294 252.723 613.108 239.274 611.75C224.477 610.257 209.275 613.849 197.721 623.481C186.255 633.039 181.847 646.302 180.639 660.817Z" fill="#71B107"/>
<path d="M63.761 667.979C65.229 667.926 66.749 667.822 68.215 667.925C68.759 667.964 70.583 668.227 70.994 668.49C72.245 669.289 72.884 677.886 73.109 679.498C74.884 692.256 78.223 701.912 87.209 711.566C97.1 722.19 110.651 727.514 125.023 728.037C141.821 728.649 154.731 722.143 166.785 710.994C168.339 713.284 169.712 715.751 171.158 718.114C159.332 728.961 145.065 735.327 128.946 735.743C111.855 736.184 95.122 730.495 82.776 718.488C68.586 704.689 64.045 687.179 63.761 667.979Z" fill="url(#paint9_linear_0_1)"/>
<path d="M17.396 667.745C25.442 667.618 47.27 665.922 53.862 668.165C55.684 668.785 55.821 669 56.672 670.695L55.214 672.281C47.962 675.143 18.597 673.322 8.96797 673.285C8.94997 681.834 6.85499 719.56 11.819 724.646C15.221 728.133 32.925 726.42 37.83 726.336C45.623 726.373 55.486 725.077 62.987 726.536C64.635 728.538 64.117 729.559 64.017 732.09C62.664 733.361 61.664 733.297 59.852 733.476C50.405 734.408 24.368 734.63 15.69 732.963C11.687 732.194 7.396 730.763 4.333 727.976C-1.095 723.036 1.15497 677.392 1.16597 668.026L17.396 667.745Z" fill="#71B107"/>
<path d="M122.66 604.359C123.278 604.305 123.899 604.296 124.519 604.278C144.012 603.72 158.7 610.068 172.814 623.333C170.935 625.022 168.82 626.435 166.768 627.905C158.232 619.85 148.9 614.049 137.144 612.127C121.216 609.524 106.2 613.21 93.124 622.49C87.924 626.76 83.324 631.864 80.025 637.744C76.597 643.854 74.091 658.37 68.347 661.754L66.825 661.285C65.936 659.789 65.499 658.658 65.331 656.904C64.351 646.703 72.814 632.954 79.144 625.417C90.555 611.831 105.337 605.986 122.66 604.359Z" fill="#71B107"/>
<path d="M682.35 739.958C688.64 739.844 697.08 738.698 702.94 741.07C712.56 744.966 707.65 750.099 708.71 755.672C709.1 757.71 711.3 760.434 712.07 762.536C713.21 765.671 711.07 769.099 709.71 771.846C701.94 777.306 691.36 775.774 682.33 775.647L682.35 739.958Z" fill="#548400"/>
<path d="M689.91 761.17C693.93 761.039 698.13 760.549 702 761.88C703.86 763.762 703.73 763.889 704 766.379C700.83 767.048 694.94 768.717 692.12 766.796C690.32 765.568 690.34 763.203 689.91 761.17Z" fill="#F5F5F5"/>
<path d="M692.76 748.126C694.47 748.119 696.24 748.045 697.93 748.359C699.79 748.705 699.85 748.719 700.89 750.311L700.05 753.02C697.06 753.171 693.36 753.453 690.7 751.873L690.97 748.685L692.76 748.126Z" fill="#F5F5F5"/>
<path d="M722.96 739.917C730.28 739.842 742.19 738.097 748.48 742.141C751.22 743.902 753.05 747.219 753.57 750.397C754.45 755.809 750.44 757.437 748.07 761.391C745.8 765.163 750.93 767.114 751.8 770.441C752.24 772.165 751.62 772.867 750.87 774.361C748.72 775.509 748.25 775.45 745.9 775.358L731.26 760.128C731.41 764.932 732.49 771.345 729.32 775.277C727.2 775.964 727.32 776.036 725.32 775.1C720.46 767.863 722.87 748.548 722.96 739.917Z" fill="#548400"/>
<path d="M731.21 748.247C735.08 748.162 740.19 747.403 743.51 749.528C744.91 751.927 744.69 752.761 744.64 755.473C741.08 756.241 735.86 757.459 732.57 755.6C730.9 752.94 731.24 751.26 731.21 748.247Z" fill="#F5F5F5"/>
<path d="M708.29 658.071C710.7 657.984 712.62 657.916 714.93 658.703C715.61 660.131 713.28 675.97 713.96 680.729C715.35 690.615 720.19 699.728 728.29 705.711C736.13 711.499 746.45 713.76 756.04 712.24C763.03 711.132 770.68 707.067 774.91 701.319C777.16 702.645 779.16 704.055 780.02 706.498L778.16 707.956C776.95 710.808 772.65 713.341 770.03 714.883C760.77 720.321 747.28 720.643 737.14 717.827C736.453 717.64 735.77 717.435 735.09 717.214C734.41 716.992 733.74 716.753 733.08 716.498C732.413 716.242 731.753 715.97 731.1 715.681C730.447 715.392 729.803 715.086 729.17 714.765C728.53 714.444 727.9 714.106 727.28 713.753C726.66 713.4 726.05 713.031 725.45 712.646C724.85 712.262 724.26 711.863 723.68 711.449C723.1 711.035 722.53 710.606 721.97 710.163C721.41 709.72 720.863 709.264 720.33 708.793C719.79 708.322 719.267 707.838 718.76 707.341C718.247 706.844 717.747 706.335 717.26 705.812C716.773 705.29 716.3 704.756 715.84 704.209C715.387 703.663 714.943 703.106 714.51 702.537C714.083 701.968 713.667 701.389 713.26 700.799C712.86 700.21 712.477 699.61 712.11 699.001C711.737 698.392 711.38 697.773 711.04 697.146C704.6 685.24 704.37 670.811 708.29 658.071Z" fill="url(#paint10_linear_0_1)"/>
<path d="M11.832 606.732C23.306 605.734 52.314 605.253 63.217 606.833C64.316 608.508 63.918 610.532 63.831 612.448C57.633 617.643 20.697 608.352 10.034 616.504C9.834 616.657 9.63899 616.817 9.44199 616.973C8.47499 624.982 11.062 655.764 7.15399 660.807C5.16799 660.813 3.39201 661.347 1.91501 659.953C0.290007 650.776 -0.208006 624.08 2.70199 614.836C4.09699 610.404 7.955 608.694 11.832 606.732Z" fill="#71B107"/>
<path d="M832.14 629.264C843.65 628.572 855.32 629.904 865.02 636.778C868.81 639.467 873.58 644.032 874.35 648.771C876.13 644.925 875.54 641.403 875.48 637.299C875.44 634.556 875.84 632.724 877.79 630.722C880.04 630.283 879.96 630.243 881.93 631.407C882.57 632.607 883.09 633.85 883.31 635.198C884.02 639.43 883.32 649.171 880.91 652.741C877.203 652.599 873.497 652.476 869.79 652.371C867.18 648.56 864.35 645.105 860.17 642.954C859.97 642.612 859.81 642.238 859.56 641.929C857.19 639.013 850.4 637.068 846.82 636.509C837.2 635.006 823.19 637.071 815.62 643.712C813.01 646.001 811.17 649.527 808.32 651.451C806.11 652.947 803.71 652.514 801.26 651.961C800.9 649.946 802.21 647.702 803.35 646.016C810.28 635.743 820.44 631.497 832.14 629.264Z" fill="#71B107"/>
<path d="M776.49 739.623C778.69 739.327 780.79 739.082 782.75 740.362C788.28 743.98 792.19 758.307 793.74 764.738C794.43 767.634 795.31 772.099 793.44 774.661C792.62 775.798 792.24 775.566 790.95 775.819C788.03 774.56 787.68 771.333 785.76 769.05C784.23 767.24 782.85 767.686 780.64 767.569C778.33 767.524 776.03 767.627 773.71 767.722C772.56 770.323 771.12 773.438 768.3 774.558C766.21 775.386 765.46 775.248 763.55 774.246C763.3 773.461 763.1 772.942 763.18 772.105C763.73 766.05 771.99 743.534 776.49 739.623Z" fill="#548400"/>
<path d="M817.63 739.644C820.96 739.359 825.83 739.246 828.72 741.19C830.84 742.615 831.63 744.145 832.16 746.531C828.4 751.731 819.34 745.491 814.48 749.378C816.71 753.722 827.28 753.761 831.62 756.548C833.46 757.735 834.72 759.359 834.98 761.576C835.34 764.598 833.9 768.542 831.99 770.872C828.72 774.867 824.96 775.497 820.15 775.94C818.9 775.949 817.64 775.839 816.39 775.714C813.38 775.415 810.07 774.788 808.23 772.099C806.99 770.299 806.92 769.344 807.29 767.283C812.51 764.19 819.31 769.917 824.38 766.399C825.61 765.55 825.34 765.592 825.6 764.31C822.96 761.575 817.75 760.615 814.25 759.08C810.95 757.632 807.22 755.837 806.02 752.133C805.24 749.735 806.02 747.18 807.26 745.081C809.37 741.496 813.88 740.558 817.63 739.644Z" fill="#548400"/>
<path d="M745.46 629.105C746.827 629.02 748.197 628.968 749.57 628.949C761.74 628.813 771.93 633.211 780.54 641.672C779.99 643.739 776.68 645.395 774.97 646.412C774.15 645.48 773.3 644.61 772.35 643.795C763.57 636.207 752.88 635.562 741.87 636.671C731.19 639.184 727.48 644.485 719.31 650.926C717.24 652.559 715.84 652.649 713.36 652.338L712.43 650.87C712.74 648.436 713.95 646.83 715.41 644.94C723.25 634.791 733.1 630.813 745.46 629.105Z" fill="#71B107"/>
<path d="M682.47 658.094C684.95 658.096 687.39 657.749 689.48 659.271C691.4 668.646 689.88 705.766 689.86 717.976C687.31 718.042 685.18 717.955 682.71 717.281C680.76 702.194 682.24 674.088 682.47 658.094Z" fill="#71B107"/>
<path d="M866.15 740.493C867.52 740.297 868.92 740.234 870.3 740.124C872.12 741.364 872.61 742.047 873.21 744.189C874.75 749.64 874.69 762.301 872.1 767.33C877.39 767.224 885.16 766.321 890.02 768.477C891.61 769.184 891.69 769.65 892.3 771.158C891.4 773.015 890.47 773.825 888.83 775.052C884.33 777.017 869.63 775.732 864.04 775.703C868.31 765.176 862.73 751.459 866.15 740.493Z" fill="#548400"/>
<path d="M303.154 653.394L304.59 650.338C308.934 648.609 315.449 648.887 320.124 648.938C326.327 649.005 333.231 648.128 337.759 652.778L337.297 657.951C333.181 660.556 313 659.621 308.263 658.36C305.588 657.648 304.683 656.167 303.392 653.854C303.308 653.703 303.233 653.547 303.154 653.394Z" fill="#71B107"/>
<path d="M303.154 653.394L304.59 650.338C308.934 648.609 315.449 648.887 320.124 648.938C326.327 649.005 333.231 648.128 337.759 652.778C326.501 654.143 314.536 653.187 303.154 653.394Z" fill="#71B107"/>
<path d="M845.76 740.493C846.9 740.278 848.22 739.941 849.38 739.988C850.55 740.037 851.39 740.694 852.03 741.618C855.61 746.744 854.29 765.247 853.22 771.295C852.8 773.657 852.18 773.734 850.29 775.075C850.19 775.126 850.1 775.207 849.99 775.228C848.05 775.6 847.84 775.364 846.33 774.251C843.3 767.417 844.4 747.974 845.76 740.493Z" fill="#548400"/>
<path d="M682.26 630.471C682.46 630.465 682.65 630.456 682.85 630.455C685.75 630.434 687.11 630.142 689.22 632.215C691.24 638.432 689.57 645.744 688.87 652.167C687.32 652.373 685.81 652.322 684.25 652.293C680.66 648.639 682.23 635.855 682.26 630.471Z" fill="#71B107"/>
<path d="M683.35 601.09C683.43 601.045 683.51 601.001 683.59 600.96C683.67 600.918 683.753 600.878 683.84 600.841C683.92 600.804 684.003 600.768 684.09 600.735C684.177 600.702 684.263 600.67 684.35 600.641C684.437 600.612 684.523 600.586 684.61 600.561C684.697 600.536 684.783 600.514 684.87 600.493C684.963 600.473 685.053 600.455 685.14 600.439C685.233 600.423 685.323 600.409 685.41 600.397C685.503 600.386 685.597 600.376 685.69 600.369C685.777 600.362 685.867 600.358 685.96 600.355C686.053 600.352 686.143 600.352 686.23 600.354C686.323 600.356 686.417 600.36 686.51 600.367C686.597 600.373 686.687 600.382 686.78 600.393C686.873 600.404 686.963 600.417 687.05 600.432C687.143 600.447 687.233 600.465 687.32 600.485C687.407 600.505 687.493 600.527 687.58 600.551C687.673 600.576 687.763 600.602 687.85 600.63C687.937 600.659 688.02 600.689 688.1 600.722C688.187 600.755 688.273 600.79 688.36 600.827C688.44 600.864 688.523 600.902 688.61 600.943C688.69 600.984 688.77 601.027 688.85 601.072C688.93 601.117 689.007 601.164 689.08 601.213C689.16 601.262 689.237 601.312 689.31 601.365C689.383 601.418 689.457 601.472 689.53 601.528C689.603 601.585 689.673 601.643 689.74 601.702C689.813 601.762 689.88 601.823 689.94 601.886C690.007 601.949 690.073 602.014 690.14 602.08C690.2 602.146 690.26 602.214 690.32 602.283C690.38 602.352 690.437 602.423 690.49 602.495C690.55 602.567 690.607 602.64 690.66 602.715C690.713 602.79 690.763 602.866 690.81 602.943C690.857 603.02 690.903 603.099 690.95 603.178C690.997 603.257 691.04 603.338 691.08 603.42C691.12 603.501 691.16 603.584 691.2 603.667C691.233 603.751 691.267 603.836 691.3 603.921C691.333 604.006 691.363 604.091 691.39 604.178C691.417 604.265 691.443 604.353 691.47 604.441C691.497 604.529 691.52 604.617 691.54 604.706C691.56 604.795 691.577 604.885 691.59 604.975C691.603 605.065 691.617 605.155 691.63 605.246C691.637 605.337 691.643 605.428 691.65 605.519C691.657 605.61 691.663 605.701 691.67 605.792C691.67 605.883 691.667 605.975 691.66 606.066C691.66 606.157 691.657 606.248 691.65 606.339C691.643 606.43 691.633 606.521 691.62 606.611C691.607 606.702 691.593 606.792 691.58 606.882C691.567 606.972 691.55 607.061 691.53 607.15C691.51 607.239 691.487 607.328 691.46 607.416C691.433 607.503 691.407 607.59 691.38 607.677C691.347 607.764 691.313 607.849 691.28 607.934C691.247 608.019 691.213 608.104 691.18 608.187C691.14 608.27 691.1 608.352 691.06 608.433C691.02 608.514 690.977 608.595 690.93 608.674C690.883 608.753 690.837 608.831 690.79 608.908C690.737 608.985 690.683 609.06 690.63 609.135C690.577 609.209 690.523 609.282 690.47 609.353C690.41 609.425 690.35 609.495 690.29 609.564C690.23 609.633 690.17 609.7 690.11 609.765C690.043 609.831 689.977 609.895 689.91 609.958C689.843 610.02 689.777 610.081 689.71 610.14C689.637 610.199 689.567 610.256 689.5 610.312C689.427 610.367 689.35 610.421 689.27 610.473C689.197 610.525 689.123 610.575 689.05 610.623C688.97 610.672 688.89 610.718 688.81 610.762C688.73 610.806 688.65 610.848 688.57 610.888C688.49 610.928 688.407 610.966 688.32 611.002C688.24 611.038 688.157 611.072 688.07 611.104C687.99 611.136 687.907 611.166 687.82 611.193C687.733 611.221 687.647 611.247 687.56 611.27C687.467 611.293 687.377 611.315 687.29 611.334C687.203 611.353 687.117 611.37 687.03 611.385C686.937 611.4 686.847 611.412 686.76 611.423C686.667 611.434 686.577 611.442 686.49 611.448C686.397 611.454 686.307 611.458 686.22 611.459C686.127 611.461 686.033 611.461 685.94 611.458C685.853 611.455 685.763 611.45 685.67 611.443C685.583 611.436 685.493 611.426 685.4 611.415C685.313 611.403 685.227 611.389 685.14 611.373C685.047 611.357 684.957 611.339 684.87 611.319C684.783 611.299 684.697 611.277 684.61 611.252C684.523 611.227 684.437 611.201 684.35 611.172C684.263 611.143 684.177 611.112 684.09 611.079C684.01 611.046 683.927 611.011 683.84 610.974C683.76 610.937 683.68 610.898 683.6 610.857C683.52 610.816 683.44 610.773 683.36 610.728C683.28 610.683 683.203 610.637 683.13 610.588C683.05 610.539 682.973 610.489 682.9 610.436C682.827 610.384 682.753 610.33 682.68 610.274C682.613 610.218 682.547 610.16 682.48 610.101C682.407 610.042 682.34 609.981 682.28 609.918C682.213 609.855 682.147 609.791 682.08 609.726C682.02 609.66 681.96 609.593 681.9 609.524C681.84 609.455 681.783 609.385 681.73 609.314C681.677 609.243 681.623 609.17 681.57 609.096C681.517 609.022 681.467 608.947 681.42 608.87C681.373 608.793 681.327 608.716 681.28 608.637C681.233 608.558 681.19 608.479 681.15 608.398C681.11 608.317 681.073 608.235 681.04 608.152C681 608.069 680.963 607.986 680.93 607.901C680.897 607.817 680.867 607.732 680.84 607.646C680.813 607.56 680.787 607.473 680.76 607.386C680.74 607.299 680.72 607.211 680.7 607.123C680.68 607.035 680.66 606.946 680.64 606.857C680.627 606.768 680.613 606.678 680.6 606.588C680.593 606.499 680.587 606.409 680.58 606.318C680.573 606.228 680.567 606.138 680.56 606.047C680.56 605.957 680.56 605.867 680.56 605.776C680.567 605.685 680.573 605.595 680.58 605.505C680.587 605.415 680.593 605.325 680.6 605.235C680.613 605.145 680.627 605.055 680.64 604.966C680.66 604.877 680.677 604.789 680.69 604.7C680.71 604.612 680.733 604.524 680.76 604.437C680.787 604.35 680.813 604.263 680.84 604.177C680.867 604.091 680.897 604.006 680.93 603.921C680.963 603.837 680.997 603.753 681.03 603.67C681.07 603.587 681.11 603.506 681.15 603.425C681.19 603.344 681.23 603.264 681.27 603.185C681.317 603.106 681.363 603.029 681.41 602.952C681.463 602.875 681.513 602.8 681.56 602.726C681.613 602.651 681.667 602.578 681.72 602.507C681.78 602.436 681.84 602.366 681.9 602.297C681.953 602.228 682.013 602.16 682.08 602.095C682.14 602.029 682.203 601.965 682.27 601.902C682.33 601.839 682.397 601.778 682.47 601.719C682.537 601.66 682.607 601.602 682.68 601.546C682.747 601.49 682.817 601.436 682.89 601.383C682.963 601.33 683.04 601.28 683.12 601.231C683.193 601.182 683.27 601.135 683.35 601.09Z" fill="#71B107"/>
<defs>
<linearGradient id="paint0_linear_0_1" x1="207.428" y1="380.411" x2="301.048" y2="388.818" gradientUnits="userSpaceOnUse">
<stop stop-color="#54B51A"/>
<stop offset="1" stop-color="#93D84D"/>
</linearGradient>
<linearGradient id="paint1_linear_0_1" x1="324.502" y1="355.935" x2="344.205" y2="409.588" gradientUnits="userSpaceOnUse">
<stop stop-color="#A4E631"/>
<stop offset="1" stop-color="#D7F69E"/>
</linearGradient>
<linearGradient id="paint2_linear_0_1" x1="294.941" y1="407.663" x2="345.78" y2="380.679" gradientUnits="userSpaceOnUse">
<stop stop-color="#29910D"/>
<stop offset="1" stop-color="#93D551"/>
</linearGradient>
<linearGradient id="paint3_linear_0_1" x1="85.1225" y1="460.794" x2="327.101" y2="351.732" gradientUnits="userSpaceOnUse">
<stop stop-color="#1A580C"/>
<stop offset="1" stop-color="#5B8751"/>
</linearGradient>
<linearGradient id="paint4_linear_0_1" x1="209.816" y1="434.306" x2="204.096" y2="325.803" gradientUnits="userSpaceOnUse">
<stop stop-color="#59B71B"/>
<stop offset="1" stop-color="#A8E35F"/>
</linearGradient>
<linearGradient id="paint5_linear_0_1" x1="289.909" y1="290.837" x2="397.797" y2="234.19" gradientUnits="userSpaceOnUse">
<stop stop-color="#648D5F"/>
<stop offset="1" stop-color="#9FC372"/>
</linearGradient>
<linearGradient id="paint6_linear_0_1" x1="175.255" y1="254.994" x2="288.27" y2="258.86" gradientUnits="userSpaceOnUse">
<stop stop-color="#98D561"/>
<stop offset="1" stop-color="#DCFDAA"/>
</linearGradient>
<linearGradient id="paint7_linear_0_1" x1="231.475" y1="733.309" x2="232.079" y2="669.357" gradientUnits="userSpaceOnUse">
<stop stop-color="#67A101"/>
<stop offset="1" stop-color="#7BBF05"/>
</linearGradient>
<linearGradient id="paint8_linear_0_1" x1="838.23" y1="717.079" x2="839.027" y2="659.078" gradientUnits="userSpaceOnUse">
<stop stop-color="#68A201"/>
<stop offset="1" stop-color="#7BBF04"/>
</linearGradient>
<linearGradient id="paint9_linear_0_1" x1="116.208" y1="733.216" x2="116.723" y2="670.294" gradientUnits="userSpaceOnUse">
<stop stop-color="#67A200"/>
<stop offset="1" stop-color="#7BBF05"/>
</linearGradient>
<linearGradient id="paint10_linear_0_1" x1="742.143" y1="716.975" x2="742.455" y2="659.802" gradientUnits="userSpaceOnUse">
<stop stop-color="#67A201"/>
<stop offset="1" stop-color="#7BBF03"/>
</linearGradient>
</defs>
</svg>
