<svg width="1832" height="1319" viewBox="0 0 1832 1319" fill="none" xmlns="http://www.w3.org/2000/svg">
<path d="M844.873 398.399C941.114 353.203 1046.89 360.641 1144.92 395.973C1159.73 401.311 1174.99 407.036 1189.07 414.111L1193.36 415.809L1201.8 419.663C1174.35 420.886 1142 423.329 1122.23 444.866C1104.16 464.545 1096.88 496.807 1087.96 521.514C1085.25 529.019 1082.51 537.642 1078.18 544.387C1065.56 577.617 1038.19 620.849 1012.07 645.012C993.691 664.403 964.514 689.982 940.102 700.783C881.374 735.409 808.168 741.795 742.872 724.943C734.923 722.945 727.103 720.528 719.412 717.691C713.964 727.397 708.662 737 704.361 747.275C701.135 754.98 698.637 763.077 695.298 770.695L695.245 773.126C687.855 788.345 685.189 834.162 676.535 842.845C675.137 844.249 674.315 843.846 672.522 843.747C671.657 843.186 670.904 842.699 670.349 841.805C663.265 830.398 675.086 785.923 678.436 773.268L679.694 770.702C685.316 747.201 697.729 723.9 707.523 701.778C698.184 674.284 691.027 646.191 689.532 617.079C686.503 558.109 708.195 510.47 747.156 467.235C758.928 448.893 799.201 420.988 818.376 411.786C826.948 406.919 835.705 402.047 844.873 398.399Z" fill="#BBED6E"/>
<path d="M890.847 501.114L893.064 501.864C891.148 504.76 869.759 520.883 865.26 524.747C854.769 533.756 844.768 542.922 835.15 552.871C835.329 560.367 833.934 589.809 831.437 595.7C834.946 594.241 837.555 591.004 841.029 589.166C844.045 587.57 846.529 585.12 849.63 583.623C860.723 578.27 871.69 579.89 883.229 577.947C885.74 577.524 887.569 578.057 889.611 579.597C889.871 579.794 890.121 580.002 890.376 580.204C888.156 579.952 885.076 578.98 883.23 580.232L883.652 581.095C884.798 583.475 885.504 585.086 885.112 587.807C883.545 591.061 880.667 592.505 877.611 594.168L876.878 594.203C877.178 594.407 877.472 594.62 877.776 594.817C878.75 595.445 879.375 595.556 880.495 595.692C885.738 596.327 890.691 599.663 893.834 603.777C898.097 609.358 899.617 615.983 898.588 622.894C896.543 636.625 886.386 649.858 875.407 657.845C874.485 658.514 873.552 659.167 872.608 659.804C879.133 658.729 885.016 655.76 890.891 652.873L888.515 656.466C889.22 658.391 889.593 658.52 891.186 659.696C888.351 661.561 885.525 663.588 882.581 665.266C881.462 667.616 880.231 668.171 877.79 669.084C868.538 672.546 850.13 674.998 841.027 670.579C836.478 668.37 831.623 665.243 826.771 663.896L826.626 664.855C826.483 665.75 826.254 666.494 825.966 667.346C823.828 673.669 824.616 682.006 823.313 688.661C822.36 693.526 820.544 711.181 821.188 715.524C829.758 720.821 866.267 707.206 872.361 711.238C864.858 714.054 854.738 714.713 846.785 715.789C805.481 721.379 764.767 720.377 725.516 705.351C728.945 697.604 732.568 689.95 736.387 682.388C740.206 674.826 744.215 667.366 748.414 660.009C752.613 652.652 756.997 645.406 761.566 638.272C766.135 631.138 770.883 624.125 775.809 617.234C783.739 606.239 792.891 596.133 800.748 585.105C809.968 577.168 818.36 565.814 826.823 556.923C836.733 546.783 847.032 537.055 857.72 527.738C868.407 518.422 879.45 509.547 890.847 501.114Z" fill="url(#paint0_linear_0_1)"/>
<path d="M876.878 594.203C877.178 594.407 877.472 594.62 877.776 594.817C878.75 595.445 879.375 595.556 880.495 595.692C885.738 596.327 890.691 599.663 893.834 603.777C898.097 609.358 899.617 615.983 898.588 622.894C896.543 636.625 886.386 649.858 875.407 657.845C874.485 658.514 873.552 659.167 872.608 659.804C863.82 661.763 855.34 662.449 846.53 660.079C835.134 657.012 826.71 649.841 820.937 639.684C820.859 630.366 823.299 622.771 828.605 615.014C831.297 611.079 834.661 607.213 839.539 606.254C838.538 607.52 837.478 608.247 837.534 609.906C846.549 609.397 865.456 600.913 873.34 596.555C872.455 596.295 871.743 596.014 870.914 595.589C870.638 595.447 870.365 595.296 870.091 595.15L876.878 594.203Z" fill="url(#paint1_linear_0_1)"/>
<path d="M826.821 603.13C833.154 596.352 840.378 590.56 848.651 586.3C854.043 583.523 865.136 578.901 871.094 580.767C868.825 582.389 867.434 583.324 866.427 585.978C866.255 589.631 867.988 592.291 870.091 595.15C870.365 595.296 870.638 595.447 870.914 595.589C871.743 596.014 872.455 596.295 873.34 596.555C865.456 600.913 846.549 609.397 837.534 609.906C837.478 608.247 838.538 607.52 839.539 606.254C834.661 607.213 831.297 611.079 828.605 615.014C823.299 622.771 820.859 630.366 820.937 639.684C820.144 637.897 819.316 636.062 818.825 634.165C815.923 622.946 821.354 612.547 826.821 603.13Z" fill="#A3E624"/>
<path d="M852.956 586.783C854.639 586.726 857.122 586.494 858.693 587.159C860.298 587.839 860.358 588.542 860.959 590.037C860.221 592.85 858.632 593.988 856.5 595.743C854.364 596.137 852.707 596.157 850.561 595.823C848.716 594.371 848.619 594.563 848.312 592.08C849.259 589.414 850.731 588.436 852.956 586.783Z" fill="#E2FCB3"/>
<path d="M882.581 665.266C873.657 668.742 864.221 671.427 854.557 670.989C842.708 670.451 830.824 666.25 822.725 657.3C822.306 656.845 821.898 656.38 821.503 655.905C821.108 655.43 820.725 654.944 820.354 654.449C819.983 653.954 819.625 653.45 819.28 652.937C818.935 652.424 818.604 651.902 818.285 651.372C817.967 650.841 817.663 650.303 817.372 649.758C817.081 649.212 816.805 648.659 816.542 648.099C816.279 647.539 816.031 646.973 815.797 646.4C815.564 645.827 815.345 645.249 815.14 644.666C814.936 644.082 814.747 643.493 814.573 642.9C814.399 642.307 814.24 641.709 814.097 641.107C813.953 640.506 813.825 639.901 813.712 639.293C813.599 638.684 813.502 638.074 813.421 637.461C813.34 636.848 813.274 636.233 813.223 635.617C813.173 635 813.139 634.383 813.12 633.765C813.101 633.146 813.099 632.528 813.112 631.91C813.125 631.291 813.153 630.674 813.198 630.057C813.895 619.854 819.13 609.815 826.821 603.13C821.354 612.547 815.923 622.946 818.825 634.165C819.316 636.062 820.144 637.897 820.937 639.684C826.71 649.841 835.134 657.012 846.53 660.079C855.34 662.449 863.82 661.763 872.608 659.804C879.133 658.729 885.016 655.76 890.891 652.873L888.515 656.466C889.22 658.391 889.593 658.52 891.186 659.696C888.351 661.561 885.525 663.588 882.581 665.266Z" fill="url(#paint2_linear_0_1)"/>
<path d="M871.094 580.767C873.771 580.505 874.434 579.984 876.637 581.659C878.24 584.352 879.069 589.624 878.257 592.715C878.134 593.183 877.812 593.761 877.611 594.168L876.878 594.203L870.091 595.15C867.988 592.291 866.255 589.631 866.427 585.978C867.434 583.324 868.825 582.389 871.094 580.767Z" fill="#E2FCB3"/>
<path d="M747.156 467.235C746.945 470.597 727.918 496.927 724.258 503.433C708.866 530.788 696.84 565.258 697.992 597.016C699.063 596.451 699.106 596.098 699.726 595.098C702.714 594.627 705.757 596.907 708.331 598.287C709.102 590.084 709.181 580.351 712.576 572.8C713.797 578.725 717.486 583.343 721.91 587.308C730.129 594.674 740.848 598.966 751.941 598.167C771.381 596.768 774.58 584.276 786.078 571.344C787.906 569.288 789.408 567.068 792.208 566.888C800.852 557.535 809.774 548.456 818.973 539.65C821.281 545.234 825.058 551.355 826.823 556.923C818.36 565.814 809.968 577.168 800.748 585.105C792.891 596.133 783.739 606.239 775.809 617.234C770.883 624.125 766.135 631.138 761.566 638.272C756.997 645.406 752.613 652.652 748.414 660.009C744.215 667.366 740.206 674.826 736.387 682.388C732.568 689.95 728.945 697.604 725.516 705.351C764.767 720.377 805.481 721.379 846.785 715.789C854.738 714.713 864.858 714.054 872.361 711.238C893.935 708.226 914.597 699.401 934.428 690.78C934.253 691.03 934.088 691.287 933.903 691.53C928.979 698.021 908.959 700.091 902.692 705.623L902.869 706.537C903.343 709.107 903.729 712.156 903.906 714.744C903.929 715.084 903.897 715.425 903.892 715.766C916.373 711.946 928.141 705.855 939.56 699.608L940.102 700.783C881.374 735.409 808.168 741.795 742.872 724.943C734.923 722.945 727.103 720.528 719.412 717.691C713.964 727.397 708.662 737 704.361 747.275C701.135 754.98 698.637 763.077 695.298 770.695L695.245 773.126C687.855 788.345 685.189 834.162 676.535 842.845C675.137 844.249 674.315 843.846 672.522 843.747C671.657 843.186 670.904 842.699 670.349 841.805C663.265 830.398 675.086 785.923 678.436 773.268L679.694 770.702C685.316 747.201 697.729 723.9 707.523 701.778C698.184 674.284 691.027 646.191 689.532 617.079C686.503 558.109 708.195 510.47 747.156 467.235Z" fill="url(#paint3_linear_0_1)"/>
<path d="M712.576 572.8C713.797 578.725 717.486 583.343 721.91 587.308C730.129 594.674 740.848 598.966 751.941 598.167C771.381 596.768 774.58 584.276 786.078 571.344C787.906 569.288 789.408 567.068 792.208 566.888L790.533 569.491C783.58 576.084 777.51 584.265 771.699 591.856C765.952 599.268 760.451 606.859 755.197 614.628C749.943 622.397 744.947 630.329 740.208 638.423C735.469 646.518 730.998 654.757 726.795 663.142C722.592 671.527 718.666 680.04 715.016 688.68C703.832 660.538 695.893 627.49 697.992 597.016C699.063 596.451 699.106 596.098 699.726 595.098C702.714 594.627 705.757 596.907 708.331 598.287C709.102 590.084 709.181 580.351 712.576 572.8Z" fill="url(#paint4_linear_0_1)"/>
<path d="M792.208 566.888C800.852 557.535 809.774 548.456 818.973 539.65C821.281 545.234 825.058 551.355 826.823 556.923C818.36 565.814 809.968 577.168 800.748 585.105C802.507 579.432 808.952 573.787 812.905 569.428C811.761 564.01 809.018 558.934 806.922 553.821C801.587 558.975 797.155 565.979 790.533 569.491L792.208 566.888Z" fill="#7CA364"/>
<path d="M844.873 398.399C941.114 353.203 1046.89 360.641 1144.92 395.973C1159.73 401.311 1174.99 407.036 1189.07 414.111C1179.41 413.467 1168.98 409.395 1159.36 407.625C1137.15 403.542 1114.26 403.119 1091.79 404.586L1087.66 404.11C1091.14 402.942 1125.24 401.874 1127.98 402.791C1129.95 403.452 1131.05 403.93 1133.08 403.196C1131.51 400.82 1127.27 397.088 1124.57 396.293C1111.98 392.584 1077.04 394.657 1062.22 394.589L932.094 393.809C916.612 393.68 901.127 393.109 885.633 392.943C879.436 392.877 873.076 392.313 866.896 392.769C860.054 393.275 852.164 396.108 846.114 399.215L845.403 399.586L844.873 398.399Z" fill="#8FD44A"/>
<path d="M818.973 539.65C848.533 509.119 886.603 482.326 923.303 460.987C928.844 457.765 934.828 455.249 940.479 452.215C949.722 447.252 960.863 440.191 971.031 437.589L971.226 438.343C964.804 442.69 956.73 443.592 950.537 448.08C940.252 455.536 927.126 458.222 917.52 466.796C918.521 470.607 919.566 474.15 921.218 477.735L922.54 477.782C936.869 467.224 954.016 460.334 969.212 451.158C972.165 449.375 983.339 444.135 985.968 444.716L986.061 445.893C981.942 451.11 945.532 466.356 937.075 470.685C920.901 478.964 905.321 490.202 890.847 501.114C879.45 509.547 868.407 518.422 857.72 527.738C847.032 537.055 836.733 546.783 826.823 556.923C825.058 551.355 821.281 545.234 818.973 539.65Z" fill="url(#paint5_linear_0_1)"/>
<path d="M747.156 467.235C758.928 448.893 799.201 420.988 818.376 411.786L818.655 413.602C805.516 426.733 790.099 437.614 776.585 450.444C743.938 481.436 718.146 526.936 712.497 572.004C712.464 572.268 712.55 572.535 712.576 572.8C709.181 580.351 709.102 590.084 708.331 598.287C705.757 596.907 702.714 594.627 699.726 595.098C699.106 596.098 699.063 596.451 697.992 597.016C696.84 565.258 708.866 530.788 724.258 503.433C727.918 496.927 746.945 470.597 747.156 467.235Z" fill="url(#paint6_linear_0_1)"/>
<path d="M1007.69 637.949C1011.59 632.832 1016.63 628.146 1020.98 623.348C1029.09 614.406 1037.01 605.209 1044.19 595.497C1051.37 585.58 1058.22 575.435 1064.73 565.063C1068.9 558.406 1072.9 550.161 1078.18 544.387C1065.56 577.617 1038.19 620.849 1012.07 645.012C993.691 664.403 964.514 689.982 940.102 700.783L939.56 699.608C928.141 705.855 916.373 711.946 903.892 715.766C903.897 715.425 903.929 715.084 903.906 714.744C903.729 712.156 903.343 709.107 902.869 706.537L902.692 705.623C908.959 700.091 928.979 698.021 933.903 691.53C934.088 691.287 934.253 691.03 934.428 690.78C943.15 684.572 953.661 680.052 962.798 674.309C979.06 664.085 993.696 651.021 1007.69 637.949Z" fill="#7CA364"/>
<path d="M1007.69 637.949C1011.59 632.832 1016.63 628.146 1020.98 623.348C1029.09 614.406 1037.01 605.209 1044.19 595.497C1051.37 585.58 1058.22 575.435 1064.73 565.063C1068.9 558.406 1072.9 550.161 1078.18 544.387C1065.56 577.617 1038.19 620.849 1012.07 645.012C1014.35 638.805 1035.74 615.083 1041.12 607.821C1044.54 603.21 1048.04 598.538 1050.99 593.609C1053.9 588.745 1055.81 584.007 1059.33 579.448L1059.35 579.446L1058.98 579.215C1054.3 580.36 1022.42 630.828 1008.27 637.691C1008.08 637.783 1007.89 637.863 1007.69 637.949Z" fill="#8FD44A"/>
<path d="M877.611 594.168C880.667 592.505 883.545 591.061 885.112 587.807C885.504 585.086 884.798 583.475 883.652 581.095L883.23 580.232C885.076 578.98 888.156 579.952 890.376 580.204C899.791 584.424 906.612 589.315 910.398 599.302C914.298 609.589 912.954 621.535 908.441 631.397C905.481 637.866 901.193 643.397 896.13 648.351C894.493 649.733 892.21 651.229 890.891 652.873C885.016 655.76 879.133 658.729 872.608 659.804C873.552 659.167 874.485 658.514 875.407 657.845C886.386 649.858 896.543 636.625 898.588 622.894C899.617 615.983 898.097 609.358 893.834 603.777C890.691 599.663 885.738 596.327 880.495 595.692C879.375 595.556 878.75 595.445 877.776 594.817C877.472 594.62 877.178 594.407 876.878 594.203L877.611 594.168Z" fill="#A3E624"/>
<path d="M1091.79 404.586C1114.26 403.119 1137.15 403.542 1159.36 407.625C1168.98 409.395 1179.41 413.467 1189.07 414.111L1193.36 415.809C1185.9 417.805 1174.39 415.003 1166.52 414.196C1151.58 412.665 1128.86 410.338 1114.38 413.565C1122.7 415.164 1132.28 414.431 1140.79 414.564C1116.33 414.83 1093.34 417.959 1069.12 420.772C1077.44 416.9 1092.69 416.555 1101.94 415.123L1101.63 414.243C1099.35 414.14 1096.74 414.331 1094.62 413.465C1104.41 413.257 1114.09 411.505 1123.79 411.324C1135.46 411.106 1148.11 412.957 1159.62 411.316C1160.86 411.139 1160.41 411.424 1161.09 410.513C1158.66 407.175 1154.03 408.541 1150.42 408.058C1144.77 407.304 1139.06 405.841 1133.38 405.58C1120.32 404.978 1104.22 408.202 1091.79 404.586Z" fill="#A3E624"/>
<path d="M896.13 648.351C897.122 650.194 897.882 650.816 897.248 652.999C896.46 655.712 893.309 657.951 891.186 659.696C889.593 658.52 889.22 658.391 888.515 656.466L890.891 652.873C892.21 651.229 894.493 649.733 896.13 648.351Z" fill="#8FD44A"/>
<path d="M1130.26 424.862L1130.39 424.827C1125.71 428.643 1119.94 431.041 1115.27 435.149C1111.57 438.394 1108.44 442.642 1105.41 446.506C1087.52 469.354 1086.24 489.57 1076.04 514.957C1042.68 597.91 983.785 663.625 900.957 698.871L899.622 698.779C901.475 695.548 924.999 682.849 930.107 679.392C938.773 673.527 947.172 666.986 955.386 660.504C960.818 656.236 966.116 651.808 971.281 647.22C976.445 642.632 981.466 637.892 986.345 633.001C991.223 628.11 995.949 623.075 1000.52 617.898C1005.1 612.721 1009.51 607.411 1013.76 601.967C1018.63 595.612 1023.28 589.101 1027.71 582.434C1032.14 575.767 1036.34 568.959 1040.31 562.01C1044.28 555.061 1048.02 547.987 1051.52 540.788C1055.02 533.589 1058.27 526.28 1061.28 518.863C1070.69 495.279 1074.88 467.359 1091.21 447.305C1099.98 436.538 1116.36 426.351 1130.26 424.862Z" fill="#E2FCB3"/>
<path d="M938.888 576.86C944.772 571.487 951.966 566.945 959.825 565.188C963.099 564.457 967.13 563.747 970.076 565.596C966.922 566.42 962.697 567.199 960.911 570.231C960.34 571.2 960.798 571.651 961.11 572.627C963.28 574.065 965.405 574.797 968.054 574.343C969.88 574.03 971.764 573.073 972.862 571.534C974.046 569.875 973.836 568.95 973.456 567.055L974.108 565.948C978.721 566.645 983.402 570.252 986.235 573.891C989.135 577.615 990.21 582.883 989.437 587.48C988.145 595.161 982.419 601.56 976.129 605.749C974.504 606.844 972.811 607.822 971.051 608.683C968.428 611.06 962.918 613.456 959.387 613.695C956.636 614.563 953.619 614.891 950.736 614.865C944.308 614.808 938.043 612.746 933.602 607.919C933.387 607.684 933.177 607.444 932.974 607.198C932.771 606.952 932.574 606.701 932.384 606.445C932.194 606.189 932.011 605.928 931.834 605.663C931.658 605.397 931.489 605.127 931.326 604.853C931.164 604.578 931.009 604.3 930.861 604.017C930.713 603.734 930.573 603.448 930.44 603.159C930.307 602.869 930.182 602.576 930.065 602.279C929.947 601.982 929.837 601.683 929.735 601.381C929.634 601.079 929.54 600.775 929.453 600.468C929.367 600.161 929.289 599.851 929.219 599.54C929.15 599.229 929.088 598.917 929.034 598.602C928.981 598.287 928.935 597.972 928.898 597.655C928.861 597.338 928.833 597.021 928.812 596.703C928.791 596.385 928.779 596.066 928.775 595.747C928.771 595.428 928.775 595.11 928.788 594.791C928.801 594.472 928.822 594.154 928.851 593.837C929.48 586.54 933.582 581.48 938.888 576.86Z" fill="#A3E624"/>
<path d="M938.888 576.86C936.244 581.507 933.84 585.661 933.712 591.157L937.999 585.186L938.788 585.868C945.487 591.583 965.063 601.059 967.854 608.196C966.981 610.104 966.492 610.81 964.355 611.375C963.266 611.663 962.006 611.667 960.882 611.718L953.444 611.668L959.387 613.695C956.636 614.563 953.619 614.891 950.736 614.865C944.308 614.808 938.043 612.746 933.602 607.919C933.387 607.684 933.177 607.444 932.974 607.198C932.771 606.952 932.574 606.701 932.384 606.445C932.194 606.189 932.011 605.928 931.834 605.663C931.658 605.397 931.489 605.127 931.326 604.853C931.164 604.578 931.009 604.3 930.861 604.017C930.713 603.734 930.573 603.448 930.44 603.159C930.307 602.869 930.182 602.576 930.065 602.279C929.947 601.982 929.837 601.683 929.735 601.381C929.634 601.079 929.54 600.775 929.453 600.468C929.367 600.161 929.289 599.851 929.219 599.54C929.15 599.229 929.088 598.917 929.034 598.602C928.981 598.287 928.935 597.972 928.898 597.655C928.861 597.338 928.833 597.021 928.812 596.703C928.791 596.385 928.779 596.066 928.775 595.747C928.771 595.428 928.775 595.11 928.788 594.791C928.801 594.472 928.822 594.154 928.851 593.837C929.48 586.54 933.582 581.48 938.888 576.86Z" fill="#BBED6E"/>
<path d="M938.888 576.86C936.244 581.507 933.84 585.661 933.712 591.157L933.943 596.196C936.392 602.414 939.547 606.56 945.772 609.331C948.245 610.431 950.814 611.074 953.444 611.668L959.387 613.695C956.636 614.563 953.619 614.891 950.736 614.865C944.308 614.808 938.043 612.746 933.602 607.919C933.387 607.684 933.177 607.444 932.974 607.198C932.771 606.952 932.574 606.701 932.384 606.445C932.194 606.189 932.011 605.928 931.834 605.663C931.658 605.397 931.489 605.127 931.326 604.853C931.164 604.578 931.009 604.3 930.861 604.017C930.713 603.734 930.573 603.448 930.44 603.159C930.307 602.869 930.182 602.576 930.065 602.279C929.947 601.982 929.837 601.683 929.735 601.381C929.634 601.079 929.54 600.775 929.453 600.468C929.367 600.161 929.289 599.851 929.219 599.54C929.15 599.229 929.088 598.917 929.034 598.602C928.981 598.287 928.935 597.972 928.898 597.655C928.861 597.338 928.833 597.021 928.812 596.703C928.791 596.385 928.779 596.066 928.775 595.747C928.771 595.428 928.775 595.11 928.788 594.791C928.801 594.472 928.822 594.154 928.851 593.837C929.48 586.54 933.582 581.48 938.888 576.86Z" fill="#71B107"/>
<path fill-rule="evenodd" clip-rule="evenodd" d="M1192.18 850.002C1187 848.258 1182.03 847.188 1176.53 847.199C1169.66 848.017 1163.96 849.429 1159.39 855.162C1155.61 859.905 1154.03 866.072 1152.84 871.907C1151.67 871.322 1150.48 870.766 1149.29 870.239C1148.09 869.712 1146.88 869.213 1145.66 868.744C1144.44 868.275 1143.21 867.835 1141.97 867.425C1140.73 867.015 1139.48 866.635 1138.22 866.285C1136.96 865.936 1135.69 865.617 1134.41 865.328C1133.14 865.039 1131.86 864.781 1130.57 864.554C1129.28 864.327 1127.98 864.131 1126.69 863.966C1125.39 863.801 1124.09 863.668 1122.79 863.565C1121.48 863.463 1120.18 863.392 1118.87 863.353C1117.56 863.314 1116.26 863.306 1114.95 863.329C1113.64 863.353 1112.34 863.408 1111.03 863.494C1109.72 863.581 1108.42 863.698 1107.12 863.847C1105.82 863.996 1104.53 864.177 1103.24 864.388C1101.95 864.599 1100.66 864.842 1099.38 865.115C1098.1 865.388 1096.83 865.692 1095.57 866.027C1094.3 866.362 1093.05 866.726 1091.8 867.121C1080.15 870.847 1070.21 878.297 1064.59 889.312C1060.08 898.132 1058.81 908.634 1061.91 918.121C1065.38 928.728 1073.02 934.834 1082.26 940.322C1074.64 946.175 1067.93 952.206 1066.6 962.26C1065.76 968.577 1067.76 975.269 1071.69 980.264C1073.55 982.639 1076 984.647 1078.33 986.552C1069.15 989.919 1062.38 994.272 1058.08 1003.41C1054.33 1011.4 1054.11 1021.29 1057.17 1029.54C1060.42 1038.3 1067.3 1043.89 1075.66 1047.56C1093.35 1055.32 1116.89 1055.5 1135.78 1052.08C1153.15 1048.13 1171.06 1040.24 1180.92 1024.59C1186.65 1015.47 1189.28 1003.86 1186.76 993.26C1184.86 985.264 1180.64 978.391 1173.48 974.188C1166.07 969.84 1157.32 967.851 1148.85 966.991C1146.17 966.719 1142.02 966.688 1137.13 966.652C1119.91 966.525 1093.6 966.33 1090.83 955.276C1090.25 952.983 1090.82 950.622 1092.06 948.646C1093.23 946.784 1094.72 945.779 1096.61 944.744C1099.42 944.336 1102.22 944.863 1105.02 945.392C1106.68 945.705 1108.34 946.018 1110.01 946.138C1129.34 947.528 1151.45 944.364 1163.8 927.814C1169.95 919.569 1173.24 908.39 1171.74 898.14C1170.7 891.016 1167.56 885.193 1163.6 879.299C1172.23 874.643 1179.83 874.031 1189.47 873.492L1192.18 850.002ZM1110.88 991.796C1105.42 991.759 1099.99 991.722 1094.7 991.387C1088.82 996.34 1084.31 1002.08 1083.58 1010.05C1083.06 1015.68 1084.93 1021.05 1088.59 1025.3C1094.67 1032.37 1103.97 1034.86 1112.96 1035.35C1123.31 1035.91 1133.2 1034.42 1142.66 1030.21C1148.53 1026.54 1153.79 1022.54 1155.46 1015.38C1156.51 1010.86 1156.34 1005.64 1153.72 1001.69C1150.3 996.53 1143.99 994.42 1138.18 993.426C1129.38 991.922 1120.09 991.859 1110.88 991.796Z" fill="#1B1B1B"/>
<path d="M1100.95 922.88C1098.71 921.098 1096.78 919.002 1095.39 916.482C1092.36 910.987 1091.52 905.056 1093.33 898.989C1095.15 892.915 1099.47 888.023 1105.07 885.154C1105.46 884.955 1105.86 884.767 1106.27 884.588C1106.68 884.409 1107.09 884.24 1107.5 884.081C1107.91 883.922 1108.33 883.774 1108.76 883.636C1109.18 883.498 1109.6 883.37 1110.03 883.253C1110.46 883.136 1110.89 883.03 1111.32 882.934C1111.75 882.838 1112.19 882.753 1112.63 882.679C1113.06 882.604 1113.5 882.541 1113.94 882.488C1114.38 882.435 1114.82 882.394 1115.27 882.363C1115.71 882.332 1116.15 882.312 1116.59 882.303C1117.04 882.294 1117.48 882.296 1117.92 882.309C1118.37 882.322 1118.81 882.345 1119.25 882.38C1119.69 882.415 1120.13 882.46 1120.57 882.517C1121.01 882.574 1121.45 882.641 1121.89 882.719C1122.32 882.797 1122.76 882.886 1123.19 882.986C1123.62 883.085 1124.05 883.195 1124.48 883.316C1124.91 883.437 1125.33 883.569 1125.75 883.71C1132.83 886.155 1137.05 891.248 1140.15 897.81C1140.39 898.016 1140.64 898.225 1140.89 898.427C1144.16 901.074 1152.84 903.444 1154.26 907.393L1153.3 907.58C1138.43 910.538 1133.07 939.473 1103.87 922.605C1105.95 920.448 1108.94 918.067 1109.86 915.176C1106.82 916.613 1102.82 920.056 1100.95 922.88Z" fill="#BBED6E"/>
<path d="M1100.95 922.88C1098.71 921.098 1096.78 919.002 1095.39 916.482C1092.36 910.987 1091.52 905.056 1093.33 898.989C1095.15 892.915 1099.47 888.023 1105.07 885.154C1105.46 884.955 1105.86 884.767 1106.27 884.588C1106.68 884.409 1107.09 884.24 1107.5 884.081C1107.91 883.922 1108.33 883.774 1108.76 883.636C1109.18 883.498 1109.6 883.37 1110.03 883.253C1110.46 883.136 1110.89 883.03 1111.32 882.934C1111.75 882.838 1112.19 882.753 1112.63 882.679C1113.06 882.604 1113.5 882.541 1113.94 882.488C1114.38 882.435 1114.82 882.394 1115.27 882.363C1115.71 882.332 1116.15 882.312 1116.59 882.303C1117.04 882.294 1117.48 882.296 1117.92 882.309C1118.37 882.322 1118.81 882.345 1119.25 882.38C1119.69 882.415 1120.13 882.46 1120.57 882.517C1121.01 882.574 1121.45 882.641 1121.89 882.719C1122.32 882.797 1122.76 882.886 1123.19 882.986C1123.62 883.085 1124.05 883.195 1124.48 883.316C1124.91 883.437 1125.33 883.569 1125.75 883.71C1132.83 886.155 1137.05 891.248 1140.15 897.81C1130.69 895.871 1119.87 895.07 1111.46 900.832C1104.78 905.405 1102.68 911.976 1101.48 919.577C1101.31 920.678 1101.16 921.785 1100.95 922.88Z" fill="#F5F5F5"/>
<path fill-rule="evenodd" clip-rule="evenodd" d="M982.29 862.432C981.217 862.497 980.146 862.589 979.078 862.707C978.019 862.824 976.963 862.966 975.91 863.135C974.858 863.304 973.81 863.498 972.767 863.718C971.724 863.938 970.687 864.183 969.656 864.453C968.625 864.724 967.602 865.019 966.585 865.34C965.569 865.661 964.561 866.006 963.561 866.376C962.562 866.746 961.572 867.14 960.591 867.558C959.611 867.977 958.642 868.419 957.683 868.884C956.724 869.35 955.777 869.839 954.842 870.351C953.907 870.863 952.986 871.398 952.077 871.955C951.168 872.512 950.274 873.09 949.393 873.691C948.513 874.292 947.648 874.914 946.798 875.557C945.948 876.2 945.114 876.864 944.297 877.548C943.479 878.232 942.678 878.936 941.895 879.659C941.112 880.382 940.347 881.123 939.6 881.884C938.853 882.645 938.126 883.423 937.417 884.219C936.708 885.015 936.019 885.828 935.35 886.658C934.681 887.487 934.032 888.333 933.404 889.195C932.776 890.056 932.17 890.932 931.585 891.823C931 892.714 930.438 893.619 929.897 894.538C929.356 895.457 928.838 896.388 928.343 897.332C927.848 898.276 927.376 899.232 926.927 900.199C926.478 901.166 926.054 902.143 925.653 903.131C925.252 904.119 924.876 905.116 924.524 906.122C924.172 907.129 923.845 908.143 923.542 909.165C923.24 910.187 922.963 911.216 922.711 912.252C922.458 913.288 922.232 914.329 922.031 915.376C921.83 916.423 921.654 917.475 921.504 918.53C921.354 919.585 921.23 920.644 921.132 921.705C921.034 922.767 920.962 923.83 920.916 924.895C920.87 925.96 920.85 927.026 920.856 928.092C920.862 929.158 920.894 930.223 920.952 931.288C921.01 932.352 921.094 933.414 921.204 934.475C921.314 935.536 921.45 936.593 921.611 937.646C921.773 938.7 921.96 939.749 922.173 940.794C922.386 941.838 922.625 942.877 922.888 943.91C923.152 944.943 923.441 945.968 923.755 946.987C924.068 948.006 924.407 949.016 924.77 950.019C925.133 951.021 925.521 952.014 925.933 952.997C926.344 953.98 926.78 954.953 927.239 955.915C927.698 956.877 928.181 957.827 928.687 958.766C929.192 959.704 929.721 960.629 930.272 961.542C930.823 962.455 931.396 963.353 931.991 964.237C932.586 965.122 933.202 965.991 933.839 966.846C934.477 967.701 935.135 968.539 935.813 969.361C936.492 970.183 937.19 970.988 937.907 971.776C938.625 972.564 939.362 973.334 940.117 974.086C940.872 974.839 941.646 975.572 942.437 976.286C943.228 977 944.037 977.694 944.862 978.369C945.687 979.044 946.528 979.698 947.385 980.332C948.242 980.965 949.114 981.578 950.001 982.169C950.888 982.76 951.789 983.328 952.704 983.875C953.619 984.422 954.547 984.947 955.488 985.448C956.428 985.949 957.38 986.428 958.344 986.883C959.308 987.338 960.282 987.769 961.267 988.176C962.252 988.583 963.247 988.966 964.25 989.325C965.254 989.684 966.266 990.018 967.286 990.327C968.306 990.636 969.333 990.92 970.367 991.179C971.401 991.438 972.441 991.671 973.486 991.88C974.531 992.088 975.581 992.27 976.635 992.427C977.689 992.584 978.746 992.715 979.807 992.82C980.868 992.925 981.93 993.004 982.995 993.057C984.059 993.11 985.124 993.137 986.19 993.138C987.256 993.139 988.321 993.114 989.386 993.063C990.451 993.012 991.513 992.935 992.574 992.832C993.644 992.728 994.71 992.598 995.773 992.441C996.836 992.285 997.895 992.102 998.95 991.893C1000 991.684 1001.05 991.45 1002.09 991.19C1003.14 990.929 1004.17 990.643 1005.2 990.332C1006.23 990.02 1007.25 989.683 1008.26 989.322C1009.28 988.96 1010.28 988.573 1011.27 988.162C1012.26 987.751 1013.25 987.315 1014.22 986.855C1015.19 986.396 1016.15 985.912 1017.1 985.405C1018.04 984.898 1018.98 984.368 1019.9 983.815C1020.82 983.262 1021.73 982.686 1022.62 982.089C1023.52 981.491 1024.39 980.871 1025.26 980.23C1026.12 979.589 1026.97 978.927 1027.8 978.244C1028.63 977.561 1029.44 976.858 1030.23 976.135C1031.03 975.412 1031.81 974.67 1032.56 973.909C1033.32 973.148 1034.06 972.368 1034.78 971.57C1035.5 970.772 1036.2 969.957 1036.89 969.125C1037.56 968.293 1038.22 967.444 1038.86 966.579C1039.5 965.714 1040.12 964.834 1040.71 963.939C1041.3 963.044 1041.88 962.134 1042.43 961.211C1042.98 960.288 1043.51 959.351 1044.01 958.402C1044.52 957.453 1045 956.491 1045.45 955.518C1045.91 954.545 1046.34 953.561 1046.75 952.567C1047.16 951.572 1047.54 950.568 1047.9 949.555C1048.26 948.542 1048.59 947.52 1048.9 946.49C1049.21 945.46 1049.49 944.423 1049.75 943.38C1050 942.336 1050.23 941.286 1050.44 940.231C1050.65 939.176 1050.83 938.117 1050.98 937.053C1051.13 935.989 1051.26 934.922 1051.36 933.851C1051.46 932.781 1051.53 931.709 1051.58 930.635C1051.63 929.561 1051.66 928.487 1051.65 927.412C1051.64 926.337 1051.61 925.262 1051.55 924.189C1051.5 923.116 1051.41 922.044 1051.3 920.975C1051.19 919.906 1051.05 918.84 1050.89 917.777C1050.72 916.715 1050.53 915.657 1050.32 914.604C1050.11 913.551 1049.87 912.503 1049.6 911.462C1049.33 910.421 1049.03 909.387 1048.72 908.36C1048.4 907.333 1048.06 906.315 1047.69 905.305C1047.32 904.296 1046.93 903.296 1046.51 902.305C1046.09 901.314 1045.65 900.335 1045.18 899.366C1044.71 898.397 1044.22 897.441 1043.71 896.496C1043.2 895.551 1042.67 894.62 1042.11 893.702C1041.55 892.784 1040.97 891.88 1040.36 890.991C1039.76 890.102 1039.13 889.228 1038.49 888.369C1037.84 887.51 1037.17 886.668 1036.49 885.842C1035.8 885.017 1035.09 884.208 1034.36 883.417C1033.63 882.626 1032.89 881.854 1032.12 881.1C1031.35 880.346 1030.57 879.611 1029.77 878.896C1028.97 878.181 1028.15 877.486 1027.31 876.811C1026.47 876.136 1025.62 875.482 1024.75 874.849C1023.88 874.216 1023 873.605 1022.1 873.016C1021.2 872.427 1020.29 871.86 1019.36 871.316C1018.44 870.771 1017.5 870.25 1016.54 869.753C1015.59 869.255 1014.63 868.781 1013.65 868.33C1012.67 867.88 1011.69 867.454 1010.69 867.052C1009.69 866.65 1008.69 866.273 1007.67 865.921C1006.66 865.569 1005.63 865.242 1004.6 864.94C1003.57 864.639 1002.53 864.363 1001.49 864.112C1000.44 863.862 999.392 863.638 998.335 863.439C997.279 863.24 996.219 863.068 995.154 862.921C994.089 862.775 993.022 862.655 991.951 862.561C990.88 862.468 989.808 862.401 988.734 862.36C987.66 862.319 986.586 862.304 985.511 862.317C984.436 862.329 983.363 862.367 982.29 862.432ZM999.525 889.496C994.317 886.257 988.689 885.207 982.609 885.568C973.528 887.667 967.237 891.734 962.267 899.797C954.824 911.872 953.868 928.018 957.132 941.56C959.462 951.227 964.574 960.861 973.269 966.17C978.561 969.402 983.81 970.071 989.916 969.878C998.699 967.97 1004.9 964.024 1009.84 956.372C1017.42 944.626 1018.56 928.574 1015.62 915.186C1013.44 905.239 1008.43 895.031 999.525 889.496Z" fill="#1B1B1B"/>
<path d="M902.871 807.958C903.433 807.858 904.59 808.098 905.175 808.164C907.51 814.44 904.637 851.107 904.481 860.724C903.861 903.253 904.409 945.767 906.126 988.266L873.169 988.243L872.606 988.031C871.783 986.906 871.689 986.8 871.67 985.392C871.478 971.511 872.8 957.291 873.052 943.358C873.86 898.802 874.22 854.036 869.488 809.673L902.871 807.958Z" fill="#1B1B1B"/>
<path d="M635.092 248.728L647.923 274.47L636.442 274.48L636.418 770.605L679.694 770.702L678.436 773.268L636.423 773.285C636.405 788.081 638.305 837.448 635.206 847.895L634.449 847.603C632.93 838.379 633.638 828.38 633.647 819.036L633.72 773.298C624.6 773.283 563.094 774.512 560.479 771.995C565.091 768.819 623.697 770.618 633.709 770.626L633.702 274.485L622.328 274.464L635.092 248.728Z" fill="#1B1B1B"/>
<path d="M1258.66 759.117C1263.76 761.607 1279.92 768.15 1282.72 771.934C1276.93 777.344 1265.89 781.175 1258.61 784.705L1258.65 773.303L882.876 773.312L759.264 773.314C738.038 773.314 716.412 774.204 695.245 773.126L695.298 770.695L1258.64 770.615L1258.66 759.117Z" fill="#1B1B1B"/>
<path d="M812.005 915.94L817.373 915.971C818.656 916.779 819.076 916.899 819.67 918.297C822.389 924.694 817.892 940.556 815.457 947.041C810.15 961.176 799.081 972.14 785.383 978.287C769.863 985.25 751.365 985.451 735.572 979.219C722.14 973.919 710.719 963.89 704.952 950.531C702.02 943.741 697.242 924.326 699.98 917.263C702.657 915.556 704.54 915.991 707.635 915.969C708.078 933.128 709.568 949.562 722.792 962.077C733.246 971.97 747.413 976.557 761.675 976.086C775.662 975.623 789.415 970.318 799.047 959.95C810.132 948.017 811.567 931.444 812.005 915.94Z" fill="url(#paint7_linear_0_1)"/>
<path d="M1324.02 906.352C1326.53 906.224 1330.07 905.545 1332.24 906.935C1331.48 910.357 1330.82 913.772 1330.46 917.265C1329.32 928.311 1331.56 940.044 1338.79 948.744C1344.86 956.049 1352.75 959.226 1362.1 960.074C1372.81 961.046 1384.99 957.314 1393.24 950.363C1396.27 947.81 1401.21 942.711 1401.58 938.717C1402.05 937.743 1402.32 936.821 1402.48 935.755C1403.67 927.554 1403.13 912.893 1398.2 906.141C1401.86 906.059 1405.51 906.278 1409.17 906.456C1409.46 907.266 1409.52 907.379 1409.72 908.354C1410.58 912.693 1411.04 919.613 1408.67 923.468C1411.49 927.975 1410.81 958.746 1409.74 964.961C1408.37 966.263 1407.52 966.023 1405.67 966.188C1400.26 962.838 1403.93 955.86 1401.35 950.63C1401.26 950.446 1401.15 950.27 1401.05 950.091C1399.96 953.9 1396.26 956.928 1393.18 959.243C1383.88 966.205 1370.39 968.649 1359.06 967.02C1347.71 965.392 1337.34 959.733 1330.55 950.391C1320.72 936.864 1321.55 922.005 1324.02 906.352Z" fill="url(#paint8_linear_0_1)"/>
<path d="M707.639 908.817C704.983 908.9 703.401 909.277 701.002 907.908C698.818 902.745 702.408 891.641 704.443 886.541C709.817 873.073 720.896 862.742 734.16 857.147C750.005 850.464 769.326 850.421 785.185 857.067C798.422 862.613 809.488 872.759 814.798 886.195C817.116 892.063 820.722 901.682 818.686 908.02C816.341 908.585 814.052 909.146 811.65 909.417C812.558 899.378 807.513 885.764 801.275 877.962C792.745 867.294 779.723 861.108 766.274 859.75C751.477 858.257 736.275 861.849 724.721 871.481C713.255 881.039 708.847 894.302 707.639 908.817Z" fill="#71B107"/>
<path d="M590.761 915.979C592.229 915.926 593.749 915.822 595.215 915.925C595.759 915.964 597.583 916.227 597.994 916.49C599.245 917.289 599.884 925.886 600.109 927.498C601.884 940.256 605.223 949.912 614.209 959.566C624.1 970.19 637.651 975.514 652.023 976.037C668.821 976.649 681.731 970.143 693.785 958.994C695.339 961.284 696.712 963.751 698.158 966.114C686.332 976.961 672.065 983.327 655.946 983.743C638.855 984.184 622.122 978.495 609.776 966.488C595.586 952.689 591.045 935.179 590.761 915.979Z" fill="url(#paint9_linear_0_1)"/>
<path d="M544.396 915.745C552.442 915.618 574.27 913.922 580.862 916.165C582.684 916.785 582.821 917 583.672 918.695L582.214 920.281C574.962 923.143 545.597 921.322 535.968 921.285C535.95 929.834 533.855 967.56 538.819 972.646C542.221 976.133 559.925 974.42 564.83 974.336C572.623 974.373 582.486 973.077 589.987 974.536C591.635 976.538 591.117 977.559 591.017 980.09C589.664 981.361 588.664 981.297 586.852 981.476C577.405 982.408 551.368 982.63 542.69 980.963C538.687 980.194 534.396 978.763 531.333 975.976C525.905 971.036 528.155 925.392 528.166 916.026L544.396 915.745Z" fill="#71B107"/>
<path d="M649.66 852.359C650.278 852.305 650.899 852.296 651.519 852.278C671.012 851.72 685.7 858.068 699.814 871.333C697.935 873.022 695.82 874.435 693.768 875.905C685.232 867.85 675.9 862.049 664.144 860.127C648.216 857.524 633.2 861.21 620.124 870.49C614.924 874.76 610.324 879.864 607.025 885.744C603.597 891.854 601.091 906.37 595.347 909.754L593.825 909.285C592.936 907.789 592.499 906.658 592.331 904.904C591.351 894.703 599.814 880.954 606.144 873.417C617.555 859.831 632.337 853.986 649.66 852.359Z" fill="#71B107"/>
<path fill-rule="evenodd" clip-rule="evenodd" d="M1209.35 987.958C1210.7 987.934 1212.15 987.862 1213.65 987.787C1219.14 987.514 1225.34 987.207 1229.94 989.07C1236.72 991.815 1236.28 995.174 1235.81 998.868C1235.6 1000.42 1235.4 1002.03 1235.71 1003.67C1235.93 1004.83 1236.74 1006.21 1237.54 1007.58L1237.54 1007.58C1238.14 1008.61 1238.74 1009.63 1239.07 1010.54C1240.07 1013.29 1238.54 1016.28 1237.23 1018.82C1237.05 1019.17 1236.87 1019.51 1236.71 1019.85C1230.21 1024.41 1221.74 1024.09 1213.86 1023.79C1212.32 1023.73 1210.81 1023.67 1209.33 1023.65L1209.35 987.958ZM1218.21 1009.12C1218.43 1009.11 1218.66 1009.1 1218.88 1009.09C1222.29 1008.93 1225.76 1008.77 1229 1009.88C1230.71 1011.61 1230.74 1011.86 1230.94 1013.83C1230.96 1014 1230.98 1014.18 1231 1014.38C1230.63 1014.46 1230.22 1014.55 1229.78 1014.65C1226.49 1015.39 1221.61 1016.49 1219.12 1014.8C1217.68 1013.81 1217.41 1012.11 1217.13 1010.42C1217.09 1010.17 1217.05 1009.91 1217.01 1009.66C1216.98 1009.5 1216.94 1009.33 1216.91 1009.17C1217.34 1009.16 1217.77 1009.14 1218.21 1009.12ZM1220.51 996.12C1220.26 996.123 1220.01 996.125 1219.76 996.126L1217.97 996.685L1217.7 999.873C1220.23 1001.37 1223.7 1001.19 1226.6 1001.04C1226.75 1001.04 1226.9 1001.03 1227.05 1001.02L1227.89 998.311C1226.85 996.719 1226.79 996.705 1224.93 996.359C1223.49 996.091 1221.99 996.106 1220.51 996.12Z" fill="#548400"/>
<path fill-rule="evenodd" clip-rule="evenodd" d="M1255.01 987.722C1253.19 987.814 1251.48 987.901 1249.96 987.917C1249.94 989.723 1249.82 991.996 1249.69 994.529C1249.18 1004.1 1248.48 1017.38 1252.32 1023.1C1254.19 1023.97 1254.21 1023.97 1255.93 1023.4C1256.05 1023.36 1256.18 1023.32 1256.32 1023.28C1258.95 1020.01 1258.65 1015.03 1258.39 1010.68C1258.34 1009.8 1258.29 1008.94 1258.26 1008.13L1272.9 1023.36L1273.12 1023.37C1275.28 1023.45 1275.79 1023.47 1277.87 1022.36C1277.99 1022.13 1278.1 1021.92 1278.2 1021.72C1278.79 1020.63 1279.17 1019.9 1278.8 1018.44C1278.47 1017.18 1277.53 1016.12 1276.62 1015.08C1275.11 1013.38 1273.66 1011.74 1275.07 1009.39C1275.8 1008.17 1276.7 1007.16 1277.55 1006.2C1279.46 1004.06 1281.18 1002.13 1280.57 998.397C1280.05 995.219 1278.22 991.902 1275.48 990.141C1270.49 986.934 1261.97 987.368 1255.01 987.722ZM1260.4 996.157C1259.64 996.195 1258.9 996.232 1258.21 996.247C1258.21 996.728 1258.21 997.175 1258.21 997.598C1258.18 999.821 1258.17 1001.36 1259.57 1003.6C1262.75 1005.4 1267.74 1004.32 1271.28 1003.55L1271.64 1003.47C1271.65 1003.15 1271.65 1002.86 1271.66 1002.59C1271.72 1000.54 1271.74 999.644 1270.51 997.528C1267.79 995.785 1263.86 995.982 1260.4 996.157Z" fill="#548400"/>
<path d="M1235.29 906.071C1237.7 905.984 1239.62 905.916 1241.93 906.703C1242.61 908.131 1240.28 923.97 1240.96 928.729C1242.35 938.615 1247.19 947.728 1255.29 953.711C1263.13 959.499 1273.45 961.76 1283.04 960.24C1290.03 959.132 1297.68 955.067 1301.91 949.319C1304.16 950.645 1306.16 952.055 1307.02 954.498L1305.16 955.956C1303.95 958.808 1299.65 961.341 1297.03 962.883C1287.77 968.321 1274.28 968.643 1264.14 965.827C1263.45 965.64 1262.77 965.435 1262.09 965.214C1261.41 964.992 1260.74 964.753 1260.08 964.498C1259.41 964.242 1258.75 963.97 1258.1 963.681C1257.45 963.392 1256.8 963.086 1256.17 962.765C1255.53 962.444 1254.9 962.106 1254.28 961.753C1253.66 961.4 1253.05 961.031 1252.45 960.646C1251.85 960.262 1251.26 959.863 1250.68 959.449C1250.1 959.035 1249.53 958.606 1248.97 958.163C1248.41 957.72 1247.86 957.264 1247.33 956.793C1246.79 956.322 1246.27 955.838 1245.76 955.341C1245.25 954.844 1244.75 954.335 1244.26 953.812C1243.77 953.29 1243.3 952.756 1242.84 952.209C1242.39 951.663 1241.94 951.106 1241.51 950.537C1241.08 949.968 1240.67 949.389 1240.26 948.799C1239.86 948.21 1239.48 947.61 1239.11 947.001C1238.74 946.392 1238.38 945.773 1238.04 945.146C1231.6 933.24 1231.37 918.811 1235.29 906.071Z" fill="url(#paint10_linear_0_1)"/>
<path d="M538.832 854.732C550.306 853.734 579.314 853.253 590.217 854.833C591.316 856.508 590.918 858.532 590.831 860.448C584.633 865.643 547.697 856.352 537.034 864.504C536.834 864.657 536.639 864.817 536.442 864.973C535.475 872.982 538.062 903.764 534.154 908.807C532.168 908.813 530.392 909.347 528.915 907.953C527.29 898.776 526.792 872.08 529.702 862.836C531.097 858.404 534.955 856.694 538.832 854.732Z" fill="#71B107"/>
<path d="M1359.14 877.264C1370.65 876.572 1382.32 877.904 1392.02 884.778C1395.81 887.467 1400.58 892.032 1401.35 896.771C1403.13 892.925 1402.54 889.403 1402.48 885.299C1402.44 882.556 1402.84 880.724 1404.79 878.722C1407.04 878.283 1406.96 878.243 1408.93 879.407C1409.57 880.607 1410.09 881.85 1410.31 883.198C1411.02 887.43 1410.32 897.171 1407.91 900.741C1404.2 900.599 1400.5 900.476 1396.79 900.371C1394.18 896.56 1391.35 893.105 1387.17 890.954C1386.97 890.612 1386.81 890.238 1386.56 889.929C1384.19 887.013 1377.4 885.068 1373.82 884.509C1364.2 883.006 1350.19 885.071 1342.62 891.712C1340.01 894.001 1338.17 897.527 1335.32 899.451C1333.11 900.947 1330.71 900.514 1328.26 899.961C1327.9 897.946 1329.21 895.702 1330.35 894.016C1337.28 883.743 1347.44 879.497 1359.14 877.264Z" fill="#71B107"/>
<path d="M1303.49 987.623C1305.69 987.327 1307.79 987.082 1309.75 988.362C1315.28 991.98 1319.19 1006.31 1320.74 1012.74C1321.43 1015.63 1322.31 1020.1 1320.44 1022.66C1319.62 1023.8 1319.24 1023.57 1317.95 1023.82C1315.03 1022.56 1314.68 1019.33 1312.76 1017.05C1311.23 1015.24 1309.85 1015.69 1307.64 1015.57C1305.33 1015.52 1303.03 1015.63 1300.71 1015.72C1299.56 1018.32 1298.12 1021.44 1295.3 1022.56C1293.21 1023.39 1292.46 1023.25 1290.55 1022.25C1290.3 1021.46 1290.1 1020.94 1290.18 1020.1C1290.73 1014.05 1298.99 991.534 1303.49 987.623Z" fill="#548400"/>
<path d="M1344.63 987.644C1347.96 987.359 1352.83 987.246 1355.72 989.19C1357.84 990.615 1358.63 992.145 1359.16 994.531C1355.4 999.731 1346.34 993.491 1341.48 997.378C1343.71 1001.72 1354.28 1001.76 1358.62 1004.55C1360.46 1005.73 1361.72 1007.36 1361.98 1009.58C1362.34 1012.6 1360.9 1016.54 1358.99 1018.87C1355.72 1022.87 1351.96 1023.5 1347.15 1023.94C1345.9 1023.95 1344.64 1023.84 1343.39 1023.71C1340.38 1023.41 1337.07 1022.79 1335.23 1020.1C1333.99 1018.3 1333.92 1017.34 1334.29 1015.28C1339.51 1012.19 1346.31 1017.92 1351.38 1014.4C1352.61 1013.55 1352.34 1013.59 1352.6 1012.31C1349.96 1009.58 1344.75 1008.62 1341.25 1007.08C1337.95 1005.63 1334.22 1003.84 1333.02 1000.13C1332.24 997.735 1333.02 995.18 1334.26 993.081C1336.37 989.496 1340.88 988.558 1344.63 987.644Z" fill="#548400"/>
<path d="M1272.46 877.105C1273.83 877.02 1275.2 876.968 1276.57 876.949C1288.74 876.813 1298.93 881.211 1307.54 889.672C1306.99 891.739 1303.68 893.395 1301.97 894.412C1301.15 893.48 1300.3 892.61 1299.35 891.795C1290.57 884.207 1279.88 883.562 1268.87 884.671C1258.19 887.184 1254.48 892.485 1246.31 898.926C1244.24 900.559 1242.84 900.649 1240.36 900.338L1239.43 898.87C1239.74 896.436 1240.95 894.83 1242.41 892.94C1250.25 882.791 1260.1 878.813 1272.46 877.105Z" fill="#71B107"/>
<path d="M1209.47 906.094C1211.95 906.096 1214.39 905.749 1216.48 907.271C1218.4 916.646 1216.88 953.766 1216.86 965.976C1214.31 966.042 1212.18 965.955 1209.71 965.281C1207.76 950.194 1209.24 922.088 1209.47 906.094Z" fill="#71B107"/>
<path d="M1393.15 988.493C1394.52 988.297 1395.92 988.234 1397.3 988.124C1399.12 989.364 1399.61 990.047 1400.21 992.189C1401.75 997.64 1401.69 1010.3 1399.1 1015.33C1404.39 1015.22 1412.16 1014.32 1417.02 1016.48C1418.61 1017.18 1418.69 1017.65 1419.3 1019.16C1418.4 1021.02 1417.47 1021.83 1415.83 1023.05C1411.33 1025.02 1396.63 1023.73 1391.04 1023.7C1395.31 1013.18 1389.73 999.459 1393.15 988.493Z" fill="#548400"/>
<path d="M830.154 901.394L831.59 898.338C835.934 896.609 842.449 896.887 847.124 896.938C853.327 897.005 860.231 896.128 864.759 900.778L864.297 905.951C860.181 908.556 840 907.621 835.263 906.36C832.588 905.648 831.683 904.167 830.392 901.854C830.308 901.703 830.233 901.547 830.154 901.394Z" fill="#71B107"/>
<path d="M830.154 901.394L831.59 898.338C835.934 896.609 842.449 896.887 847.124 896.938C853.327 897.005 860.231 896.128 864.759 900.778C853.501 902.143 841.536 901.187 830.154 901.394Z" fill="#71B107"/>
<path d="M1372.76 988.493C1373.9 988.278 1375.22 987.941 1376.38 987.988C1377.55 988.037 1378.39 988.694 1379.03 989.618C1382.61 994.744 1381.29 1013.25 1380.22 1019.29C1379.8 1021.66 1379.18 1021.73 1377.29 1023.07C1377.19 1023.13 1377.1 1023.21 1376.99 1023.23C1375.05 1023.6 1374.84 1023.36 1373.33 1022.25C1370.3 1015.42 1371.4 995.974 1372.76 988.493Z" fill="#548400"/>
<path d="M1209.26 878.471C1209.46 878.465 1209.65 878.456 1209.85 878.455C1212.75 878.434 1214.11 878.142 1216.22 880.215C1218.24 886.432 1216.57 893.744 1215.87 900.167C1214.32 900.373 1212.81 900.322 1211.25 900.293C1207.66 896.639 1209.23 883.855 1209.26 878.471Z" fill="#71B107"/>
<path d="M1210.35 849.09C1210.43 849.045 1210.51 849.001 1210.59 848.96C1210.67 848.918 1210.75 848.878 1210.84 848.841C1210.92 848.804 1211 848.768 1211.09 848.735C1211.18 848.702 1211.26 848.67 1211.35 848.641C1211.44 848.612 1211.52 848.586 1211.61 848.561C1211.7 848.536 1211.78 848.514 1211.87 848.493C1211.96 848.473 1212.05 848.455 1212.14 848.439C1212.23 848.423 1212.32 848.409 1212.41 848.397C1212.5 848.386 1212.6 848.376 1212.69 848.369C1212.78 848.362 1212.87 848.358 1212.96 848.355C1213.05 848.352 1213.14 848.352 1213.23 848.354C1213.32 848.356 1213.42 848.36 1213.51 848.367C1213.6 848.373 1213.69 848.382 1213.78 848.393C1213.87 848.404 1213.96 848.417 1214.05 848.432C1214.14 848.447 1214.23 848.465 1214.32 848.485C1214.41 848.505 1214.49 848.527 1214.58 848.551C1214.67 848.576 1214.76 848.602 1214.85 848.63C1214.94 848.659 1215.02 848.689 1215.1 848.722C1215.19 848.755 1215.27 848.79 1215.36 848.827C1215.44 848.864 1215.52 848.902 1215.61 848.943C1215.69 848.984 1215.77 849.027 1215.85 849.072C1215.93 849.117 1216.01 849.164 1216.08 849.213C1216.16 849.262 1216.24 849.312 1216.31 849.365C1216.38 849.418 1216.46 849.472 1216.53 849.528C1216.6 849.585 1216.67 849.643 1216.74 849.702C1216.81 849.762 1216.88 849.823 1216.94 849.886C1217.01 849.949 1217.07 850.014 1217.14 850.08C1217.2 850.146 1217.26 850.214 1217.32 850.283C1217.38 850.352 1217.44 850.423 1217.49 850.495C1217.55 850.567 1217.61 850.64 1217.66 850.715C1217.71 850.79 1217.76 850.866 1217.81 850.943C1217.86 851.02 1217.9 851.099 1217.95 851.178C1218 851.257 1218.04 851.338 1218.08 851.42C1218.12 851.501 1218.16 851.584 1218.2 851.667C1218.23 851.751 1218.27 851.836 1218.3 851.921C1218.33 852.006 1218.36 852.091 1218.39 852.178C1218.42 852.265 1218.44 852.353 1218.47 852.441C1218.5 852.529 1218.52 852.617 1218.54 852.706C1218.56 852.795 1218.58 852.885 1218.59 852.975C1218.6 853.065 1218.62 853.155 1218.63 853.246C1218.64 853.337 1218.64 853.428 1218.65 853.519C1218.66 853.61 1218.66 853.701 1218.67 853.792C1218.67 853.883 1218.67 853.975 1218.66 854.066C1218.66 854.157 1218.66 854.248 1218.65 854.339C1218.64 854.43 1218.63 854.521 1218.62 854.611C1218.61 854.702 1218.59 854.792 1218.58 854.882C1218.57 854.972 1218.55 855.061 1218.53 855.15C1218.51 855.239 1218.49 855.328 1218.46 855.416C1218.43 855.503 1218.41 855.59 1218.38 855.677C1218.35 855.764 1218.31 855.849 1218.28 855.934C1218.25 856.019 1218.21 856.104 1218.18 856.187C1218.14 856.27 1218.1 856.352 1218.06 856.433C1218.02 856.514 1217.98 856.595 1217.93 856.674C1217.88 856.753 1217.84 856.831 1217.79 856.908C1217.74 856.985 1217.68 857.06 1217.63 857.135C1217.58 857.209 1217.52 857.282 1217.47 857.353C1217.41 857.425 1217.35 857.495 1217.29 857.564C1217.23 857.633 1217.17 857.7 1217.11 857.765C1217.04 857.831 1216.98 857.895 1216.91 857.958C1216.84 858.02 1216.78 858.081 1216.71 858.14C1216.64 858.199 1216.57 858.256 1216.5 858.312C1216.43 858.367 1216.35 858.421 1216.27 858.473C1216.2 858.525 1216.12 858.575 1216.05 858.623C1215.97 858.672 1215.89 858.718 1215.81 858.762C1215.73 858.806 1215.65 858.848 1215.57 858.888C1215.49 858.928 1215.41 858.966 1215.32 859.002C1215.24 859.038 1215.16 859.072 1215.07 859.104C1214.99 859.136 1214.91 859.166 1214.82 859.193C1214.73 859.221 1214.65 859.247 1214.56 859.27C1214.47 859.293 1214.38 859.315 1214.29 859.334C1214.2 859.353 1214.12 859.37 1214.03 859.385C1213.94 859.4 1213.85 859.412 1213.76 859.423C1213.67 859.434 1213.58 859.442 1213.49 859.448C1213.4 859.454 1213.31 859.458 1213.22 859.459C1213.13 859.461 1213.03 859.461 1212.94 859.458C1212.85 859.455 1212.76 859.45 1212.67 859.443C1212.58 859.436 1212.49 859.426 1212.4 859.415C1212.31 859.403 1212.23 859.389 1212.14 859.373C1212.05 859.357 1211.96 859.339 1211.87 859.319C1211.78 859.299 1211.7 859.277 1211.61 859.252C1211.52 859.227 1211.44 859.201 1211.35 859.172C1211.26 859.143 1211.18 859.112 1211.09 859.079C1211.01 859.046 1210.93 859.011 1210.84 858.974C1210.76 858.937 1210.68 858.898 1210.6 858.857C1210.52 858.816 1210.44 858.773 1210.36 858.728C1210.28 858.683 1210.2 858.637 1210.13 858.588C1210.05 858.539 1209.97 858.489 1209.9 858.436C1209.83 858.384 1209.75 858.33 1209.68 858.274C1209.61 858.218 1209.55 858.16 1209.48 858.101C1209.41 858.042 1209.34 857.981 1209.28 857.918C1209.21 857.855 1209.15 857.791 1209.08 857.726C1209.02 857.66 1208.96 857.593 1208.9 857.524C1208.84 857.455 1208.78 857.385 1208.73 857.314C1208.68 857.243 1208.62 857.17 1208.57 857.096C1208.52 857.022 1208.47 856.947 1208.42 856.87C1208.37 856.793 1208.33 856.716 1208.28 856.637C1208.23 856.558 1208.19 856.479 1208.15 856.398C1208.11 856.317 1208.07 856.235 1208.04 856.152C1208 856.069 1207.96 855.986 1207.93 855.901C1207.9 855.817 1207.87 855.732 1207.84 855.646C1207.81 855.56 1207.79 855.473 1207.76 855.386C1207.74 855.299 1207.72 855.211 1207.7 855.123C1207.68 855.035 1207.66 854.946 1207.64 854.857C1207.63 854.768 1207.61 854.678 1207.6 854.588C1207.59 854.499 1207.59 854.409 1207.58 854.318C1207.57 854.228 1207.57 854.138 1207.56 854.047C1207.56 853.957 1207.56 853.867 1207.56 853.776C1207.57 853.685 1207.57 853.595 1207.58 853.505C1207.59 853.415 1207.59 853.325 1207.6 853.235C1207.61 853.145 1207.63 853.055 1207.64 852.966C1207.66 852.877 1207.68 852.789 1207.69 852.7C1207.71 852.612 1207.73 852.524 1207.76 852.437C1207.79 852.35 1207.81 852.263 1207.84 852.177C1207.87 852.091 1207.9 852.006 1207.93 851.921C1207.96 851.837 1208 851.753 1208.03 851.67C1208.07 851.587 1208.11 851.506 1208.15 851.425C1208.19 851.344 1208.23 851.264 1208.27 851.185C1208.32 851.106 1208.36 851.029 1208.41 850.952C1208.46 850.875 1208.51 850.8 1208.56 850.726C1208.61 850.651 1208.67 850.578 1208.72 850.507C1208.78 850.436 1208.84 850.366 1208.9 850.297C1208.95 850.228 1209.01 850.16 1209.08 850.095C1209.14 850.029 1209.2 849.965 1209.27 849.902C1209.33 849.839 1209.4 849.778 1209.47 849.719C1209.54 849.66 1209.61 849.602 1209.68 849.546C1209.75 849.49 1209.82 849.436 1209.89 849.383C1209.96 849.33 1210.04 849.28 1210.12 849.231C1210.19 849.182 1210.27 849.135 1210.35 849.09Z" fill="#71B107"/>
<rect x="40" y="4" width="146.25" height="30" rx="3" fill="#444444"/>
<rect x="40.5" y="4.5" width="145.25" height="29" rx="2.5" stroke="white" stroke-opacity="0.0980392"/>
<path d="M51.3438 16C51.2969 15.6042 51.1068 15.2969 50.7734 15.0781C50.4401 14.8594 50.0313 14.75 49.5469 14.75C49.1927 14.75 48.8828 14.8073 48.6172 14.9219C48.3542 15.0365 48.1484 15.194 48 15.3945C47.8542 15.5951 47.7813 15.8229 47.7813 16.0781C47.7813 16.2917 47.832 16.4753 47.9336 16.6289C48.0378 16.7799 48.1706 16.9062 48.332 17.0078C48.4935 17.1068 48.6628 17.1888 48.8398 17.2539C49.0169 17.3164 49.1797 17.3672 49.3281 17.4062L50.1406 17.625C50.349 17.6797 50.5807 17.7552 50.8359 17.8516C51.0938 17.9479 51.3398 18.0794 51.5742 18.2461C51.8112 18.4102 52.0065 18.6211 52.1602 18.8789C52.3138 19.1367 52.3906 19.4531 52.3906 19.8281C52.3906 20.2604 52.2773 20.651 52.0508 21C51.8268 21.349 51.4987 21.6263 51.0664 21.832C50.6367 22.0378 50.1146 22.1406 49.5 22.1406C48.9271 22.1406 48.431 22.0482 48.0117 21.8633C47.5951 21.6784 47.2669 21.4206 47.0273 21.0898C46.7904 20.7591 46.6563 20.375 46.625 19.9375H47.625C47.651 20.2396 47.7526 20.4896 47.9297 20.6875C48.1094 20.8828 48.3359 21.0286 48.6094 21.125C48.8854 21.2187 49.1823 21.2656 49.5 21.2656C49.8698 21.2656 50.2018 21.2057 50.4961 21.0859C50.7904 20.9635 51.0234 20.7943 51.1953 20.5781C51.3672 20.3594 51.4531 20.1042 51.4531 19.8125C51.4531 19.5469 51.3789 19.3307 51.2305 19.1641C51.082 18.9974 50.8867 18.862 50.6445 18.7578C50.4023 18.6536 50.1406 18.5625 49.8594 18.4844L48.875 18.2031C48.25 18.0234 47.7552 17.7669 47.3906 17.4336C47.026 17.1003 46.8438 16.6641 46.8438 16.125C46.8438 15.6771 46.9648 15.2865 47.207 14.9531C47.4518 14.6172 47.7799 14.3568 48.1914 14.1719C48.6055 13.9844 49.0677 13.8906 49.5781 13.8906C50.0938 13.8906 50.5521 13.9831 50.9531 14.168C51.3542 14.3503 51.6719 14.6003 51.9062 14.918C52.1432 15.2357 52.2682 15.5964 52.2813 16H51.3438ZM54.3115 14L56.6865 20.7344H56.7803L59.1553 14H60.1709L57.2334 22H56.2334L53.2959 14H54.3115ZM66.5098 16.5C66.4238 16.237 66.3105 16.0013 66.1699 15.793C66.0319 15.582 65.8665 15.4023 65.6738 15.2539C65.4837 15.1055 65.2676 14.9922 65.0254 14.9141C64.7832 14.8359 64.5176 14.7969 64.2285 14.7969C63.7546 14.7969 63.3236 14.9193 62.9355 15.1641C62.5475 15.4089 62.2389 15.7695 62.0098 16.2461C61.7806 16.7227 61.666 17.3073 61.666 18C61.666 18.6927 61.7819 19.2773 62.0137 19.7539C62.2454 20.2305 62.5592 20.5911 62.9551 20.8359C63.3509 21.0807 63.7962 21.2031 64.291 21.2031C64.7493 21.2031 65.153 21.1055 65.502 20.9102C65.8535 20.7122 66.127 20.4336 66.3223 20.0742C66.5202 19.7122 66.6191 19.2865 66.6191 18.7969L66.916 18.8594H64.5098V18H67.5566V18.8594C67.5566 19.5182 67.416 20.0911 67.1348 20.5781C66.8561 21.0651 66.4707 21.4427 65.9785 21.7109C65.4889 21.9766 64.9264 22.1094 64.291 22.1094C63.5827 22.1094 62.9603 21.9427 62.4238 21.6094C61.89 21.276 61.4733 20.8021 61.1738 20.1875C60.877 19.5729 60.7285 18.8437 60.7285 18C60.7285 17.3672 60.8132 16.7982 60.9824 16.293C61.1543 15.7852 61.3965 15.3529 61.709 14.9961C62.0215 14.6393 62.3913 14.3659 62.8184 14.1758C63.2454 13.9857 63.7155 13.8906 64.2285 13.8906C64.6504 13.8906 65.0436 13.9544 65.4082 14.082C65.7754 14.207 66.1022 14.3854 66.3887 14.6172C66.6777 14.8464 66.9186 15.1211 67.1113 15.4414C67.304 15.7591 67.4368 16.112 67.5098 16.5H66.5098ZM72.3096 22V14H73.2783V21.1406H76.9971V22H72.3096ZM84.9355 18C84.9355 18.8437 84.7832 19.5729 84.4785 20.1875C84.1738 20.8021 83.7559 21.276 83.2246 21.6094C82.6934 21.9427 82.0866 22.1094 81.4043 22.1094C80.722 22.1094 80.1152 21.9427 79.584 21.6094C79.0527 21.276 78.6348 20.8021 78.3301 20.1875C78.0254 19.5729 77.873 18.8437 77.873 18C77.873 17.1562 78.0254 16.4271 78.3301 15.8125C78.6348 15.1979 79.0527 14.724 79.584 14.3906C80.1152 14.0573 80.722 13.8906 81.4043 13.8906C82.0866 13.8906 82.6934 14.0573 83.2246 14.3906C83.7559 14.724 84.1738 15.1979 84.4785 15.8125C84.7832 16.4271 84.9355 17.1562 84.9355 18ZM83.998 18C83.998 17.3073 83.8822 16.7227 83.6504 16.2461C83.4212 15.7695 83.11 15.4089 82.7168 15.1641C82.3262 14.9193 81.8887 14.7969 81.4043 14.7969C80.9199 14.7969 80.4811 14.9193 80.0879 15.1641C79.6973 15.4089 79.3861 15.7695 79.1543 16.2461C78.9251 16.7227 78.8105 17.3073 78.8105 18C78.8105 18.6927 78.9251 19.2773 79.1543 19.7539C79.3861 20.2305 79.6973 20.5911 80.0879 20.8359C80.4811 21.0807 80.9199 21.2031 81.4043 21.2031C81.8887 21.2031 82.3262 21.0807 82.7168 20.8359C83.11 20.5911 83.4212 20.2305 83.6504 19.7539C83.8822 19.2773 83.998 18.6927 83.998 18ZM92.0332 16.5C91.9473 16.237 91.834 16.0013 91.6934 15.793C91.5553 15.582 91.39 15.4023 91.1973 15.2539C91.0072 15.1055 90.791 14.9922 90.5488 14.9141C90.3066 14.8359 90.041 14.7969 89.752 14.7969C89.278 14.7969 88.847 14.9193 88.459 15.1641C88.071 15.4089 87.7624 15.7695 87.5332 16.2461C87.304 16.7227 87.1895 17.3073 87.1895 18C87.1895 18.6927 87.3053 19.2773 87.5371 19.7539C87.7689 20.2305 88.0827 20.5911 88.4785 20.8359C88.8743 21.0807 89.3197 21.2031 89.8145 21.2031C90.2728 21.2031 90.6764 21.1055 91.0254 20.9102C91.377 20.7122 91.6504 20.4336 91.8457 20.0742C92.0436 19.7122 92.1426 19.2865 92.1426 18.7969L92.4395 18.8594H90.0332V18H93.0801V18.8594C93.0801 19.5182 92.9395 20.0911 92.6582 20.5781C92.3796 21.0651 91.9941 21.4427 91.502 21.7109C91.0124 21.9766 90.4499 22.1094 89.8145 22.1094C89.1061 22.1094 88.4837 21.9427 87.9473 21.6094C87.4134 21.276 86.9967 20.8021 86.6973 20.1875C86.4004 19.5729 86.252 18.8437 86.252 18C86.252 17.3672 86.3366 16.7982 86.5059 16.293C86.6777 15.7852 86.9199 15.3529 87.2324 14.9961C87.5449 14.6393 87.9147 14.3659 88.3418 14.1758C88.7689 13.9857 89.2389 13.8906 89.752 13.8906C90.1738 13.8906 90.5671 13.9544 90.9316 14.082C91.2988 14.207 91.6257 14.3854 91.9121 14.6172C92.2012 14.8464 92.4421 15.1211 92.6348 15.4414C92.8275 15.7591 92.9603 16.112 93.0332 16.5H92.0332ZM101.489 18C101.489 18.8437 101.337 19.5729 101.032 20.1875C100.728 20.8021 100.31 21.276 99.7783 21.6094C99.2471 21.9427 98.6403 22.1094 97.958 22.1094C97.2757 22.1094 96.6689 21.9427 96.1377 21.6094C95.6064 21.276 95.1885 20.8021 94.8838 20.1875C94.5791 19.5729 94.4268 18.8437 94.4268 18C94.4268 17.1562 94.5791 16.4271 94.8838 15.8125C95.1885 15.1979 95.6064 14.724 96.1377 14.3906C96.6689 14.0573 97.2757 13.8906 97.958 13.8906C98.6403 13.8906 99.2471 14.0573 99.7783 14.3906C100.31 14.724 100.728 15.1979 101.032 15.8125C101.337 16.4271 101.489 17.1562 101.489 18ZM100.552 18C100.552 17.3073 100.436 16.7227 100.204 16.2461C99.9749 15.7695 99.6637 15.4089 99.2705 15.1641C98.8799 14.9193 98.4424 14.7969 97.958 14.7969C97.4736 14.7969 97.0348 14.9193 96.6416 15.1641C96.251 15.4089 95.9398 15.7695 95.708 16.2461C95.4788 16.7227 95.3643 17.3073 95.3643 18C95.3643 18.6927 95.4788 19.2773 95.708 19.7539C95.9398 20.2305 96.251 20.5911 96.6416 20.8359C97.0348 21.0807 97.4736 21.2031 97.958 21.2031C98.4424 21.2031 98.8799 21.0807 99.2705 20.8359C99.6637 20.5911 99.9749 20.2305 100.204 19.7539C100.436 19.2773 100.552 18.6927 100.552 18ZM106.212 22V14H111.04V14.8594H107.181V17.5625H110.79V18.4219H107.181V21.1406H111.103V22H106.212ZM119.224 16.5H118.255C118.198 16.2214 118.097 15.9766 117.954 15.7656C117.813 15.5547 117.642 15.3776 117.438 15.2344C117.238 15.0885 117.015 14.9792 116.771 14.9062C116.526 14.8333 116.271 14.7969 116.005 14.7969C115.521 14.7969 115.082 14.9193 114.688 15.1641C114.298 15.4089 113.987 15.7695 113.755 16.2461C113.526 16.7227 113.411 17.3073 113.411 18C113.411 18.6927 113.526 19.2773 113.755 19.7539C113.987 20.2305 114.298 20.5911 114.688 20.8359C115.082 21.0807 115.521 21.2031 116.005 21.2031C116.271 21.2031 116.526 21.1667 116.771 21.0937C117.015 21.0208 117.238 20.9128 117.438 20.7695C117.642 20.6237 117.813 20.4453 117.954 20.2344C118.097 20.0208 118.198 19.776 118.255 19.5H119.224C119.151 19.9089 119.018 20.2747 118.825 20.5977C118.632 20.9206 118.393 21.1953 118.106 21.4219C117.82 21.6458 117.498 21.8164 117.142 21.9336C116.787 22.0508 116.409 22.1094 116.005 22.1094C115.323 22.1094 114.716 21.9427 114.185 21.6094C113.653 21.276 113.235 20.8021 112.931 20.1875C112.626 19.5729 112.474 18.8437 112.474 18C112.474 17.1562 112.626 16.4271 112.931 15.8125C113.235 15.1979 113.653 14.724 114.185 14.3906C114.716 14.0573 115.323 13.8906 116.005 13.8906C116.409 13.8906 116.787 13.9492 117.142 14.0664C117.498 14.1836 117.82 14.3555 118.106 14.582C118.393 14.806 118.632 15.0794 118.825 15.4023C119.018 15.7227 119.151 16.0885 119.224 16.5ZM127.539 18C127.539 18.8437 127.387 19.5729 127.082 20.1875C126.777 20.8021 126.359 21.276 125.828 21.6094C125.297 21.9427 124.69 22.1094 124.008 22.1094C123.326 22.1094 122.719 21.9427 122.188 21.6094C121.656 21.276 121.238 20.8021 120.934 20.1875C120.629 19.5729 120.477 18.8437 120.477 18C120.477 17.1562 120.629 16.4271 120.934 15.8125C121.238 15.1979 121.656 14.724 122.188 14.3906C122.719 14.0573 123.326 13.8906 124.008 13.8906C124.69 13.8906 125.297 14.0573 125.828 14.3906C126.359 14.724 126.777 15.1979 127.082 15.8125C127.387 16.4271 127.539 17.1562 127.539 18ZM126.602 18C126.602 17.3073 126.486 16.7227 126.254 16.2461C126.025 15.7695 125.714 15.4089 125.32 15.1641C124.93 14.9193 124.492 14.7969 124.008 14.7969C123.523 14.7969 123.085 14.9193 122.691 15.1641C122.301 15.4089 121.99 15.7695 121.758 16.2461C121.529 16.7227 121.414 17.3073 121.414 18C121.414 18.6927 121.529 19.2773 121.758 19.7539C121.99 20.2305 122.301 20.5911 122.691 20.8359C123.085 21.0807 123.523 21.2031 124.008 21.2031C124.492 21.2031 124.93 21.0807 125.32 20.8359C125.714 20.5911 126.025 20.2305 126.254 19.7539C126.486 19.2773 126.602 18.6927 126.602 18ZM132.262 22V14H133.23V21.1406H136.949V22H132.262ZM144.888 18C144.888 18.8437 144.735 19.5729 144.431 20.1875C144.126 20.8021 143.708 21.276 143.177 21.6094C142.646 21.9427 142.039 22.1094 141.356 22.1094C140.674 22.1094 140.067 21.9427 139.536 21.6094C139.005 21.276 138.587 20.8021 138.282 20.1875C137.978 19.5729 137.825 18.8437 137.825 18C137.825 17.1562 137.978 16.4271 138.282 15.8125C138.587 15.1979 139.005 14.724 139.536 14.3906C140.067 14.0573 140.674 13.8906 141.356 13.8906C142.039 13.8906 142.646 14.0573 143.177 14.3906C143.708 14.724 144.126 15.1979 144.431 15.8125C144.735 16.4271 144.888 17.1562 144.888 18ZM143.95 18C143.95 17.3073 143.834 16.7227 143.603 16.2461C143.373 15.7695 143.062 15.4089 142.669 15.1641C142.278 14.9193 141.841 14.7969 141.356 14.7969C140.872 14.7969 140.433 14.9193 140.04 15.1641C139.649 15.4089 139.338 15.7695 139.106 16.2461C138.877 16.7227 138.763 17.3073 138.763 18C138.763 18.6927 138.877 19.2773 139.106 19.7539C139.338 20.2305 139.649 20.5911 140.04 20.8359C140.433 21.0807 140.872 21.2031 141.356 21.2031C141.841 21.2031 142.278 21.0807 142.669 20.8359C143.062 20.5911 143.373 20.2305 143.603 19.7539C143.834 19.2773 143.95 18.6927 143.95 18ZM151.985 16.5C151.899 16.237 151.786 16.0013 151.646 15.793C151.507 15.582 151.342 15.4023 151.149 15.2539C150.959 15.1055 150.743 14.9922 150.501 14.9141C150.259 14.8359 149.993 14.7969 149.704 14.7969C149.23 14.7969 148.799 14.9193 148.411 15.1641C148.023 15.4089 147.715 15.7695 147.485 16.2461C147.256 16.7227 147.142 17.3073 147.142 18C147.142 18.6927 147.257 19.2773 147.489 19.7539C147.721 20.2305 148.035 20.5911 148.431 20.8359C148.826 21.0807 149.272 21.2031 149.767 21.2031C150.225 21.2031 150.629 21.1055 150.978 20.9102C151.329 20.7122 151.603 20.4336 151.798 20.0742C151.996 19.7122 152.095 19.2865 152.095 18.7969L152.392 18.8594H149.985V18H153.032V18.8594C153.032 19.5182 152.892 20.0911 152.61 20.5781C152.332 21.0651 151.946 21.4427 151.454 21.7109C150.965 21.9766 150.402 22.1094 149.767 22.1094C149.058 22.1094 148.436 21.9427 147.899 21.6094C147.366 21.276 146.949 20.8021 146.649 20.1875C146.353 19.5729 146.204 18.8437 146.204 18C146.204 17.3672 146.289 16.7982 146.458 16.293C146.63 15.7852 146.872 15.3529 147.185 14.9961C147.497 14.6393 147.867 14.3659 148.294 14.1758C148.721 13.9857 149.191 13.8906 149.704 13.8906C150.126 13.8906 150.519 13.9544 150.884 14.082C151.251 14.207 151.578 14.3854 151.864 14.6172C152.153 14.8464 152.394 15.1211 152.587 15.4414C152.78 15.7591 152.912 16.112 152.985 16.5H151.985ZM155.66 14V22H154.691V14H155.66ZM164.04 16.5H163.071C163.014 16.2214 162.914 15.9766 162.771 15.7656C162.63 15.5547 162.458 15.3776 162.255 15.2344C162.054 15.0885 161.832 14.9792 161.587 14.9062C161.342 14.8333 161.087 14.7969 160.821 14.7969C160.337 14.7969 159.898 14.9193 159.505 15.1641C159.114 15.4089 158.803 15.7695 158.571 16.2461C158.342 16.7227 158.228 17.3073 158.228 18C158.228 18.6927 158.342 19.2773 158.571 19.7539C158.803 20.2305 159.114 20.5911 159.505 20.8359C159.898 21.0807 160.337 21.2031 160.821 21.2031C161.087 21.2031 161.342 21.1667 161.587 21.0937C161.832 21.0208 162.054 20.9128 162.255 20.7695C162.458 20.6237 162.63 20.4453 162.771 20.2344C162.914 20.0208 163.014 19.776 163.071 19.5H164.04C163.967 19.9089 163.834 20.2747 163.642 20.5977C163.449 20.9206 163.209 21.1953 162.923 21.4219C162.636 21.6458 162.315 21.8164 161.958 21.9336C161.604 22.0508 161.225 22.1094 160.821 22.1094C160.139 22.1094 159.532 21.9427 159.001 21.6094C158.47 21.276 158.052 20.8021 157.747 20.1875C157.442 19.5729 157.29 18.8437 157.29 18C157.29 17.1562 157.442 16.4271 157.747 15.8125C158.052 15.1979 158.47 14.724 159.001 14.3906C159.532 14.0573 160.139 13.8906 160.821 13.8906C161.225 13.8906 161.604 13.9492 161.958 14.0664C162.315 14.1836 162.636 14.3555 162.923 14.582C163.209 14.806 163.449 15.0794 163.642 15.4023C163.834 15.7227 163.967 16.0885 164.04 16.5ZM165.934 22H164.918L167.855 14H168.855L171.793 22H170.777L168.387 15.2656H168.324L165.934 22ZM166.309 18.875H170.402V19.7344H166.309V18.875ZM178.805 14V22H177.836V15.0156H177.789L175.836 16.3125V15.3281L177.836 14H178.805Z" fill="white"/>
<defs>
<linearGradient id="paint0_linear_0_1" x1="734.428" y1="628.411" x2="828.048" y2="636.818" gradientUnits="userSpaceOnUse">
<stop stop-color="#54B51A"/>
<stop offset="1" stop-color="#93D84D"/>
</linearGradient>
<linearGradient id="paint1_linear_0_1" x1="851.502" y1="603.935" x2="871.205" y2="657.588" gradientUnits="userSpaceOnUse">
<stop stop-color="#A4E631"/>
<stop offset="1" stop-color="#D7F69E"/>
</linearGradient>
<linearGradient id="paint2_linear_0_1" x1="821.941" y1="655.663" x2="872.78" y2="628.679" gradientUnits="userSpaceOnUse">
<stop stop-color="#29910D"/>
<stop offset="1" stop-color="#93D551"/>
</linearGradient>
<linearGradient id="paint3_linear_0_1" x1="612.123" y1="708.794" x2="854.101" y2="599.732" gradientUnits="userSpaceOnUse">
<stop stop-color="#1A580C"/>
<stop offset="1" stop-color="#5B8751"/>
</linearGradient>
<linearGradient id="paint4_linear_0_1" x1="736.816" y1="682.306" x2="731.096" y2="573.803" gradientUnits="userSpaceOnUse">
<stop stop-color="#59B71B"/>
<stop offset="1" stop-color="#A8E35F"/>
</linearGradient>
<linearGradient id="paint5_linear_0_1" x1="816.909" y1="538.837" x2="924.797" y2="482.19" gradientUnits="userSpaceOnUse">
<stop stop-color="#648D5F"/>
<stop offset="1" stop-color="#9FC372"/>
</linearGradient>
<linearGradient id="paint6_linear_0_1" x1="702.255" y1="502.994" x2="815.27" y2="506.86" gradientUnits="userSpaceOnUse">
<stop stop-color="#98D561"/>
<stop offset="1" stop-color="#DCFDAA"/>
</linearGradient>
<linearGradient id="paint7_linear_0_1" x1="758.475" y1="981.309" x2="759.079" y2="917.357" gradientUnits="userSpaceOnUse">
<stop stop-color="#67A101"/>
<stop offset="1" stop-color="#7BBF05"/>
</linearGradient>
<linearGradient id="paint8_linear_0_1" x1="1365.23" y1="965.079" x2="1366.03" y2="907.078" gradientUnits="userSpaceOnUse">
<stop stop-color="#68A201"/>
<stop offset="1" stop-color="#7BBF04"/>
</linearGradient>
<linearGradient id="paint9_linear_0_1" x1="643.208" y1="981.216" x2="643.723" y2="918.294" gradientUnits="userSpaceOnUse">
<stop stop-color="#67A200"/>
<stop offset="1" stop-color="#7BBF05"/>
</linearGradient>
<linearGradient id="paint10_linear_0_1" x1="1269.14" y1="964.975" x2="1269.45" y2="907.802" gradientUnits="userSpaceOnUse">
<stop stop-color="#67A201"/>
<stop offset="1" stop-color="#7BBF03"/>
</linearGradient>
</defs>
</svg>
